<?xml version="1.0" encoding="UTF-8" standalone="no"?>
<!-- Created with Inkscape (http://www.inkscape.org/) -->

<svg
   xmlns:dc="http://purl.org/dc/elements/1.1/"
   xmlns:cc="http://creativecommons.org/ns#"
   xmlns:rdf="http://www.w3.org/1999/02/22-rdf-syntax-ns#"
   xmlns:svg="http://www.w3.org/2000/svg"
   xmlns="http://www.w3.org/2000/svg"
   xmlns:xlink="http://www.w3.org/1999/xlink"
   xmlns:sodipodi="http://sodipodi.sourceforge.net/DTD/sodipodi-0.dtd"
   xmlns:inkscape="http://www.inkscape.org/namespaces/inkscape"
   width="1920"
   height="1080"
   viewBox="0 0 1920 1080"
   id="svg2"
   version="1.1"
   inkscape:version="0.91 r13725"
   inkscape:export-filename="/home/dad/Manjaro_cutout_notext.png"
   inkscape:export-xdpi="90"
   inkscape:export-ydpi="90"
   sodipodi:docname="Manjaro_cutout.svg">
  <defs
     id="defs4">
    <linearGradient
       inkscape:collect="always"
       id="linearGradient4153">
      <stop
         style="stop-color:#000000;stop-opacity:1;"
         offset="0"
         id="stop4155" />
      <stop
         style="stop-color:#3c403e;stop-opacity:1"
         offset="1"
         id="stop4157" />
    </linearGradient>
    <filter
       id="filter4226"
       inkscape:label="Drop Shadow"
       style="color-interpolation-filters:sRGB;">
      <feFlood
         id="feFlood4228"
         result="flood"
         flood-color="rgb(0,0,0)"
         flood-opacity="1" />
      <feComposite
         id="feComposite4230"
         result="composite1"
         operator="in"
         in2="SourceGraphic"
         in="flood" />
      <feGaussianBlur
         id="feGaussianBlur4232"
         result="blur"
         stdDeviation="1"
         in="composite1" />
      <feOffset
         id="feOffset4234"
         result="offset"
         dy="2"
         dx="2" />
      <feComposite
         id="feComposite4236"
         result="composite2"
         operator="over"
         in2="offset"
         in="SourceGraphic" />
    </filter>
    <linearGradient
       inkscape:collect="always"
       xlink:href="#linearGradient4153"
       id="linearGradient4159"
       x1="12.176204"
       y1="273.70889"
       x2="1917.5648"
       y2="789.97931"
       gradientUnits="userSpaceOnUse"
       gradientTransform="translate(-2.35e-5,-2.2659934e-5)" />
    <filter
       style="color-interpolation-filters:sRGB;"
       inkscape:label="Drop Shadow"
       id="filter4183">
      <feFlood
         flood-opacity="0.498039"
         flood-color="rgb(0,0,0)"
         result="flood"
         id="feFlood4185" />
      <feComposite
         in="flood"
         in2="SourceGraphic"
         operator="in"
         result="composite1"
         id="feComposite4187" />
      <feGaussianBlur
         in="composite1"
         stdDeviation="3"
         result="blur"
         id="feGaussianBlur4189" />
      <feOffset
         dx="6"
         dy="6"
         result="offset"
         id="feOffset4191" />
      <feComposite
         in="SourceGraphic"
         in2="offset"
         operator="over"
         result="fbSourceGraphic"
         id="feComposite4193" />
      <feColorMatrix
         result="fbSourceGraphicAlpha"
         in="fbSourceGraphic"
         values="0 0 0 -1 0 0 0 0 -1 0 0 0 0 -1 0 0 0 0 1 0"
         id="feColorMatrix4195" />
      <feFlood
         id="feFlood4197"
         flood-opacity="0.498039"
         flood-color="rgb(0,0,0)"
         result="flood"
         in="fbSourceGraphic" />
      <feComposite
         id="feComposite4199"
         in2="fbSourceGraphic"
         in="flood"
         operator="in"
         result="composite1" />
      <feGaussianBlur
         id="feGaussianBlur4201"
         in="composite1"
         stdDeviation="3"
         result="blur" />
      <feOffset
         id="feOffset4203"
         dx="6"
         dy="6"
         result="offset" />
      <feComposite
         id="feComposite4205"
         in2="offset"
         in="fbSourceGraphic"
         operator="over"
         result="composite2" />
    </filter>
    <filter
       style="color-interpolation-filters:sRGB"
       inkscape:label="Drop Shadow"
       id="filter4251">
      <feFlood
         flood-opacity="1"
         flood-color="rgb(0,0,0)"
         result="flood"
         id="feFlood4253" />
      <feComposite
         in="flood"
         in2="SourceGraphic"
         operator="in"
         result="composite1"
         id="feComposite4255" />
      <feGaussianBlur
         in="composite1"
         stdDeviation="5"
         result="blur"
         id="feGaussianBlur4257" />
      <feOffset
         dx="5"
         dy="5"
         result="offset"
         id="feOffset4259" />
      <feComposite
         in="SourceGraphic"
         in2="offset"
         operator="over"
         result="composite2"
         id="feComposite4261" />
    </filter>
  </defs>
  <sodipodi:namedview
     id="base"
     pagecolor="#ffffff"
     bordercolor="#666666"
     borderopacity="1.0"
     inkscape:pageopacity="0.0"
     inkscape:pageshadow="2"
     inkscape:zoom="0.59479167"
     inkscape:cx="944.86865"
     inkscape:cy="540"
     inkscape:document-units="px"
     inkscape:current-layer="layer1"
     showgrid="false"
     units="px"
     inkscape:window-width="1600"
     inkscape:window-height="843"
     inkscape:window-x="0"
     inkscape:window-y="33"
     inkscape:window-maximized="1" />
  <metadata
     id="metadata7">
    <rdf:RDF>
      <cc:Work
         rdf:about="">
        <dc:format>image/svg+xml</dc:format>
        <dc:type
           rdf:resource="http://purl.org/dc/dcmitype/StillImage" />
        <dc:title></dc:title>
      </cc:Work>
    </rdf:RDF>
  </metadata>
  <g
     inkscape:label="Layer 1"
     inkscape:groupmode="layer"
     id="layer1"
     transform="translate(0,27.637839)">
    <g
       id="g4147"
       transform="matrix(0.79993873,0,0,0.7999659,1050.7767,86.490695)">
      <path
         style="fill:#18b696"
         d="m -1313.5714,532.3622 0,-675 1200,0 1200,0 0,675 0,675 -1200,0 -1200,0 0,-675 z"
         id="path4163"
         inkscape:connector-curvature="0" />
      <path
         style="fill:#17b696"
         d="m -1313.5714,859.16342 c 0,-210.13619 0.4533,-347.91861 1.1432,-347.49221 0.6288,0.38862 1.3358,0.12893 1.5712,-0.57706 0.2353,-0.706 72.9865,29.2924 161.6692,66.66311 204.94333,86.36264 222.99899,93.88903 223.65773,93.23029 0.4655,-0.4655 -123.79593,-393.54657 -124.69173,-394.44244 -0.1796,-0.1796 -58.6966,26.37487 -130.0377,59.00993 -112.9089,51.65026 -129.9444,59.10325 -131.5115,57.5361 -1.5559,-1.55592 -1.8004,-38.04848 -1.8004,-268.76465 l 0,-266.96429 103.4375,0.0397 c 79.3707,0.0305 103.8862,0.39406 105.3662,1.5625 1.4726,1.16272 8.8193,48.218475 31.0726,199.02275 16.0292,108.625 29.505,199.29231 29.9463,201.4829 l 0.8024,3.98291 52.5,-42.50146 c 109.74814,-88.84676 181.88704,-147.921938 181.5744,-148.692837 -0.17841,-0.439938 -49.75809,-48.243738 -110.17705,-106.230657 -60.41896,-57.986915 -109.21235,-105.644196 -108.42975,-105.905066 0.7826,-0.26087 1.105,-0.98877 0.7164,-1.61755 -0.4268,-0.69064 417.7392,-1.14324 1056.26275,-1.14324 l 1056.96935,0 -0.3765,69.6875 c -0.2454,45.415194 -0.8492,71.2739 -1.734,74.2421625 -0.7465,2.5050625 -15.2113,24.8291495 -32.144,49.6090875 -16.9326,24.779938 -30.7866,45.623338 -30.7866,46.31865 0,0.695325 13.9956,36.60183 31.1014,79.79223 17.1057,43.19038 31.5257,81.32865 32.0445,84.75168 0.5187,3.42303 1.1504,141.9647 1.4037,307.87039 0.3863,253.01861 0.1867,301.92059 -1.2383,303.34559 -1.4318,1.43182 -11.1938,-6.63074 -62.104,-51.29265 -53.0873,-46.57185 -60.58117,-52.73155 -61.8588,-50.84558 -5.27875,7.79301 -57.25475,95.20108 -149.8475,251.99859 -79.50812,134.6402 -107.791,181.5414 -110.24112,182.8127 -2.62038,1.3593 -13.12688,1.7097 -51.27775,1.7097 -26.93138,0 -47.98213,-0.4845 -47.98213,-1.1042 0,-0.6073 -0.98437,-1.3827 -2.1875,-1.7229 -1.503,-0.4253 -45.60462,-94.1402 -140.9375,-299.48918 C 324.01048,615.77585 319.54523,606.38546 319.29448,612.70645 c -0.5605,14.12709 -2.97475,185.71086 -4.72625,335.90575 -1.01425,86.9688 -2.02338,169.389 -2.24263,183.1561 l -0.39862,25.031 63.42087,23.719 c 34.88138,13.0454 62.2405,23.9107 60.79813,24.1449 -2.07188,0.3365 -2.252,0.6606 -0.8575,1.5434 1.038,0.6571 -358.782005,1.1252 -873.54738,1.1365 l -875.3125,0.019 0,-348.19878 z m 786.83244,116.23912 c 140.61716,-88.45143 255.66756,-161.2167 255.66756,-161.7006 0,-0.4839 -12.79687,-3.48597 -28.4375,-6.67127 -135.78591,-27.65353 -218.37635,-44.38448 -402.75191,-81.58843 -117.18543,-23.64609 -213.14389,-42.87186 -213.24102,-42.72397 -0.0971,0.14792 29.12562,102.50328 64.93942,227.45638 45.2067,157.72455 65.58074,227.01335 66.63595,226.61805 0.83597,-0.3131 116.57035,-72.9387 257.1875,-161.39016 z M 23.669975,699.8622 C 178.37535,641.08095 304.81423,592.84505 304.64547,592.67133 304.3491,592.36636 80.1566,536.75259 -112.9464,489.08239 -241.01825,457.46605 -468.83919,401.3703 -477.60521,399.29341 l -7.15881,-1.69611 1.91898,3.71091 c 2.09854,4.05813 109.82265,199.6833 179.70037,326.33284 24.17155,43.80961 44.30466,79.52836 44.74025,79.375 0.4356,-0.15336 127.36907,-48.3726 282.074395,-107.15385 z M -676.0714,508.88052 c 95.90625,-64.24176 175.13156,-117.51576 176.05624,-118.38665 1.38396,-1.30346 -17.83128,-21.44682 -108.67105,-113.92006 C -799.61758,82.2092 -800.78529,81.043475 -801.52448,84.063413 -802.02936,86.126138 -909.12725,640.14553 -913.47593,663.19039 l -0.98187,5.20319 32.0057,-21.35493 c 17.60314,-11.7452 110.47445,-73.91636 206.3807,-138.15813 z M 360.1821,484.8622 C 414.40985,359.93559 507.45035,145.307 509.52397,140.356 l 1.62551,-3.88121 -5.17288,1.06455 c -10.46688,2.154 -432.156875,79.82286 -433.38475,79.82286 -0.698875,0 54.00225,82.69934 121.55825,183.7763 90.70875,135.71835 123.05037,183.19739 123.67612,181.5625 0.466,-1.21759 19.52613,-45.24505 42.35588,-97.8388 z m 442.36537,721.3575 c 1.41276,-0.8945 1.32175,-1.1877 -0.47875,-1.5434 -1.2225,-0.2415 61.53638,-31.8552 139.46401,-70.2527 80.00077,-39.4189 141.88757,-69.2111 142.14817,-68.4297 0.2537,0.7611 0.9757,1.0659 1.6044,0.6773 0.6859,-0.4238 1.1433,27.5796 1.1433,69.9923 l 0,70.6987 -142.8125,-0.019 c -83.134,-0.013 -142.08375,-0.4807 -141.06863,-1.1234 z"
         id="path4161"
         inkscape:connector-curvature="0" />
      <path
         style="fill:#17b494"
         d="m -1313.5714,859.30897 c 0,-345.55475 0.018,-348.04982 2.4613,-347.57923 1.7726,0.34138 293.0904,122.63493 380.28603,159.64195 3.22977,1.37076 6.40817,2.29502 7.06309,2.0539 0.65494,-0.24111 -11.12526,-39.25089 -26.1782,-86.68839 -79.99402,-252.09121 -99.16222,-311.875 -99.99492,-311.875 -0.5032,0 -59.2333,26.68204 -130.5114,59.29342 -71.2781,32.61139 -130.3907,58.98872 -131.3612,58.61627 -1.512,-0.58018 -1.7647,-38.96763 -1.7647,-268.04343 l 0,-267.36626 103.5969,0 c 81.3851,0 103.862,0.33501 104.833,1.5625 0.6798,0.85938 14.6705,92.559847 31.0905,203.778825 21.6762,146.820725 30.2744,202.122825 31.3871,201.875005 1.4761,-0.32874 139.9976,-112.00417 205.0869,-165.340105 17.39068,-14.250387 31.45318,-26.394725 31.25,-26.987413 -0.20316,-0.592699 -49.3069,-48.051575 -109.1194,-105.464183 -59.8125,-57.412605 -109.5217,-105.520119 -110.465,-106.905589 l -1.7149,-2.51904 1057.0274,0 1057.0275,0 0,68.691184 c 0,52.254911 -0.3739,69.5277785 -1.5625,72.1875035 -0.8594,1.922975 -15.4978,23.9829375 -32.5297,49.0221505 -17.0321,25.039212 -31.3068,46.878612 -31.7218,48.532 -0.5453,2.172537 8.0982,25.424422 31.1696,83.849162 17.5581,44.46365 32.3705,82.5305 32.9164,84.593 0.5457,2.0625 1.1601,139.80057 1.3653,306.08461 0.365,295.88262 0.3225,302.32144 -1.9882,301.71722 -1.2985,-0.33959 -28.8835,-23.89017 -61.3,-52.33463 -32.41647,-28.44446 -59.62197,-51.87071 -60.4566,-52.05835 -0.83462,-0.18762 -2.322,0.93738 -3.30525,2.5 -9.15975,14.55736 -58.09662,97.02099 -148.19037,249.71615 -59.02088,100.0313 -108.44063,183.1406 -109.82163,184.6875 l -2.511,2.8125 -47.99637,0 c -37.28138,0 -48.353,-0.3565 -49.59325,-1.5969 -0.87838,-0.8782 -62.09063,-131.8001 -136.0275,-290.93746 C 390.93898,755.69049 328.0496,620.4247 325.12148,614.2372 l -5.32375,-11.25 -0.88738,5.625 c -0.48812,3.09375 -1.26837,34.03125 -1.73387,68.75 -1.86063,138.7835 -5.72013,452.7554 -5.73363,466.4308 l -0.0138,14.5557 60.79375,22.7113 c 33.4365,12.4911 61.60175,23.5191 62.58925,24.5067 1.56075,1.5606 -112.64637,1.7955 -873.29371,1.7955 l -875.08984,0 0,-348.05323 z m 783.42285,120.3534 c 140.08619,-88.10991 256.86467,-161.55676 259.50775,-163.21523 2.64307,-1.65848 4.589,-3.232 4.32427,-3.49673 -1.34354,-1.34355 -649.70042,-132.30934 -650.5924,-131.41735 -0.41502,0.41503 4.57693,17.9656 76.49937,268.95414 56.70256,197.8756 54.23388,189.375 54.99693,189.375 0.30907,0 115.1779,-72.0899 255.26408,-160.19983 z M 26.6971,700.27634 C 181.87597,641.3335 308.59522,592.86212 308.29523,592.56219 c -1.6565,-1.65652 -792.44542,-196.88207 -794.5956,-196.16533 -0.58012,0.19336 35.97462,67.5678 81.23275,149.72097 45.25812,82.15315 96.31258,174.84028 113.45436,205.97139 27.0874,49.19333 31.49409,56.52048 33.66686,55.97898 1.375,-0.34269 129.46458,-48.84902 284.6435,-107.79186 z M -703.19156,529.2372 c 113.89416,-76.3125 207.08926,-139.18834 207.10022,-139.72409 0.0359,-1.75565 -304.33242,-310.778623 -305.2233,-309.890985 -0.47754,0.475788 -26.21665,132.208825 -57.19805,292.740075 -30.98139,160.53125 -56.66127,293.46864 -57.0664,295.41642 -0.71259,3.42599 -0.6381,3.4871 2.28533,1.875 1.66205,-0.91653 96.20803,-64.10392 210.1022,-140.41642 z m 1063.39878,-40 c 22.92475,-52.9375 47.41463,-109.46875 54.42175,-125.625 73.465,-169.38525 98.04963,-226.44828 98.04963,-227.58098 0,-0.73562 -0.98437,-1.05867 -2.1875,-0.7179 -1.20313,0.34078 -100.76562,18.78135 -221.25,40.97907 -120.48438,22.19771 -219.0625,40.80425 -219.0625,41.34786 0,2.75506 246.397,370.09546 247.439,368.89396 0.4995,-0.57586 19.66475,-44.35951 42.58962,-97.29701 z m 443.01275,716.155 c 2.24888,-2.2487 276.96133,-137.9333 280.73823,-138.6607 2.437,-0.4693 2.4704,0.4788 2.4704,70.0774 l 0,70.5533 -142.58925,0 c -129.80125,0 -142.41263,-0.1766 -140.61938,-1.97 z"
         id="path4159"
         inkscape:connector-curvature="0" />
      <path
         style="fill:#17b294"
         d="m -1313.5714,859.8622 c 0,-246.02315 0.3906,-347.5 1.3377,-347.5 0.7358,0 81.3139,33.69345 179.0625,74.87434 217.74703,91.73544 207.88417,87.62566 210.28865,87.62566 1.48399,0 1.75621,-0.70415 1.08731,-2.8125 -0.49077,-1.54687 -13.13668,-41.34375 -28.10204,-88.4375 -25.56143,-80.43805 -91.45652,-288.14879 -95.76822,-301.875 -1.0797,-3.4375 -2.3915,-6.7193 -2.915,-7.2929 -0.5234,-0.57359 -59.4781,25.72329 -131.0104,58.4375 -71.5324,32.71422 -130.9412,59.4804 -132.0196,59.4804 -1.7751,0 -1.9609,-25.35024 -1.9609,-267.5 l 0,-267.5 103.6163,0 c 87.4121,0 103.7207,0.2723 104.2844,1.74122 0.3675,0.95767 13.9388,91.6608 30.1584,201.562505 16.2197,109.901705 29.7805,201.124275 30.1353,202.716825 0.3745,1.68171 1.4015,2.72974 2.4498,2.5 0.9927,-0.21755 37.3944,-29.1848 80.89282,-64.37166 C -844.5203,106.4512 -805.4464,74.29215 -805.4464,72.634287 c 0,-0.819537 -47.8125,-47.379987 -106.25,-103.467667 -58.4375,-56.087679 -108.4917,-104.18863 -111.2316,-106.89101 l -4.9816,-4.91341 1057.169075,0 1057.169125,0 0,69.19825 0,69.19825 -16.6161,24.23925 c -36.9639,53.921787 -50.8839,75.0061 -50.8839,77.072437 0,1.1946 14.3965,38.452093 31.9924,82.794413 17.5957,44.34232 32.7771,83.15365 33.7364,86.2474 2.491,8.03371 2.6595,606.15915 0.1706,605.79386 -0.8804,-0.12921 -28.5121,-23.84506 -61.4039,-52.70189 -32.89187,-28.85683 -60.52312,-52.63832 -61.403,-52.84775 -2.13075,-0.50716 -16.42562,23.26421 -149.81525,249.13078 l -112.94625,191.25 -48.70762,0.3269 -48.70763,0.3267 -82.037,-176.5768 C 474.6871,933.69678 411.37997,797.44728 379.12497,728.03736 c -32.255,-69.4099 -59.2165,-126.39021 -59.91462,-126.6229 -0.79138,-0.2638 -1.56425,5.83498 -2.05313,16.19984 -1.37487,29.1526 -7.13212,540.0952 -6.09712,541.112 0.54637,0.5369 28.09462,11.087 61.21812,23.4448 33.1235,12.3576 61.2485,23.064 62.5,23.7919 1.6025,0.9318 -256.56425,1.3345 -873.03712,1.3612 l -875.3125,0.038 0,-347.5 z m 581.51434,247.9628 c 29.07336,-18.308 70.29816,-44.2575 91.61066,-57.6656 80.91561,-50.90564 112.5097,-70.78032 152.5,-95.93221 22.6875,-14.26931 57.5625,-36.2075 77.5,-48.75155 19.9375,-12.54404 55.09375,-34.64983 78.125,-49.12398 64.18024,-40.33451 67.93724,-42.80751 66.73915,-43.93016 -2.45721,-2.30249 -651.3597,-132.93454 -652.35336,-131.32675 -0.5499,0.88975 129.70676,456.28785 131.20413,458.71075 0.44419,0.7187 1.034,1.3067 1.31068,1.3067 0.27669,0 24.29036,-14.9792 53.36374,-33.2872 z M 26.99135,701.318 C 182.3321,642.28534 309.61685,593.4224 309.84648,592.73368 310.07897,592.0361 285.46898,585.33389 254.28373,577.60187 223.4946,569.96811 122.3661,544.8881 29.5536,521.86852 -133.70784,481.37604 -431.14559,408.09154 -468.96535,399.04043 c -10.18541,-2.43761 -18.83551,-4.11543 -19.22242,-3.72852 -0.67786,0.67785 21.56277,41.31292 162.46167,296.82807 58.52419,106.13153 65.278,117.83325 67.64745,117.20643 1.44774,-0.38297 129.72923,-48.99576 285.07,-108.02841 z M -705.36458,531.70068 c 115.455,-77.36383 210.09687,-141.18115 210.31527,-141.81627 0.49427,-1.43736 -304.39535,-311.89721 -306.3012,-311.89721 -1.45895,0 -116.29294,591.59264 -115.18268,593.38908 0.33513,0.54226 0.75359,0.98592 0.92989,0.98592 0.17631,0 94.78374,-63.29769 210.23872,-140.66152 z M 394.0186,413.56186 c 41.31287,-95.19106 85.2125,-196.38455 97.55487,-224.87441 12.34225,-28.48985 22.14288,-52.57551 21.779,-53.52369 -0.36937,-0.96249 -1.6305,-1.43353 -2.85525,-1.06646 -2.02062,0.60564 -402.376,74.61135 -428.90687,79.28348 -6.44225,1.13448 -11.962625,2.71266 -12.2675,3.50704 -0.438875,1.14364 232.4535,351.71831 244.314,367.76762 1.75975,2.38135 3.54912,3.69942 4.17387,3.07466 0.6015,-0.60148 34.895,-78.97718 76.20788,-174.16824 z m 409.285,792.23934 c 3.50613,-2.0827 271.3166,-134.4027 277.8125,-137.2619 l 5.3125,-2.3383 0,70.5806 0,70.5806 -142.8125,-0.038 c -110.85975,-0.03 -142.25313,-0.3702 -140.3125,-1.523 z"
         id="path4157"
         inkscape:connector-curvature="0" />
      <path
         style="fill:#17b092"
         d="m -1313.5714,859.8622 c 0,-191.125 0.1948,-347.5 0.433,-347.5 0.2381,0 2.0662,0.8085 4.0625,1.79667 3.5374,1.75111 295.4159,124.8758 354.55637,149.56447 27.14078,11.33015 34.69813,13.84903 34.69813,11.56502 0,-0.45311 -3.0539,-10.43749 -6.78644,-22.1875 -3.73254,-11.75001 -18.58592,-58.48866 -33.00752,-103.86366 -14.4216,-45.375 -39.24123,-123.5625 -55.15474,-173.75 -15.9135,-50.1875 -29.6605,-93.5 -30.5489,-96.25 -1.4111,-4.36786 -2.0744,-4.98463 -5.2464,-4.87842 -1.997,0.0669 -61.4669,26.64498 -132.1552,59.0625 -70.6883,32.41749 -129.0476,58.94092 -129.6875,58.94092 -0.7141,0 -1.1633,-103.28531 -1.1633,-267.5 l 0,-267.5 103.4375,0.004 103.4375,0.004 29.7865,202.183715 c 16.3826,111.201045 30.2107,203.589975 30.7292,205.308725 0.5184,1.71875 1.5478,3.125 2.2874,3.125 2.5957,0 239.4624,-192.315463 240.06473,-194.91205 0.33061,-1.425238 -207.15093,-201.84439 -219.10853,-211.65045 l -4.9539,-4.0625 1057.15985,0 1057.15975,0 0,68.736041 0,68.7360465 -5.4089,7.20145 C 1072.6326,13.2027 1020.5513,90.176425 1018.8368,93.9394 c -1.7813,3.909612 -3.0892,-0.0025 17.0247,50.9228 35.8171,90.68365 45.496,114.98107 47.9385,120.3427 l 2.6286,5.77014 0,300.7557 c 0,258.84508 -0.2462,300.61638 -1.7675,299.75607 -0.9721,-0.54979 -28.6105,-24.55914 -61.4186,-53.3541 -32.80815,-28.79497 -60.53377,-52.41997 -61.61265,-52.5 -3.06362,-0.22726 -2.30412,-1.4882 -163.16587,270.89579 -54.74451,92.6978 -99.53538,169.0572 -99.53538,169.6876 0,0.6752 -20.02825,1.1461 -48.75,1.1461 -41.75263,0 -48.75,-0.2601 -48.75,-1.8125 0,-0.9969 -7.6555,-18.2937 -17.01213,-38.4375 -9.35675,-20.1438 -72.12612,-155.3125 -139.48762,-300.375 C 377.56747,721.6747 321.6081,601.66144 320.57472,600.04107 c -3.77137,-5.91368 -4.55087,-1.22377 -4.89762,29.46643 -0.18475,16.35134 -1.80413,141.90292 -3.59863,279.00355 -2.67087,204.04645 -2.96912,249.56305 -1.64387,250.86745 1.37887,1.3571 107.062,41.4398 121.619,46.1267 4.08925,1.3166 -154.44713,1.6324 -870.3125,1.7334 l -875.3125,0.1236 0,-347.5 z m 564.375,260.0213 c 17.1875,-10.8123 48.6875,-30.6247 70,-44.0276 21.3125,-13.403 56.1875,-35.3476 77.5,-48.7657 46.67549,-29.38656 95.89901,-60.35342 140.625,-88.46819 37.74319,-23.72539 94.11407,-59.18471 150.625,-94.74855 21.3125,-13.41254 40.57812,-25.48257 42.8125,-26.82231 4.46943,-2.67989 5.2648,-5.4077 1.875,-6.43055 -14.6369,-4.41661 -651.88651,-131.88124 -653.26897,-130.66886 -0.59482,0.52162 5.78708,24.76175 14.18199,53.86693 8.39492,29.10519 37.97619,132.15562 65.73618,229.00094 27.76,96.84529 51.10904,176.84909 51.88676,177.78619 1.81653,2.1888 0.24265,3.0465 38.02654,-20.7223 z m 510.25376,-316.32364 c 10.86043,-4.15379 23.96499,-9.17037 29.12124,-11.14797 5.15625,-1.9776 17.8125,-6.79419 28.125,-10.70353 36.24624,-13.74047 55.11914,-20.90936 67.5,-25.63995 6.875,-2.62686 22.34375,-8.49169 34.375,-13.03295 12.03125,-4.54126 26.09375,-9.88156 31.25,-11.86734 5.15625,-1.98576 19.21875,-7.33403 31.25,-11.88502 12.03125,-4.551 28.34375,-10.74963 36.25,-13.77473 14.532875,-5.56061 25.33775,-9.66608 59.375,-22.56067 10.3125,-3.90675 24.375,-9.25244 31.25,-11.87929 6.875,-2.62686 22.34375,-8.49169 34.375,-13.03295 12.03125,-4.54126 26.09375,-9.87962 31.25,-11.86302 5.15625,-1.9834 17.53125,-6.6984 27.5,-10.47777 9.96875,-3.77934 27.96875,-10.60371 40,-15.16523 12.03125,-4.56153 26.9375,-10.23225 33.125,-12.60162 6.1875,-2.36936 16.82875,-6.41903 23.64725,-8.99927 6.8185,-2.58024 12.6205,-5.363 12.89337,-6.1839 0.61488,-1.85005 20.2525,3.23711 -175.29062,-45.40945 -284.75101,-70.8394 -621.84219,-153.723 -625.19806,-153.723 -1.30575,0 -1.76323,0.78505 -1.35877,2.33171 0.63726,2.43684 225.27255,410.8776 227.47598,413.60579 0.69407,0.85938 1.72915,1.5625 2.30016,1.5625 0.57102,0 9.92402,-3.39855 20.78445,-7.55234 z M -704.66106,532.60701 c 132.79067,-88.96587 210.46466,-141.74055 210.46466,-142.99771 0,-2.42421 -305.26464,-313.4971 -307.6436,-313.4971 -0.92608,0 -1.97185,1.265625 -2.32395,2.8125 -0.6242,2.742312 -112.12871,580.69284 -113.82923,590 -0.67639,3.70205 -0.46501,4.6875 1.0055,4.6875 1.02408,0 96.57105,-63.45234 212.32662,-141.00519 z M 320.11322,586.4247 c 1.57363,-3.4108 122.519,-281.93489 170.2695,-392.11236 13.68825,-31.58369 24.70438,-58.30244 24.48038,-59.375 -0.25325,-1.21209 -1.57163,-1.86315 -3.4835,-1.7203 -2.47275,0.18475 -138.33713,25.11605 -285.576,52.40356 -13.0625,2.42085 -27.96875,5.17331 -33.125,6.1166 -5.15625,0.94329 -20.0625,3.69163 -33.125,6.10742 -13.0625,2.41579 -37.8125,6.96267 -55,10.10417 -32.06475,5.86071 -36.875,7.09871 -36.875,9.49036 0,2.32599 247.83325,372.42305 249.39087,372.42305 0.80175,0 2.1715,-1.54687 3.04375,-3.4375 z m 483.81538,619.4541 c 3.73488,-1.5706 185.09775,-90.6477 241.76,-118.7413 21.9368,-10.8764 40.0774,-19.7753 40.3125,-19.7753 0.2351,0 0.4275,31.5 0.4275,70 l 0,70 -142.8125,-0.085 c -101.07813,-0.06 -141.89925,-0.4686 -139.6875,-1.3987 z"
         id="path4155"
         inkscape:connector-curvature="0" />
      <path
         style="fill:#17ae90"
         d="m -1255.8348,1205.6462 c -3.8513,-1.8787 -53.9454,-99.8169 -55.7055,-108.909 -1.6977,-8.7696 -2.4672,-331.875 -0.7903,-331.875 0.6925,0 1.2592,-0.84375 1.2592,-1.875 0,-1.03125 0.3408,-1.875 0.7573,-1.875 0.4166,0 86.0631,-18.84375 190.3255,-41.875 104.2625,-23.03125 191.40815,-41.875 193.65694,-41.875 2.2488,0 4.30436,0.70313 4.56792,1.5625 1.04513,3.40776 1.81631,11.47559 0.96941,10.14161 -0.51032,-0.80382 -61.65235,110.88864 -140.78807,257.1875 -108.016,199.69009 -140.4103,258.60839 -142.1875,258.60839 -1.2658,0 -2.3015,0.5625 -2.3015,1.25 0,1.7879 -46.0266,1.3569 -49.7634,-0.466 z m 209.7634,0.5189 c 2.934,-0.89 2.8575,-0.9779 -1.25,-1.4379 -2.9902,-0.3349 36.5198,-10.4579 124.82524,-31.9819 71.06012,-17.3206 129.50382,-31.7955 129.87487,-32.1666 0.37107,-0.371 -7.30746,-28.5987 -17.0634,-62.7282 -9.75592,-34.1295 -17.5246,-62.2671 -17.26372,-62.528 0.26087,-0.2608 8.4965,27.5132 18.30139,61.7202 9.80488,34.207 18.40187,62.8976 19.1044,63.757 2.43157,2.9744 8.90368,1.7001 16.60665,-3.2695 8.02806,-5.1795 45.15296,-28.5346 59.55837,-37.4679 4.81139,-2.9837 8.99744,-5.1755 9.30233,-4.8706 0.30488,0.3049 -16.3319,11.1836 -36.97065,24.1749 -20.63875,12.9913 -37.02475,23.7873 -36.41334,23.9912 0.61141,0.2039 33.93944,14.1134 74.06226,30.91 47.89141,20.0488 71.66244,30.5789 69.2006,30.6547 -3.23399,0.1 -3.406,0.2632 -1.25,1.1897 1.4069,0.6046 -88.50076,1.0583 -205.625,1.0375 -114.46875,-0.02 -206.7187,-0.4632 -205,-0.9846 z m 746.80502,0.06 c 0.39908,-0.6458 -0.005,-1.3573 -0.89847,-1.5811 -1.27664,-0.32 2.4562,-41.4375 17.45,-192.2127 10.49071,-105.49306 18.85774,-192.02186 18.59337,-192.28622 -0.37599,-0.37599 -31.96312,19.0293 -47.88742,29.41923 -1.54687,1.00928 -2.80739,1.34848 -2.80114,0.75378 0.006,-0.5947 3.80313,-3.44558 8.4375,-6.3353 34.5295,-21.53053 41.31663,-26.00934 44.29318,-29.22896 2.0167,-2.1814 4.63922,-3.642 6.53922,-3.642 1.7447,0 9.51079,-2.47474 17.25796,-5.4994 7.74718,-3.02468 21.96078,-8.43243 31.58578,-12.01722 9.625,-3.58478 23.74839,-8.98506 31.38531,-12.00058 7.63691,-3.01517 14.23039,-5.48243 14.65214,-5.48243 0.42176,0 8.51713,-3.03789 17.9897,-6.75085 9.47256,-3.71297 25.09785,-9.68321 34.72285,-13.26721 9.625,-3.58399 23.6875,-8.92709 31.25,-11.87355 7.5625,-2.94646 21.625,-8.29021 31.25,-11.875 9.625,-3.58479 23.748375,-8.98506 31.38525,-12.00059 7.637,-3.01554 14.2305,-5.4828 14.65225,-5.4828 0.42175,0 8.798375,-3.13574 18.614625,-6.9683 36.896125,-14.40526 43.1085,-16.7817 43.870125,-16.7817 0.430125,0 8.532375,-3.03789 18.004875,-6.75085 9.472625,-3.71297 25.097875,-9.68321 34.722875,-13.26721 9.625,-3.58399 23.6875,-8.92709 31.25,-11.87355 7.5625,-2.94646 21.625,-8.29021 31.25,-11.875 9.625,-3.58479 23.74838,-8.98506 31.38525,-12.00059 7.637,-3.01554 14.2305,-5.4828 14.65225,-5.4828 0.42175,0 8.51712,-3.03789 17.98962,-6.75085 9.47263,-3.71297 25.09788,-9.68416 34.72288,-13.26932 33.38725,-12.43623 35.88162,-13.60257 41.21862,-19.27374 4.01663,-4.26817 7.90713,-12.00036 19.29038,-38.33877 7.8425,-18.14577 14.7685,-33.55482 15.39112,-34.24232 1.711,-1.8892 1.66225,-1.77189 -22.25662,53.48429 -2.44863,5.6565 -3.49863,9.32196 -2.50663,8.75 2.6975,-1.5553 680.60133,-482.171253 680.34403,-482.345865 -0.127,-0.08612 -108.2309,7.917345 -240.2309,17.785475 -132,9.86811 -242.8125,17.72465 -246.25,17.45896 -3.4375,-0.26569 -7.972,-0.96677 -10.07663,-1.55796 -6.83925,-1.92116 -474.109745,-271.04168 -471.403495,-271.50089 2.001125,-0.33958 2.152375,-0.65266 0.74525,-1.54336 -1.039625,-0.65811 137.492875,-1.12524 337.047375,-1.13651 205.38287,-0.0116 339.28012,0.43525 340,1.13468 0.65312,0.63459 2.69525,1.33772 4.538,1.5625 2.20837,0.26936 52.65525,39.50693 147.98712,115.104335 123.14263,97.65112 144.92398,114.462245 146.57098,113.124995 1.6593,-1.347188 1.792,-1.214963 0.9336,0.92935 -2.0782,5.191162 -2.0955,6.644237 -0.167,14.08661 1.533,5.91575 1.6905,8.85598 0.6979,13.02679 -1.0161,4.26948 -53.81573,633.8396 -53.76223,641.04874 0.0125,1.68411 7.02,1.41226 58.76133,-2.27957 52.4279,-3.74081 58.9505,-3.98838 60.6373,-2.30163 1.6426,1.64261 1.8475,9.58502 1.5652,60.66472 l -0.3247,58.77466 -61.875,-54.30819 c -34.03125,-29.86952 -62.538,-54.31472 -63.34825,-54.32267 -0.81025,-0.008 -2.31687,0.82929 -3.34813,1.86054 -2.03324,2.03319 -3.86887,2.55093 -2.77624,0.78301 0.85037,-1.37591 35.52625,7.88286 -321.15238,-85.75062 -169.125,-44.39785 -308.993,-81.55228 -310.81787,-82.56538 -3.65013,-2.02645 -7.30713,-2.42701 -7.30713,-0.80035 0,0.57293 -0.78863,1.04168 -1.75238,1.04168 -2.23825,0 -564.4407,213.32955 -564.40861,214.16666 0.0131,0.34375 125.41609,77.125 278.673115,170.625 275.225625,167.9113 278.670505,170.0614 280.386005,175 1.66312,4.7879 1.62524,5.007 -0.89313,5.166 -1.4465,0.091 -43.13,9.3219 -92.63,20.5125 -49.5,11.1906 -95.0625,20.8845 -101.25,21.5419 -15.1095,1.6052 -413.54052,2.5882 -412.56998,1.0179 z m 701.0006,-7.9491 c -9.11325,-3.4744 -16.35587,-6.5306 -16.09487,-6.7915 0.441,-0.441 34.533,11.8996 35.68512,12.9172 1.74163,1.5385 -5.09162,-0.5982 -19.59025,-6.1257 z M -702.29545,1093.9868 c 0.0142,-0.5498 3.24864,-3.0296 7.1875,-5.5107 62.07464,-39.1009 67.89608,-42.671 68.53556,-42.0315 0.30648,0.3064 -15.85277,10.9039 -35.90945,23.5499 -43.4242,27.3795 -39.84556,25.223 -39.81361,23.9923 z m 77.5,-48.75 c 0.0142,-0.5498 3.24864,-3.0296 7.1875,-5.5107 62.07464,-39.1009 67.89608,-42.67105 68.53556,-42.03155 0.30648,0.30648 -15.85277,10.90395 -35.90945,23.54995 -43.4242,27.3795 -39.84556,25.223 -39.81361,23.9923 z m -204.31166,-34.8389 c -0.45978,-1.8319 -0.59489,-3.5718 -0.30024,-3.8664 0.29464,-0.2947 0.91189,0.9631 1.37166,2.795 0.45978,1.8319 0.59489,3.5718 0.30024,3.8664 -0.29464,0.2947 -0.91189,-0.9631 -1.37166,-2.795 z m -2.5,-8.75 c -0.45978,-1.83187 -0.59489,-3.57176 -0.30024,-3.86641 0.29464,-0.29464 0.91189,0.96311 1.37166,2.79501 0.45978,1.8319 0.59489,3.5718 0.30024,3.8664 -0.29464,0.2947 -0.91189,-0.9631 -1.37166,-2.795 z m 284.28571,-5.44149 c 0,-0.70401 1.82812,-2.22535 4.0625,-3.38077 2.23437,-1.15543 5.46875,-3.08546 7.1875,-4.28898 2.82424,-1.97761 32.88566,-20.89033 55.1938,-34.7244 4.81139,-2.98371 8.99874,-5.17419 9.30521,-4.86771 0.30648,0.30647 -15.85277,10.90394 -35.90945,23.54994 -43.9494,27.71061 -39.83956,25.26455 -39.83956,23.71192 z m -286.78571,-3.3085 c -0.45978,-1.83188 -0.59489,-3.57177 -0.30024,-3.86642 0.29464,-0.29464 0.91189,0.96311 1.37166,2.795 0.45978,1.83189 0.59489,3.57177 0.30024,3.86642 -0.29464,0.29464 -0.91189,-0.96311 -1.37166,-2.795 z m -2.5,-8.75 c -0.45978,-1.83188 -0.59489,-3.57177 -0.30024,-3.86642 0.29464,-0.29464 0.91189,0.96311 1.37166,2.795 0.45978,1.83189 0.59489,3.57177 0.30024,3.86642 -0.29464,0.29464 -0.91189,-0.96311 -1.37166,-2.795 z m -2.5,-8.75 c -0.45978,-1.83188 -0.59489,-3.57177 -0.30024,-3.86642 0.29464,-0.29464 0.91189,0.96311 1.37166,2.795 0.45978,1.83189 0.59489,3.57177 0.30024,3.86642 -0.29464,0.29464 -0.91189,-0.96311 -1.37166,-2.795 z m -2.5,-8.75 c -0.45978,-1.83188 -0.59489,-3.57177 -0.30024,-3.86642 0.29464,-0.29464 0.91189,0.96311 1.37166,2.795 0.45978,1.83189 0.59489,3.57177 0.30024,3.86642 -0.29464,0.29464 -0.91189,-0.96311 -1.37166,-2.795 z m -2.5,-8.75 c -0.45978,-1.83188 -0.59489,-3.57177 -0.30024,-3.86642 0.29464,-0.29464 0.91189,0.96311 1.37166,2.795 0.45978,1.83189 0.59489,3.57177 0.30024,3.86642 -0.29464,0.29464 -0.91189,-0.96311 -1.37166,-2.795 z m -2.5,-8.75 c -0.45978,-1.83188 -0.59489,-3.57177 -0.30024,-3.86642 0.29464,-0.29464 0.91189,0.96311 1.37166,2.795 0.45978,1.83189 0.59489,3.57177 0.30024,3.86642 -0.29464,0.29464 -0.91189,-0.96311 -1.37166,-2.795 z m 376.81166,-1.4111 c 0.0143,-0.54978 3.24864,-3.0296 7.1875,-5.51068 62.07464,-39.1009 67.89607,-42.67108 68.53556,-42.03158 0.30648,0.30648 -15.85277,10.90394 -35.90945,23.54994 -43.4242,27.37952 -39.84556,25.22297 -39.81361,23.99232 z m -379.31166,-7.3389 c -0.45978,-1.83188 -0.59489,-3.57177 -0.30024,-3.86642 0.29464,-0.29464 0.91189,0.96311 1.37166,2.795 0.45978,1.83189 0.59489,3.57177 0.30024,3.86642 -0.29464,0.29464 -0.91189,-0.96311 -1.37166,-2.795 z m -2.5,-8.75 c -0.45978,-1.83188 -0.59489,-3.57177 -0.30024,-3.86642 0.29464,-0.29464 0.91189,0.96311 1.37166,2.795 0.45978,1.83189 0.59489,3.57177 0.30024,3.86642 -0.29464,0.29464 -0.91189,-0.96311 -1.37166,-2.795 z m -2.5,-8.75 c -0.45978,-1.83188 -0.59489,-3.57177 -0.30024,-3.86642 0.29464,-0.29464 0.91189,0.96311 1.37166,2.795 0.45978,1.83189 0.59489,3.57177 0.30024,3.86642 -0.29464,0.29464 -0.91189,-0.96311 -1.37166,-2.795 z m -2.5,-8.75 c -0.45978,-1.83188 -0.59489,-3.57177 -0.30024,-3.86642 0.29464,-0.29464 0.91189,0.96311 1.37166,2.795 0.45978,1.83189 0.59489,3.57177 0.30024,3.86642 -0.29464,0.29464 -0.91189,-0.96311 -1.37166,-2.795 z m -2.5,-8.75 c -0.45978,-1.83188 -0.59489,-3.57177 -0.30024,-3.86642 0.29464,-0.29464 0.91189,0.96311 1.37166,2.795 0.45978,1.83189 0.59489,3.57177 0.30024,3.86642 -0.29464,0.29464 -0.91189,-0.96311 -1.37166,-2.795 z m -2.5,-8.75 c -0.45978,-1.83188 -0.59489,-3.57177 -0.30024,-3.86642 0.29464,-0.29464 0.91189,0.96311 1.37166,2.795 0.45978,1.83189 0.59489,3.57177 0.30024,3.86642 -0.29464,0.29464 -0.91189,-0.96311 -1.37166,-2.795 z m 469.31166,2.3389 c 0.0143,-0.54978 3.24864,-3.0296 7.1875,-5.51068 62.07464,-39.1009 67.89607,-42.67108 68.53556,-42.03158 0.30648,0.30648 -15.85277,10.90394 -35.90945,23.54994 -43.4242,27.37952 -39.84556,25.22297 -39.81361,23.99232 z m -471.81166,-11.0889 c -0.45978,-1.83188 -0.59489,-3.57177 -0.30024,-3.86642 0.29464,-0.29464 0.91189,0.96311 1.37166,2.795 0.45978,1.83189 0.59489,3.57177 0.30024,3.86642 -0.29464,0.29464 -0.91189,-0.96311 -1.37166,-2.795 z m -2.5,-8.75 c -0.45978,-1.83188 -0.59489,-3.57177 -0.30024,-3.86642 0.29464,-0.29464 0.91189,0.96311 1.37166,2.795 0.45978,1.83189 0.59489,3.57177 0.30024,3.86642 -0.29464,0.29464 -0.91189,-0.96311 -1.37166,-2.795 z m -3.1156,-11.05655 c -0.0543,-1.3177 0.24116,-2.05598 0.65652,-1.64062 0.41536,0.41536 0.45976,1.4935 0.0986,2.39584 -0.39903,0.99716 -0.69523,0.70097 -0.7552,-0.75522 z m -2.5,-8.75 c -0.0543,-1.3177 0.24116,-2.05598 0.65652,-1.64062 0.41536,0.41536 0.45976,1.4935 0.0986,2.39584 -0.39903,0.99716 -0.69523,0.70097 -0.7552,-0.75522 z m -2.5,-8.75 c -0.0543,-1.3177 0.24116,-2.05598 0.65652,-1.64062 0.41536,0.41536 0.45976,1.4935 0.0986,2.39584 -0.39903,0.99716 -0.69523,0.70097 -0.7552,-0.75522 z m -2.5,-8.75 c -0.0543,-1.3177 0.24116,-2.05598 0.65652,-1.64062 0.41536,0.41536 0.45976,1.4935 0.0986,2.39584 -0.39903,0.99716 -0.69523,0.70097 -0.7552,-0.75522 z m -2.5,-8.75 c -0.0543,-1.3177 0.24116,-2.05598 0.65652,-1.64062 0.41536,0.41536 0.45976,1.4935 0.0986,2.39584 -0.39903,0.99716 -0.69523,0.70097 -0.7552,-0.75522 z m -2.5,-8.75 c -0.0543,-1.3177 0.24116,-2.05598 0.65652,-1.64062 0.41536,0.41536 0.45976,1.4935 0.0986,2.39584 -0.39903,0.99716 -0.69523,0.70097 -0.7552,-0.75522 z m -2.5,-8.75 c -0.0543,-1.3177 0.24116,-2.05598 0.65652,-1.64062 0.41536,0.41536 0.45976,1.4935 0.0986,2.39584 -0.39903,0.99716 -0.69523,0.70097 -0.7552,-0.75522 z m -2.5,-8.75 c -0.0543,-1.3177 0.24116,-2.05598 0.65652,-1.64062 0.41536,0.41536 0.45976,1.4935 0.0986,2.39584 -0.39903,0.99716 -0.69523,0.70097 -0.7552,-0.75522 z m -2.5,-8.75 c -0.0543,-1.3177 0.24116,-2.05598 0.65652,-1.64062 0.41536,0.41536 0.45976,1.4935 0.0986,2.39584 -0.39903,0.99716 -0.69523,0.70097 -0.7552,-0.75522 z m -2.5,-8.75 c -0.0543,-1.3177 0.24116,-2.05598 0.65652,-1.64062 0.41536,0.41536 0.45976,1.4935 0.0986,2.39584 -0.39903,0.99716 -0.69523,0.70097 -0.7552,-0.75522 z m -2.5,-8.75 c -0.0543,-1.3177 0.24116,-2.05598 0.65652,-1.64062 0.41536,0.41536 0.45976,1.4935 0.0986,2.39584 -0.39903,0.99716 -0.69523,0.70097 -0.7552,-0.75522 z m -2.5,-8.75 c -0.0543,-1.3177 0.24116,-2.05598 0.65652,-1.64062 0.41536,0.41536 0.45976,1.4935 0.0986,2.39584 -0.39903,0.99716 -0.69523,0.70097 -0.7552,-0.75522 z m 1848.70856,-0.83622 c 0.76737,-1.43388 1.64425,-2.35814 1.9485,-2.0539 0.87487,0.87486 -0.89875,4.66096 -2.1835,4.66096 -0.6385,0 -0.53288,-1.17226 0.235,-2.60706 z m -1851.20856,-7.91378 c -0.0543,-1.3177 0.24116,-2.05598 0.65652,-1.64062 0.41536,0.41536 0.45977,1.4935 0.0986,2.39584 -0.39903,0.99716 -0.69523,0.70097 -0.7552,-0.75522 z m 387.73985,-5.23437 c 0.41536,-0.41536 1.4935,-0.45976 2.39583,-0.0986 0.99717,0.39903 0.70098,0.69523 -0.75521,0.7552 -1.3177,0.0543 -2.05598,-0.24116 -1.64062,-0.65652 z m -6.25,-1.25 c 0.41536,-0.41536 1.4935,-0.45976 2.39583,-0.0986 0.99717,0.39903 0.70098,0.69523 -0.75521,0.7552 -1.3177,0.0543 -2.05598,-0.24116 -1.64062,-0.65652 z m -383.98985,-2.26563 c -0.0543,-1.3177 0.24116,-2.05598 0.65652,-1.64062 0.41536,0.41536 0.45977,1.4935 0.0986,2.39584 -0.39903,0.99716 -0.69523,0.70097 -0.7552,-0.75522 z m 377.73985,1.01563 c 0.41536,-0.41536 1.4935,-0.45976 2.39583,-0.0986 0.99717,0.39903 0.70098,0.69523 -0.75521,0.7552 -1.3177,0.0543 -2.05598,-0.24116 -1.64062,-0.65652 z m -6.25,-1.25 c 0.41536,-0.41536 1.4935,-0.45976 2.39583,-0.0986 0.99717,0.39903 0.70098,0.69523 -0.75521,0.7552 -1.3177,0.0543 -2.05598,-0.24116 -1.64062,-0.65652 z m -6.25,-1.25 c 0.41536,-0.41536 1.4935,-0.45976 2.39583,-0.0986 0.99717,0.39903 0.70098,0.69523 -0.75521,0.7552 -1.3177,0.0543 -2.05598,-0.24116 -1.64062,-0.65652 z m -6.25,-1.25 c 0.41536,-0.41536 1.4935,-0.45976 2.39583,-0.0986 0.99717,0.39903 0.70098,0.69523 -0.75521,0.7552 -1.3177,0.0543 -2.05598,-0.24116 -1.64062,-0.65652 z m -6.25,-1.25 c 0.41536,-0.41536 1.4935,-0.45976 2.39583,-0.0986 0.99717,0.39903 0.70098,0.69523 -0.75521,0.7552 -1.3177,0.0543 -2.05598,-0.24116 -1.64062,-0.65652 z m -6.25,-1.25 c 0.41536,-0.41536 1.4935,-0.45976 2.39583,-0.0986 0.99717,0.39903 0.70098,0.69523 -0.75521,0.7552 -1.3177,0.0543 -2.05598,-0.24116 -1.64062,-0.65652 z m -5.65104,-1.32264 c 0.85937,-0.34676 2.26562,-0.34676 3.125,0 0.85937,0.34676 0.15625,0.63049 -1.5625,0.63049 -1.71875,0 -2.42188,-0.28373 -1.5625,-0.63049 z m -343.33881,-2.19299 c -0.0543,-1.3177 0.24116,-2.05598 0.65652,-1.64062 0.41536,0.41536 0.45977,1.4935 0.0986,2.39584 -0.39903,0.99716 -0.69523,0.70097 -0.7552,-0.75522 z m 337.08881,0.94299 c 0.85937,-0.34676 2.26562,-0.34676 3.125,0 0.85937,0.34676 0.15625,0.63049 -1.5625,0.63049 -1.71875,0 -2.42188,-0.28373 -1.5625,-0.63049 z m -6.25,-1.25 c 0.85937,-0.34676 2.26562,-0.34676 3.125,0 0.85937,0.34676 0.15625,0.63049 -1.5625,0.63049 -1.71875,0 -2.42188,-0.28373 -1.5625,-0.63049 z m -6.25,-1.25 c 0.85937,-0.34676 2.26562,-0.34676 3.125,0 0.85937,0.34676 0.15625,0.63049 -1.5625,0.63049 -1.71875,0 -2.42188,-0.28373 -1.5625,-0.63049 z m -6.25,-1.25 c 0.85937,-0.34676 2.26562,-0.34676 3.125,0 0.85937,0.34676 0.15625,0.63049 -1.5625,0.63049 -1.71875,0 -2.42188,-0.28373 -1.5625,-0.63049 z m -6.25,-1.25 c 0.85937,-0.34676 2.26562,-0.34676 3.125,0 0.85937,0.34676 0.15625,0.63049 -1.5625,0.63049 -1.71875,0 -2.42188,-0.28373 -1.5625,-0.63049 z m -55.9375,-10.5154 c -27.15625,-5.41286 -96.90625,-19.16026 -155,-30.54979 -58.09375,-11.38952 -107.875,-21.31557 -110.625,-22.05787 -4.61199,-1.24492 -4.77779,-1.43333 -2.1365,-2.42795 2.07556,-0.7816 46.44604,7.86625 161.25,31.42775 87.11258,17.87833 158.949,32.73053 159.6365,33.0049 4.3891,1.75157 -9.6618,-0.73383 -53.125,-9.39704 z m -258.65131,5.82241 c -0.0543,-1.3177 0.24116,-2.05599 0.65652,-1.64062 0.41536,0.41536 0.45976,1.4935 0.0986,2.39583 -0.39903,0.99717 -0.69523,0.70098 -0.7552,-0.75521 z m -2.5,-8.75 c -0.0543,-1.3177 0.24116,-2.05599 0.65652,-1.64062 0.41536,0.41536 0.45976,1.4935 0.0986,2.39583 -0.39903,0.99717 -0.69523,0.70098 -0.7552,-0.75521 z m -2.5,-8.75 c -0.0543,-1.3177 0.24116,-2.05599 0.65652,-1.64062 0.41536,0.41536 0.45976,1.4935 0.0986,2.39583 -0.39903,0.99717 -0.69523,0.70098 -0.7552,-0.75521 z m -2.5,-8.75 c -0.0543,-1.3177 0.24116,-2.05599 0.65652,-1.64062 0.41536,0.41536 0.45976,1.4935 0.0986,2.39583 -0.39903,0.99717 -0.69523,0.70098 -0.7552,-0.75521 z m -2.5,-8.75 c -0.0543,-1.3177 0.24116,-2.05599 0.65652,-1.64062 0.41536,0.41536 0.45976,1.4935 0.0986,2.39583 -0.39903,0.99717 -0.69523,0.70098 -0.7552,-0.75521 z m -2.5,-8.75 c -0.0543,-1.3177 0.24116,-2.05599 0.65652,-1.64062 0.41536,0.41536 0.45976,1.4935 0.0986,2.39583 -0.39903,0.99717 -0.69523,0.70098 -0.7552,-0.75521 z M 313.1846,651.7372 c 0,-11 0.19275,-15.33266 0.425,-9.62815 0.23212,5.70452 0.23075,14.70452 0,20 -0.23375,5.29549 -0.42375,0.62815 -0.42213,-10.37185 z M -934.72271,620.59136 c -0.0543,-1.3177 0.24116,-2.05598 0.65652,-1.64062 0.41536,0.41536 0.45977,1.4935 0.0986,2.39584 -0.39903,0.99716 -0.69523,0.70097 -0.7552,-0.75522 z m -8.1344,-25.19345 c -0.45978,-1.83188 -0.59489,-3.57177 -0.30024,-3.86642 0.29464,-0.29464 0.91189,0.96311 1.37166,2.795 0.45978,1.83189 0.59489,3.57177 0.30024,3.86642 -0.29464,0.29464 -0.91189,-0.96311 -1.37166,-2.795 z M 283.9286,582.17512 c -13.40625,-3.46891 -54.9265,-13.97458 -92.26712,-23.34596 -37.34075,-9.37136 -67.41576,-17.19766 -66.8335,-17.39176 1.47237,-0.49076 183.90025,44.42681 186.4265,45.9021 4.27787,2.49827 -3.10363,1.10321 -27.32588,-5.16438 z M -950.35711,571.64791 c -0.45978,-1.83189 -0.59489,-3.57177 -0.30024,-3.86642 0.29464,-0.29464 0.91189,0.96311 1.37166,2.795 0.45978,1.83188 0.59489,3.57177 0.30024,3.86642 -0.29464,0.29464 -0.91189,-0.96311 -1.37166,-2.795 z m -8.75,-27.5 c -0.45978,-1.83189 -0.59489,-3.57177 -0.30024,-3.86642 0.29464,-0.29464 0.91189,0.96311 1.37166,2.795 0.45978,1.83188 0.59489,3.57177 0.30024,3.86642 -0.29464,0.29464 -0.91189,-0.96311 -1.37166,-2.795 z M 119.2671,540.35699 c 0.41538,-0.41537 1.4935,-0.45977 2.39587,-0.0986 0.99713,0.39903 0.701,0.69523 -0.75525,0.7552 -1.31762,0.0543 -2.056,-0.24116 -1.64062,-0.65652 z m -5,-1.25 c 0.41538,-0.41537 1.4935,-0.45977 2.39587,-0.0986 0.99713,0.39903 0.701,0.69523 -0.75525,0.7552 -1.31762,0.0543 -2.056,-0.24116 -1.64062,-0.65652 z m -5,-1.25 c 0.41538,-0.41537 1.4935,-0.45977 2.39587,-0.0986 0.99713,0.39903 0.701,0.69523 -0.75525,0.7552 -1.31762,0.0543 -2.056,-0.24116 -1.64062,-0.65652 z m -5,-1.25 c 0.41538,-0.41537 1.4935,-0.45977 2.39587,-0.0986 0.99713,0.39903 0.701,0.69523 -0.75525,0.7552 -1.31762,0.0543 -2.056,-0.24116 -1.64062,-0.65652 z m -5,-1.25 c 0.415375,-0.41537 1.4935,-0.45977 2.39587,-0.0986 0.99713,0.39903 0.701,0.69523 -0.75525,0.7552 -1.31762,0.0543 -2.055995,-0.24116 -1.64062,-0.65652 z m -5,-1.25 c 0.415375,-0.41537 1.4935,-0.45977 2.395875,-0.0986 0.997125,0.39903 0.701,0.69523 -0.75525,0.7552 -1.317625,0.0543 -2.056,-0.24116 -1.640625,-0.65652 z m -5,-1.25 c 0.415375,-0.41537 1.4935,-0.45977 2.395875,-0.0986 0.997125,0.39903 0.701,0.69523 -0.75525,0.7552 -1.317625,0.0543 -2.056,-0.24116 -1.640625,-0.65652 z m -5,-1.25 c 0.415375,-0.41537 1.4935,-0.45977 2.395875,-0.0986 0.997125,0.39903 0.701,0.69523 -0.75525,0.7552 -1.317625,0.0543 -2.056,-0.24116 -1.640625,-0.65652 z m -5,-1.25 c 0.415375,-0.41537 1.4935,-0.45977 2.395875,-0.0986 0.997125,0.39903 0.701,0.69523 -0.75525,0.7552 -1.317625,0.0543 -2.056,-0.24116 -1.640625,-0.65652 z M 67.6786,527.9872 c -3.09375,-0.89626 -4.78125,-1.67394 -3.75,-1.72817 1.03125,-0.0543 4.6875,0.684 8.125,1.64051 3.4375,0.95651 5.125,1.73419 3.75,1.72817 -1.375,-0.006 -5.03125,-0.74425 -8.125,-1.64051 z m -14.6615,-3.88021 c 0.415375,-0.41536 1.4935,-0.45976 2.395875,-0.0986 0.997125,0.39903 0.701,0.69523 -0.75525,0.7552 -1.317625,0.0543 -2.056,-0.24116 -1.640625,-0.65652 z m -1020.22486,-5.60843 c -0.8453,-2.82136 -1.3068,-5.35986 -1.02555,-5.64111 0.28125,-0.28125 1.20297,1.79703 2.04827,4.61839 0.8453,2.82136 1.3068,5.35986 1.02555,5.64111 -0.28125,0.28125 -1.20297,-1.79703 -2.04827,-4.61839 z M 48.0171,522.85699 c 0.415375,-0.41536 1.4935,-0.45976 2.395875,-0.0986 0.997125,0.39903 0.701,0.69523 -0.75525,0.7552 -1.317625,0.0543 -2.056,-0.24116 -1.640625,-0.65652 z m -5,-1.25 c 0.415375,-0.41536 1.4935,-0.45976 2.395875,-0.0986 0.997125,0.39903 0.701,0.69523 -0.75525,0.7552 -1.317625,0.0543 -2.056,-0.24116 -1.640625,-0.65652 z m -5,-1.25 c 0.415375,-0.41536 1.4935,-0.45976 2.395875,-0.0986 0.997125,0.39903 0.701,0.69523 -0.75525,0.7552 -1.317625,0.0543 -2.056,-0.24116 -1.640625,-0.65652 z m -5,-1.25 c 0.415375,-0.41536 1.4935,-0.45976 2.395875,-0.0986 0.997125,0.39903 0.701,0.69523 -0.75525,0.7552 -1.317625,0.0543 -2.056,-0.24116 -1.640625,-0.65652 z m -5,-1.25 c 0.415375,-0.41536 1.4935,-0.45976 2.395875,-0.0986 0.997125,0.39903 0.701,0.69523 -0.75525,0.7552 -1.317625,0.0543 -2.056,-0.24116 -1.640625,-0.65652 z m -5,-1.25 c 0.415375,-0.41536 1.4935,-0.45976 2.395875,-0.0986 0.997125,0.39903 0.701,0.69523 -0.75525,0.7552 -1.317625,0.0543 -2.056,-0.24116 -1.640625,-0.65652 z m -5,-1.25 c 0.415375,-0.41536 1.4935,-0.45976 2.395875,-0.0986 0.997125,0.39903 0.701,0.69523 -0.75525,0.7552 -1.317625,0.0543 -2.056,-0.24116 -1.640625,-0.65652 z m 336.67237,-1.55602 c 0.98801,-3.94103 6.55113,-16.43877 7.31738,-16.43877 0.766,0 -0.66088,3.70865 -4.80925,12.5 -1.78425,3.78125 -2.91288,5.5537 -2.50813,3.93877 z M 13.0171,514.10699 c 0.415375,-0.41536 1.4935,-0.45976 2.395875,-0.0986 0.997125,0.39903 0.701,0.69523 -0.75525,0.7552 -1.317625,0.0543 -2.056,-0.24116 -1.640625,-0.65652 z m -5,-1.25 c 0.415375,-0.41536 1.4935,-0.45976 2.395875,-0.0986 0.997125,0.39903 0.701,0.69523 -0.75525,0.7552 -1.317625,0.0543 -2.056,-0.24116 -1.640625,-0.65652 z m -5,-1.25 c 0.415375,-0.41536 1.4935,-0.45976 2.395875,-0.0986 0.997125,0.39903 0.701,0.69523 -0.75525,0.7552 -1.317625,0.0543 -2.056,-0.24116 -1.640625,-0.65652 z m -5,-1.25 c 0.415375,-0.41536 1.4935,-0.45976 2.395875,-0.0986 0.997125,0.39903 0.701,0.69523 -0.75525,0.7552 -1.317625,0.0543 -2.056,-0.24116 -1.640625,-0.65652 z m -972.12421,-13.70908 c -0.45978,-1.83189 -0.59489,-3.57177 -0.30024,-3.86642 0.29464,-0.29464 0.91189,0.96311 1.37166,2.795 0.45978,1.83188 0.59489,3.57177 0.30024,3.86642 -0.29464,0.29464 -0.91189,-0.96311 -1.37166,-2.795 z M 362.7506,495.71892 c -0.1075,-1.52558 5.19512,-13.50626 5.738,-12.96338 0.25812,0.25817 -0.911,3.50966 -2.59825,7.22554 -1.68725,3.71586 -3.10013,6.29789 -3.13975,5.73785 z m 7.46625,-17.73172 c 0,-0.6875 0.54525,-2.09375 1.21175,-3.125 0.6665,-1.03125 1.21175,-1.3125 1.21175,-0.625 0,0.6875 -0.54525,2.09375 -1.21175,3.125 -0.6665,1.03125 -1.21175,1.3125 -1.21175,0.625 z m -1353.03825,-8.875 c -1.20835,-3.83333 -1.972,-7.19468 -1.697,-7.46968 0.275,-0.275 1.48865,2.63636 2.697,6.46968 1.20835,3.83333 1.972,7.19468 1.697,7.46967 -0.275,0.27501 -1.48865,-2.63635 -2.697,-6.46967 z m 1358,-3.38609 c 0,-0.89985 0.836,-2.72797 1.85787,-4.0625 1.69963,-2.21989 1.74238,-2.08062 0.50263,1.63609 -1.41488,4.24186 -2.3605,5.21385 -2.3605,2.42641 z m 3.78825,-7.73891 c 0,-0.6875 0.54525,-2.09375 1.21175,-3.125 0.6665,-1.03125 1.21175,-1.3125 1.21175,-0.625 0,0.6875 -0.54525,2.09375 -1.21175,3.125 -0.6665,1.03125 -1.21175,1.3125 -1.21175,0.625 z M -990.3214,445.3622 c -1.20835,-3.83333 -1.972,-7.19468 -1.697,-7.46968 0.275,-0.275 1.48865,2.63636 2.697,6.46968 1.20835,3.83333 1.972,7.19468 1.697,7.46967 -0.275,0.27501 -1.48865,-2.63635 -2.697,-6.46967 z m 1373.03825,3.875 c 0,-0.6875 0.54525,-2.09375 1.21175,-3.125 0.6665,-1.03125 1.21175,-1.3125 1.21175,-0.625 0,0.6875 -0.54525,2.09375 -1.21175,3.125 -0.6665,1.03125 -1.21175,1.3125 -1.21175,0.625 z m 3.75,-8.75 c 0,-0.6875 0.54525,-2.09375 1.21175,-3.125 0.6665,-1.03125 1.21175,-1.3125 1.21175,-0.625 0,0.6875 -0.54525,2.09375 -1.21175,3.125 -0.6665,1.03125 -1.21175,1.3125 -1.21175,0.625 z M -998.43983,419.73063 c -1.56317,-4.8535 -2.62007,-9.04658 -2.34867,-9.31797 0.2713,-0.27137 1.77235,3.47763 3.33552,8.33112 1.56317,4.8535 2.62009,9.04657 2.34872,9.31796 -0.27139,0.27137 -1.77239,-3.47763 -3.33557,-8.33111 z m 1393.65668,0.75657 c 0,-0.6875 0.54525,-2.09375 1.21175,-3.125 0.6665,-1.03125 1.21175,-1.3125 1.21175,-0.625 0,0.6875 -0.54525,2.09375 -1.21175,3.125 -0.6665,1.03125 -1.21175,1.3125 -1.21175,0.625 z m 3.75,-8.75 c 0,-0.6875 0.54525,-2.09375 1.21175,-3.125 0.6665,-1.03125 1.21175,-1.3125 1.21175,-0.625 0,0.6875 -0.54525,2.09375 -1.21175,3.125 -0.6665,1.03125 -1.21175,1.3125 -1.21175,0.625 z M -1006.5605,394.10132 c -1.9141,-5.87755 -3.2601,-10.90657 -2.9911,-11.17559 0.269,-0.26902 2.0552,4.31978 3.9693,10.19734 1.9141,5.87756 3.2601,10.90658 2.9911,11.1756 -0.269,0.26902 -2.0552,-4.31978 -3.9693,-10.19735 z m 1409.27735,8.88588 c 0,-0.6875 0.54525,-2.09375 1.21175,-3.125 0.6665,-1.03125 1.21175,-1.3125 1.21175,-0.625 0,0.6875 -0.54525,2.09375 -1.21175,3.125 -0.6665,1.03125 -1.21175,1.3125 -1.21175,0.625 z m -894.59421,-11.27085 c -0.40014,-1.04271 -0.4699,-3.24345 -0.15504,-4.89053 0.31485,-1.64706 62.89723,-120.60568 139.07192,-264.35248 119.95902,-226.37074 139.00306,-261.60904 142.26132,-263.23448 3.15137,-1.57211 11.6419,-1.87666 52.31981,-1.87666 31.53864,0 48.55795,0.43812 48.55795,1.25 0,0.6875 0.99942,1.25 2.22094,1.25 1.70333,0 22.518947,40.856589 89.318185,175.3125 71.4465,143.81025 87.612875,175.45857 89.9665,176.1254 2.775,0.78615 2.780875,0.817 0.180375,0.9375 -1.629125,0.0755 -3.634875,1.72589 -5.08875,4.1871 -2.38575,4.03907 -3.967125,4.56165 -274.25114,90.625 -277.31441,88.30196 -282.42344,89.82292 -284.40207,84.66665 z M -1313.5714,229.77291 c 0,-140.00751 0.2505,-162.839823 1.8039,-164.393148 1.5718,-1.571825 18.4153,10.997675 130.9375,97.712398 71.0235,54.73395 130.1481,100.72649 131.3882,102.20565 1.24,1.47917 2.9764,3.57313 3.8587,4.65324 1.7036,2.08546 27.4598,82.37966 26.6765,83.16298 -0.2534,0.25348 -6.2928,-17.81198 -13.4208,-40.14548 -11.4943,-36.01429 -13.2516,-40.60589 -15.5394,-40.60227 -1.4188,0.002 -61.5982,27.00223 -133.7321,60 -72.1339,32.99776 -131.337,59.99592 -131.5625,59.99592 -0.2255,0 -0.41,-73.16518 -0.41,-162.58929 z m 298.8816,138.70771 c -1.5632,-4.8535 -2.6201,-9.04657 -2.3487,-9.31796 0.2713,-0.27137 1.7723,3.47763 3.3355,8.33111 1.5632,4.8535 2.6201,9.04658 2.3487,9.31797 -0.2714,0.27137 -1.7724,-3.47763 -3.3355,-8.33112 z M 418.96685,365.4872 c 0,-0.6875 0.54525,-2.09375 1.21175,-3.125 0.6665,-1.03125 1.21175,-1.3125 1.21175,-0.625 0,0.6875 -0.54525,2.09375 -1.21175,3.125 -0.6665,1.03125 -1.21175,1.3125 -1.21175,0.625 z M 1051.6229,194.68118 c -17.4245,-43.9995 -31.3597,-80.32033 -30.967,-80.71294 0.3926,-0.39263 1.0732,0.35102 1.5123,1.65255 1.5114,4.47882 18.2299,47.37567 21.14,54.24141 7.6543,18.05872 40.656,103.00711 40.3468,103.85485 -0.1933,0.52976 -14.6078,-35.03637 -32.0321,-79.03587 z M 76.7671,210.35699 c 0.415375,-0.41536 1.4935,-0.45976 2.395875,-0.0986 0.997125,0.39903 0.701,0.69523 -0.75525,0.7552 -1.317625,0.0542 -2.056,-0.24116 -1.640625,-0.65652 z m 6.849,-1.32264 c 0.859375,-0.34676 2.265625,-0.34676 3.125,0 0.859375,0.34676 0.15625,0.63049 -1.5625,0.63049 -1.71875,0 -2.421875,-0.28373 -1.5625,-0.63049 z m 6.25,-1.25 c 0.859375,-0.34676 2.265625,-0.34676 3.125,0 0.859375,0.34676 0.15625,0.63049 -1.5625,0.63049 -1.71875,0 -2.421875,-0.28373 -1.5625,-0.63049 z m 7.5,-1.25 c 0.859375,-0.34676 2.265625,-0.34676 3.125,0 0.85938,0.34676 0.15625,0.63049 -1.5625,0.63049 -1.71875,0 -2.421875,-0.28373 -1.5625,-0.63049 z m 6.25,-1.25 c 0.85938,-0.34676 2.26563,-0.34676 3.125,0 0.85938,0.34676 0.15625,0.63049 -1.5625,0.63049 -1.71875,0 -2.42187,-0.28373 -1.5625,-0.63049 z m 6.901,-1.17736 c 0.41538,-0.41536 1.4935,-0.45976 2.39588,-0.0986 0.99712,0.39903 0.701,0.69523 -0.75525,0.7552 -1.31763,0.0542 -2.056,-0.24116 -1.64063,-0.65652 z m 6.849,-1.32264 c 0.85938,-0.34676 2.26563,-0.34676 3.125,0 0.85938,0.34676 0.15625,0.63049 -1.5625,0.63049 -1.71875,0 -2.42187,-0.28373 -1.5625,-0.63049 z m 6.901,-1.17736 c 0.41538,-0.41536 1.4935,-0.45976 2.39588,-0.0986 0.99712,0.39903 0.701,0.69523 -0.75525,0.7552 -1.31763,0.0542 -2.056,-0.24116 -1.64063,-0.65652 z m 6.849,-1.32264 c 0.85938,-0.34676 2.26563,-0.34676 3.125,0 0.85938,0.34676 0.15625,0.63049 -1.5625,0.63049 -1.71875,0 -2.42187,-0.28373 -1.5625,-0.63049 z m 6.901,-1.17736 c 0.41538,-0.41536 1.4935,-0.45976 2.39588,-0.0986 0.99712,0.39903 0.701,0.69523 -0.75525,0.7552 -1.31763,0.0542 -2.056,-0.24116 -1.64063,-0.65652 z m 6.849,-1.32264 c 0.85938,-0.34676 2.26563,-0.34676 3.125,0 0.85938,0.34676 0.15625,0.63049 -1.5625,0.63049 -1.71875,0 -2.42187,-0.28373 -1.5625,-0.63049 z m 6.25,-1.25 c 0.85938,-0.34676 2.26563,-0.34676 3.125,0 0.85938,0.34676 0.15625,0.63049 -1.5625,0.63049 -1.71875,0 -2.42187,-0.28373 -1.5625,-0.63049 z m 6.901,-1.17736 c 0.41538,-0.41536 1.4935,-0.45976 2.39588,-0.0986 0.99712,0.39903 0.701,0.69523 -0.75525,0.7552 -1.31763,0.0542 -2.056,-0.24116 -1.64063,-0.65652 z m 6.849,-1.32264 c 0.85938,-0.34676 2.26563,-0.34676 3.125,0 0.85938,0.34676 0.15625,0.63049 -1.5625,0.63049 -1.71875,0 -2.42187,-0.28373 -1.5625,-0.63049 z m 6.901,-1.17736 c 0.41538,-0.41536 1.4935,-0.45976 2.39588,-0.0986 0.99712,0.39903 0.701,0.69523 -0.75525,0.7552 -1.31763,0.0542 -2.056,-0.24116 -1.64063,-0.65652 z m 6.25,-1.25 c 0.41538,-0.41536 1.4935,-0.45976 2.39588,-0.0986 0.99712,0.39903 0.701,0.69523 -0.75525,0.7552 -1.31763,0.0542 -2.056,-0.24116 -1.64063,-0.65652 z m 7.5,-1.25 c 0.41538,-0.41536 1.4935,-0.45976 2.39588,-0.0986 0.99712,0.39903 0.701,0.69523 -0.75525,0.7552 -1.31763,0.0542 -2.056,-0.24116 -1.64063,-0.65652 z m 6.25,-1.25 c 0.41538,-0.41536 1.4935,-0.45976 2.39588,-0.0986 0.99712,0.39903 0.701,0.69523 -0.75525,0.7552 -1.31763,0.0542 -2.056,-0.24116 -1.64063,-0.65652 z m 6.849,-1.32264 c 0.85938,-0.34676 2.26563,-0.34676 3.125,0 0.85938,0.34676 0.15625,0.63049 -1.5625,0.63049 -1.71875,0 -2.42187,-0.28373 -1.5625,-0.63049 z m 6.901,-1.17736 c 0.41538,-0.41536 1.4935,-0.45976 2.39588,-0.0986 0.99712,0.39903 0.701,0.69523 -0.75525,0.7552 -1.31763,0.0542 -2.056,-0.24116 -1.64063,-0.65652 z m 6.849,-1.32264 c 0.85938,-0.34676 2.26563,-0.34676 3.125,0 0.85938,0.34676 0.15625,0.63049 -1.5625,0.63049 -1.71875,0 -2.42187,-0.28373 -1.5625,-0.63049 z m 6.901,-1.17736 c 0.41538,-0.41536 1.4935,-0.45976 2.39588,-0.0986 0.99712,0.39903 0.701,0.69523 -0.75525,0.7552 -1.31763,0.0542 -2.056,-0.24116 -1.64063,-0.65652 z m 6.25,-1.25 c 0.41538,-0.41536 1.4935,-0.45976 2.39588,-0.0986 0.99712,0.39903 0.701,0.69523 -0.75525,0.7552 -1.31763,0.0542 -2.056,-0.24116 -1.64063,-0.65652 z m 7.5,-1.25 c 0.41538,-0.41536 1.4935,-0.45976 2.39588,-0.0986 0.99712,0.39903 0.701,0.69523 -0.75525,0.7552 -1.31763,0.0542 -2.056,-0.24116 -1.64063,-0.65652 z m 6.25,-1.25 c 0.41538,-0.41536 1.4935,-0.45976 2.39588,-0.0986 0.99712,0.39903 0.701,0.69523 -0.75525,0.7552 -1.31763,0.0542 -2.056,-0.24116 -1.64063,-0.65652 z m 6.849,-1.32264 c 0.85938,-0.34676 2.26563,-0.34676 3.125,0 0.85938,0.34676 0.15625,0.63049 -1.5625,0.63049 -1.71875,0 -2.42187,-0.28373 -1.5625,-0.63049 z m 6.901,-1.17736 c 0.41538,-0.41536 1.4935,-0.45976 2.39588,-0.0986 0.99712,0.39903 0.701,0.69523 -0.75525,0.7552 -1.31763,0.0542 -2.056,-0.24116 -1.64063,-0.65652 z m 6.25,-1.25 c 0.41538,-0.41536 1.4935,-0.45976 2.39588,-0.0986 0.99712,0.39903 0.701,0.69523 -0.75525,0.7552 -1.31763,0.0542 -2.056,-0.24116 -1.64063,-0.65652 z m 7.5,-1.25 c 0.41538,-0.41536 1.4935,-0.45976 2.39588,-0.0986 0.99712,0.39903 0.701,0.69523 -0.75525,0.7552 -1.31763,0.0542 -2.056,-0.24116 -1.64063,-0.65652 z m 6.25,-1.25 c 0.41538,-0.41536 1.4935,-0.45976 2.39588,-0.0986 0.99712,0.39903 0.701,0.69523 -0.75525,0.7552 -1.31763,0.0542 -2.056,-0.24116 -1.64063,-0.65652 z m 13.75,-2.5 c 0.41538,-0.41536 1.4935,-0.45976 2.39588,-0.0986 0.99712,0.39903 0.701,0.69523 -0.75525,0.7552 -1.31763,0.0542 -2.056,-0.24116 -1.64063,-0.65652 z m 13.75,-2.5 c 0.41538,-0.41536 1.4935,-0.45976 2.39588,-0.0986 0.99712,0.39903 0.701,0.69523 -0.75525,0.7552 -1.31763,0.0542 -2.056,-0.24116 -1.64063,-0.65652 z m 6.25,-1.25 c 0.41538,-0.41536 1.4935,-0.45976 2.39588,-0.0986 0.99712,0.39903 0.701,0.69523 -0.75525,0.7552 -1.31763,0.0542 -2.056,-0.24116 -1.64063,-0.65652 z m 7.5,-1.25 c 0.41538,-0.41536 1.4935,-0.45976 2.39588,-0.0986 0.99712,0.39903 0.701,0.69523 -0.75525,0.7552 -1.31763,0.0542 -2.056,-0.24116 -1.64063,-0.65652 z m 6.25,-1.25 c 0.41538,-0.41536 1.4935,-0.45976 2.39588,-0.0986 0.99712,0.39903 0.701,0.69523 -0.75525,0.7552 -1.31763,0.0542 -2.056,-0.24116 -1.64063,-0.65652 z m 13.75,-2.5 c 0.41538,-0.41536 1.4935,-0.45976 2.39588,-0.0986 0.99712,0.39903 0.701,0.69523 -0.75525,0.7552 -1.31763,0.0542 -2.056,-0.24116 -1.64063,-0.65652 z m 13.75,-2.5 c 0.41538,-0.41536 1.4935,-0.45976 2.39588,-0.0986 0.99712,0.39903 0.701,0.69523 -0.75525,0.7552 -1.31763,0.0542 -2.056,-0.24116 -1.64063,-0.65652 z m 6.25,-1.25 c 0.41538,-0.41536 1.4935,-0.45976 2.39588,-0.0986 0.99712,0.39903 0.701,0.69523 -0.75525,0.7552 -1.31763,0.0542 -2.056,-0.24116 -1.64063,-0.65652 z m 13.75,-2.5 c 0.41538,-0.41536 1.4935,-0.45976 2.39588,-0.0986 0.99712,0.39903 0.701,0.69523 -0.75525,0.7552 -1.31763,0.0542 -2.056,-0.24116 -1.64063,-0.65652 z m 13.75,-2.5 c 0.41538,-0.41536 1.4935,-0.45976 2.39588,-0.0986 0.99712,0.39903 0.701,0.69523 -0.75525,0.7552 -1.31763,0.0542 -2.056,-0.24116 -1.64063,-0.65652 z m 13.75,-2.5 c 0.41538,-0.41536 1.4935,-0.45976 2.39588,-0.0986 0.99712,0.39903 0.701,0.69523 -0.75525,0.7552 -1.31763,0.0542 -2.056,-0.24116 -1.64063,-0.65652 z m 6.25,-1.25 c 0.41538,-0.41536 1.4935,-0.45976 2.39588,-0.0986 0.99712,0.39903 0.701,0.69523 -0.75525,0.7552 -1.31763,0.0542 -2.056,-0.24116 -1.64063,-0.65652 z m 13.75,-2.5 c 0.41538,-0.41536 1.4935,-0.45976 2.39588,-0.0986 0.99712,0.39903 0.701,0.69523 -0.75525,0.7552 -1.31763,0.0542 -2.056,-0.24116 -1.64063,-0.65652 z m 13.75,-2.5 c 0.41538,-0.41536 1.4935,-0.45976 2.39588,-0.0986 0.99712,0.39903 0.701,0.69523 -0.75525,0.7552 -1.31763,0.0542 -2.056,-0.24116 -1.64063,-0.65652 z m 33.75,-6.25 c 0.41538,-0.41536 1.4935,-0.45976 2.39588,-0.0986 0.99712,0.39903 0.701,0.69523 -0.75525,0.7552 -1.31763,0.0542 -2.056,-0.24116 -1.64063,-0.65652 z m 13.75,-2.5 c 0.41538,-0.41536 1.4935,-0.45976 2.39588,-0.0986 0.99712,0.39903 0.701,0.69523 -0.75525,0.7552 -1.31763,0.0542 -2.056,-0.24116 -1.64063,-0.65652 z M -829.8214,99.2372 c 0.85586,-1.03125 1.83736,-1.875 2.18111,-1.875 0.34375,0 -0.0752,0.84375 -0.93111,1.875 -0.85586,1.03125 -1.83736,1.875 -2.18111,1.875 -0.34375,0 0.0752,-0.84375 0.93111,-1.875 z m 6.25,-5 c 0.85586,-1.03125 1.83736,-1.875 2.18111,-1.875 0.34375,0 -0.0752,0.84375 -0.93111,1.875 -0.85586,1.03125 -1.83736,1.875 -2.18111,1.875 -0.34375,0 0.0752,-0.84375 0.93111,-1.875 z m 6.875,-5.625 c 1.24436,-1.375 2.54372,-2.5 2.88747,-2.5 0.34375,0 -0.39311,1.125 -1.63747,2.5 -1.24436,1.375 -2.54373,2.5 -2.88748,2.5 -0.34375,0 0.39312,-1.125 1.63748,-2.5 z m 1835.625,-3.051225 c 0,-0.303175 0.5625,-0.898875 1.25,-1.323775 0.6875,-0.4249 1.25,-0.17685 1.25,0.551225 0,0.728075 -0.5625,1.323775 -1.25,1.323775 -0.6875,0 -1.25,-0.24805 -1.25,-0.551225 z M -809.8214,82.9872 c 0.85586,-1.03125 1.83736,-1.875 2.18111,-1.875 0.34375,0 -0.0752,0.84375 -0.93111,1.875 -0.85586,1.03125 -1.83736,1.875 -2.18111,1.875 -0.34375,0 0.0752,-0.84375 0.93111,-1.875 z m 1834.3285,-5.3125 c 1.9271,-2.921875 3.742,-5.3125 4.0333,-5.3125 0.9016,0 -3.8846,7.607737 -5.7618,9.1586 -0.9764,0.806525 -0.1985,-0.924225 1.7285,-3.8461 z M -802.96293,70.838737 c -0.64797,-3.454037 5.68537,-21.885337 36.83008,-107.182853 20.68694,-56.656333 37.74173,-103.046874 37.89952,-103.090094 0.15782,-0.0432 1.54492,-0.78171 3.08247,-1.64109 2.20227,-1.23091 42.65682,-1.55844 190.625,-1.54336 110.8471,0.0113 187.10601,0.4771 186.06432,1.13651 -1.39582,0.88358 -1.219,1.20649 0.84515,1.54336 3.14184,0.51274 -445.47905,213.990727 -450.89981,214.562427 -3.27299,0.345188 -3.74773,-0.05888 -4.44673,-3.7849 z"
         id="path4153"
         inkscape:connector-curvature="0" />
      <path
         style="fill:#17ac8e"
         d="m -1277.0589,1160.7997 c -13.0618,-25.6094 -26.6206,-52.3179 -30.1306,-59.3523 l -6.3819,-12.7898 0,-161.89769 c 0,-89.04373 0.1949,-161.89771 0.4331,-161.89771 0.2382,0 87.0039,-19.12461 192.8125,-42.49914 105.8087,-23.37452 193.7052,-42.49952 195.32564,-42.5 2.28732,-6.7e-4 2.76156,0.48836 2.12048,2.18664 -1.11452,2.95255 -277.86322,514.6856 -281.55742,520.625 l -2.9157,4.6875 -22.9787,0 -22.9787,0 -23.7487,-46.5625 z m 235.0147,44.5729 c 10.07,-3.0974 251.69528,-61.7604 254.38325,-61.7604 2.15461,0 132.09226,53.6433 148.03918,61.1163 l 5.42537,2.5425 -206.875,-0.041 c -182.7918,-0.036 -206.1879,-0.2527 -200.9728,-1.8569 z m 743.4629,-1.4479 c -0.0125,-4.1525 37.41709,-383.4959 38.23384,-387.5 0.31554,-1.54687 1.39965,-2.8125 2.40914,-2.8125 1.84313,0 559.66804,340.0625 563.04255,343.2432 0.99025,0.9335 1.45487,2.0429 1.03237,2.4656 -0.69312,0.6931 -161.80862,37.3281 -197.54037,44.9175 l -14.70738,3.1237 -196.23015,0 -196.2301,0 -0.01,-3.4375 z M 1082.9285,869.24235 c -1.5813,-1.64318 -29.0031,-25.90295 -60.9375,-53.9106 -31.93428,-28.00766 -58.0624,-51.34301 -58.0624,-51.85634 0,-0.51332 2.95312,-1.25892 6.5625,-1.65687 12.60375,-1.38965 114.9606,-8.34992 115.4593,-7.85123 0.2766,0.27663 0.3567,26.99888 0.1781,59.38279 l -0.3249,58.87985 -2.8751,-2.9876 z M 637.1596,678.4733 C 462.59285,632.4892 319.45648,594.55679 319.07885,594.17906 c -0.37775,-0.37772 -0.14425,-1.51015 0.519,-2.5165 1.49313,-2.26585 693.89725,-493.05036 695.60075,-493.05036 0.6765,0 1.23,1.98657 1.23,4.41461 0,2.42804 -12.0938,149.50396 -26.875,326.83539 -14.78125,177.33142 -26.875,324.6886 -26.875,327.46039 0,4.88125 -0.12763,5.03518 -4.0625,4.8989 -2.23437,-0.0774 -146.88975,-37.76408 -321.4565,-83.74819 z m -1950.731,-449.2057 c 0,-130.301838 0.3158,-163.116213 1.5625,-162.378912 2.994,1.770575 262.0965,201.814952 262.7359,202.849632 0.3544,0.57335 -52.6397,25.40709 -117.7646,55.18609 -97.5237,44.5937 -135.6841,62.20021 -145.5963,67.17555 -0.5156,0.25881 -0.9375,-73.01575 -0.9375,-162.83236 z m 823.75,160.89017 c 0,-1.21242 63.19165,-121.4468 140.4259,-267.1875 l 140.42589,-264.98307 48.91081,-0.32697 48.9108,-0.32698 1.81664,2.82698 c 5.06437,7.88098 175.905335,353.77011 175.39296,355.10527 -0.57825,1.50685 -549.70736,177.0967 -553.84156,177.0967 -1.12279,0 -2.04144,-0.99199 -2.04144,-2.20442 z M 282.63173,-2.9953125 C 154.38722,-76.704929 47.512225,-138.26895 45.131725,-139.80424 l -4.328125,-2.79144 337.53437,-0.0211 c 317.96425,-0.0198 337.7135,0.10432 340.625,2.14134 5.867,4.1049 288.09863,228.061162 291.14933,231.032587 1.6823,1.638588 2.7855,3.252388 2.4518,3.586213 -0.5874,0.587362 -487.70525,37.01455 -493.75863,36.92379 -1.651,-0.0248 -107.92925,-60.352878 -236.17375,-134.0625025 z M -801.01049,70.1747 c 0.0335,-1.203125 17.34241,-49.4375 38.46424,-107.1875 l 38.40332,-105 188.09827,-0.2768 c 146.34266,-0.21536 187.54328,0.0549 185.59826,1.21727 -4.5913,2.7439 -448.26907,213.43453 -449.45595,213.43453 -0.64298,0 -1.14164,-0.984375 -1.10814,-2.1875 z"
         id="path4151"
         inkscape:connector-curvature="0" />
      <path
         style="fill:#17aa8d"
         d="m -1280.9839,1149.5364 c -16.1081,-31.7896 -30.0299,-58.5425 -30.9375,-59.451 -1.3497,-1.3511 -1.648,-30.9262 -1.6391,-162.49999 l 0.011,-160.84821 193.9654,-42.79443 c 106.6811,-23.53692 194.21274,-42.54721 194.51487,-42.24506 0.30214,0.30214 -63.08099,118.16495 -140.85137,261.91735 -77.7705,143.75244 -141.4008,261.90324 -141.4008,262.55754 0,0.7086 -8.9713,1.1842 -22.1875,1.1763 l -22.1875,-0.014 -29.2875,-57.7991 z m 241.1625,56.3167 c 3.0937,-0.6649 61.2259,-14.7111 129.18255,-31.214 l 123.55756,-30.005 69.56744,29.1285 c 38.2621,16.0207 72.37995,30.0951 75.81745,31.2763 5.95563,2.0468 -3.40532,2.145 -198.75,2.0856 -135.21875,-0.041 -203.0853,-0.4741 -199.375,-1.2714 z m 741.84732,-0.9036 c 0.42118,-1.3272 9.4157,-89.4087 19.98782,-195.737 10.57212,-106.32828 19.48551,-193.58761 19.80752,-193.90964 0.32203,-0.32202 126.99641,76.6255 281.49859,170.99449 215.98425,131.92185 280.37237,171.79765 278.5735,172.52165 -1.28688,0.5178 -46.496,10.8383 -100.46475,22.9343 -53.96875,12.096 -100.53525,22.8064 -103.481125,23.8008 -4.582625,1.547 -33.61775,1.8081 -201.021785,1.8081 -192.7392,0 -195.6541,-0.036 -194.89977,-2.4127 z M 1083.7077,869.35856 c -0.2222,-0.9645 -26.5603,-24.67002 -58.5291,-52.67895 -31.96875,-28.00892 -58.29263,-51.34748 -58.49738,-51.86348 -0.46625,-1.17477 6.00513,-1.76504 60.99738,-5.56378 24.4063,-1.68591 47.6094,-3.39134 51.5625,-3.7898 l 7.1875,-0.72449 0,58.18707 c 0,34.88865 -0.4638,58.18707 -1.1584,58.18707 -0.637,0 -1.3401,-0.78914 -1.5625,-1.75364 z M 639.70922,677.29921 C 465.16972,631.32793 322.05097,593.40129 321.66747,593.0178 c -0.3835,-0.3835 -0.17225,-1.18581 0.46951,-1.78292 0.87475,-0.81409 669.97762,-475.06289 688.42612,-487.94487 1.9301,-1.3478 3.76,-2.20001 4.0661,-1.89382 0.5249,0.52482 -52.3976,643.05731 -53.90023,654.40351 -0.39487,2.98205 -1.35537,5.26231 -2.1895,5.19809 -0.81725,-0.0629 -144.29087,-37.72729 -318.83025,-83.69858 z M -1313.5714,230.13006 c 0,-89.52232 0.3317,-162.76786 0.7371,-162.76786 0.4055,0 1.6711,1.055075 2.8125,2.3446 1.1415,1.289525 58.8879,46.07545 128.3254,99.52426 69.4375,53.44883 127.2541,98.13219 128.4812,99.29638 2.1118,2.00335 -4.6928,5.28322 -127.066,61.24716 -71.1135,32.52175 -130.1957,60.02885 -131.2938,61.12689 -1.8285,1.82857 -1.9964,-11.68885 -1.9964,-160.77143 z m 825.76183,159.95353 c -0.36352,-0.58818 62.20579,-119.70673 139.04291,-264.7079 76.83711,-145.001167 140.078,-264.62286 140.53531,-265.82599 0.77204,-2.0311 4.27511,-2.1875 48.99572,-2.1875 30.00063,0 48.16423,0.45339 48.16423,1.20224 0,0.66124 39.375,80.457566 87.5,177.325185 48.125,96.867615 87.5,176.905295 87.5,177.861535 0,1.21439 -82.823125,28.09089 -274.6875,89.13743 -151.07812,48.06935 -275.07051,87.59357 -275.53863,87.83161 -0.46812,0.23803 -1.14855,-0.0485 -1.51205,-0.63661 z M 286.4286,-2.808025 C 159.58485,-75.727644 52.70985,-137.00819 48.9286,-138.98702 l -6.875,-3.59786 336.73162,-0.0265 336.73175,-0.0265 2.64326,2.8125 c 1.45387,1.54688 67.4715,54.198614 146.70587,117.003864 79.23438,62.805249 144.0625,114.695873 144.0625,115.312499 0,0.616625 -0.7145,1.121137 -1.5879,1.121137 -0.8732,0 -111.4756,8.15625 -245.78285,18.125 -134.30737,9.96875 -244.26475,18.10495 -244.34975,18.08045 -0.085,-0.0245 -103.93575,-59.706062 -230.7795,-132.625675 z m -1085,71.198462 c 0,-0.809475 16.875,-47.697037 37.5,-104.194601 20.625,-56.497561 37.5,-103.647766 37.5,-104.778236 0,-1.89843 14.29581,-2.04894 187.1875,-1.9708 130.0874,0.0588 186.23424,0.47865 184.0625,1.37639 -1.71875,0.71049 -5.09375,2.1489 -7.5,3.19648 -2.40625,1.04758 -101.856,48.240704 -220.99944,104.87361 -119.14344,56.632907 -216.87781,102.96892 -217.1875,102.96892 -0.30969,0 -0.56306,-0.662288 -0.56306,-1.471763 z"
         id="path4149"
         inkscape:connector-curvature="0" />
    </g>
    <path
       inkscape:connector-curvature="0"
       id="path4293"
       d="m -2.35e-5,901.33903 c 0,-83.06266 0.2597,-151.02302 0.5772,-151.02302 0.3174,0 20.3675985,14.45614 44.5559985,32.12477 l 43.978798,32.12478 3.2609,-2.37025 C 104.16008,803.6275 724.0071,295.76801 723.72178,294.91195 723.36435,293.83949 408.80443,63.73397 406.47213,62.838844 405.79052,62.577244 314.16795,136.81136 202.86638,227.80354 L 0.4999765,393.24387 0.2476765,183.05632 c -0.1388,-115.603142 -0.1005,-210.339469 0.085,-210.525168 0.1857,-0.185698 116.5275035,-0.224264 258.5372935,-0.08571 l 258.19977,0.251949 -30.53499,24.8527713 c -16.7942,13.6690247 -30.53496,25.2190757 -30.53496,25.6667737 0,0.749754 314.83814,231.144534 316.68215,231.744194 0.44982,0.14627 33.61018,-26.53723 73.68969,-59.29666 40.0795,-32.75944 73.4229,-59.35113 74.09642,-59.09264 0.67353,0.25851 90.73115,65.86087 200.12795,145.78304 110.0003,80.36282 199.8444,145.33513 201.0082,145.36247 1.3551,0.0318 62.9458,-49.67334 173,-139.61523 93.9925,-76.81559 172.0205,-140.61145 173.3956,-141.76857 l 2.4999,-2.10387 -2.5165,-2.25341 c -1.3842,-1.23937 -53.8063,-39.83412 -116.4936,-85.766123 l -113.977,-83.512736 240.9083,-0.252088 c 132.4995,-0.138652 241.0603,-0.09991 241.2463,0.08611 0.1859,0.186018 0.2243,79.355682 0.085,175.932577 l -0.2528,175.59433 -94.4461,-68.97956 c -61.159,-44.66809 -95.0485,-68.82202 -96.1551,-68.53256 -0.9401,0.24584 -102.6616,82.97538 -226.0479,183.84338 -123.3856,100.86806 -361.5635,295.57605 -529.28338,432.68447 l -304.94538,249.28814 -54.34557,0 -54.34556,0 3.28478,-2.8198 c 1.80624,-1.5509 162.0219,-132.56073 356.03439,-291.13281 194.01232,-158.57209 352.74992,-288.91258 352.74992,-289.64553 0,-0.73296 -48.2626,-36.57323 -107.25,-79.64507 C 1105.7624,346.04717 1028.961,289.95666 994.08012,264.47342 954.81439,235.78669 929.96133,218.25349 928.825,218.4376 c -1.90348,0.30838 -780.82503,636.59492 -780.82503,637.84145 0,0.38753 1.01251,1.61136 2.25001,2.71963 1.2375,1.10828 60.75,44.67508 132.25001,96.81514 71.5,52.14008 130.4275,95.19358 130.95001,95.67438 0.54224,0.4988 -87.983,0.874 -206.25002,0.874 l -207.2000035,0 0,-151.02317 z M 1307.5277,1050.4817 c 2.4751,-2.36 609.5389,-498.50109 611.2317,-499.54744 0.9862,-0.60956 1.2406,50.72815 1.2406,250.33049 l 0,251.09745 -307.2222,0 c -300.7295,0 -307.1806,-0.04 -305.2501,-1.8805 z"
       style="fill:url(#linearGradient4159);fill-opacity:1;filter:url(#filter4183)" />
    <g
       id="g4206"
       transform="translate(18.387787,-2)">
      <text
         sodipodi:linespacing="125%"
         id="text4165"
         y="916.85699"
         x="1541.9403"
         style="font-style:normal;font-weight:normal;font-size:40px;line-height:125%;font-family:sans-serif;letter-spacing:0px;word-spacing:0px;fill:#000000;fill-opacity:1;stroke:none;stroke-width:1px;stroke-linecap:butt;stroke-linejoin:miter;stroke-opacity:1;filter:url(#filter4251)"
         xml:space="preserve"><tspan
           style="font-style:normal;font-variant:normal;font-weight:normal;font-stretch:normal;font-size:80px;font-family:Comfortaa;-inkscape-font-specification:Comfortaa"
           y="916.85699"
           x="1541.9403"
           id="tspan4167"
           sodipodi:role="line">manjaro</tspan></text>
      <text
         sodipodi:linespacing="125%"
         id="text4169"
         y="969.66705"
         x="1705.0262"
         style="font-style:normal;font-weight:normal;font-size:40px;line-height:125%;font-family:sans-serif;letter-spacing:0px;word-spacing:0px;fill:#000000;fill-opacity:1;stroke:none;stroke-width:1px;stroke-linecap:butt;stroke-linejoin:miter;stroke-opacity:1;filter:url(#filter4251)"
         xml:space="preserve"><tspan
           style="font-style:italic;font-variant:normal;font-weight:normal;font-stretch:normal;font-size:40px;font-family:'Liberation Serif';-inkscape-font-specification:'Liberation Serif Italic';text-align:center;text-anchor:middle;fill:#ffffff;fill-opacity:1"
           y="969.66705"
           x="1705.0262"
           id="tspan4171"
           sodipodi:role="line">Enjoy the simplicity!</tspan></text>
    </g>
  </g>
</svg>
