<?xml version="1.0" encoding="UTF-8" standalone="no"?>
<!-- Created with Inkscape (http://www.inkscape.org/) -->

<svg
   xmlns:dc="http://purl.org/dc/elements/1.1/"
   xmlns:cc="http://creativecommons.org/ns#"
   xmlns:rdf="http://www.w3.org/1999/02/22-rdf-syntax-ns#"
   xmlns:svg="http://www.w3.org/2000/svg"
   xmlns="http://www.w3.org/2000/svg"
   xmlns:xlink="http://www.w3.org/1999/xlink"
   xmlns:sodipodi="http://sodipodi.sourceforge.net/DTD/sodipodi-0.dtd"
   xmlns:inkscape="http://www.inkscape.org/namespaces/inkscape"
   id="svg2"
   version="1.1"
   inkscape:version="0.91 r13725"
   width="3840"
   height="2160"
   viewBox="0 0 3840 2160"
   sodipodi:docname="Powered_by_Manjaro_Maia.svg"
   inkscape:export-filename="/home/john/Sync/Powered_by_Manjaro_Maia.png"
   inkscape:export-xdpi="45"
   inkscape:export-ydpi="45">
  <metadata
     id="metadata8">
    <rdf:RDF>
      <cc:Work
         rdf:about="">
        <dc:format>image/svg+xml</dc:format>
        <dc:type
           rdf:resource="http://purl.org/dc/dcmitype/StillImage" />
        <dc:title></dc:title>
      </cc:Work>
    </rdf:RDF>
  </metadata>
  <defs
     id="defs6">
    <linearGradient
       inkscape:collect="always"
       id="linearGradient4296">
      <stop
         style="stop-color:#000000;stop-opacity:1;"
         offset="0"
         id="stop4298" />
      <stop
         style="stop-color:#202020;stop-opacity:1"
         offset="1"
         id="stop4300" />
    </linearGradient>
    <filter
       style="color-interpolation-filters:sRGB"
       inkscape:label="Drop Shadow"
       id="filter3357">
      <feFlood
         flood-opacity="0.498039"
         flood-color="rgb(0,0,0)"
         result="flood"
         id="feFlood3359" />
      <feComposite
         in="flood"
         in2="SourceGraphic"
         operator="in"
         result="composite1"
         id="feComposite3361" />
      <feGaussianBlur
         in="composite1"
         stdDeviation="3"
         result="blur"
         id="feGaussianBlur3363" />
      <feOffset
         dx="6"
         dy="6"
         result="offset"
         id="feOffset3365" />
      <feComposite
         in="SourceGraphic"
         in2="offset"
         operator="over"
         result="composite2"
         id="feComposite3367" />
    </filter>
    <filter
       style="color-interpolation-filters:sRGB;"
       inkscape:label="Drop Shadow"
       id="filter4274">
      <feFlood
         flood-opacity="0.498039"
         flood-color="rgb(0,0,0)"
         result="flood"
         id="feFlood4276" />
      <feComposite
         in="flood"
         in2="SourceGraphic"
         operator="in"
         result="composite1"
         id="feComposite4278" />
      <feGaussianBlur
         in="composite1"
         stdDeviation="3"
         result="blur"
         id="feGaussianBlur4280" />
      <feOffset
         dx="6"
         dy="6"
         result="offset"
         id="feOffset4282" />
      <feComposite
         in="SourceGraphic"
         in2="offset"
         operator="over"
         result="composite2"
         id="feComposite4284" />
    </filter>
    <linearGradient
       inkscape:collect="always"
       xlink:href="#linearGradient4296"
       id="linearGradient4302"
       x1="1562.4969"
       y1="835"
       x2="2267.5031"
       y2="835"
       gradientUnits="userSpaceOnUse" />
  </defs>
  <sodipodi:namedview
     pagecolor="#ffffff"
     bordercolor="#666666"
     borderopacity="1"
     objecttolerance="10"
     gridtolerance="10"
     guidetolerance="10"
     inkscape:pageopacity="0"
     inkscape:pageshadow="2"
     inkscape:window-width="1366"
     inkscape:window-height="711"
     id="namedview4"
     showgrid="false"
     inkscape:zoom="0.20807292"
     inkscape:cx="1920"
     inkscape:cy="1080"
     inkscape:window-x="0"
     inkscape:window-y="33"
     inkscape:window-maximized="1"
     inkscape:current-layer="svg2"
     fit-margin-top="0"
     fit-margin-left="0"
     fit-margin-right="0"
     fit-margin-bottom="0" />
  <g
     transform="matrix(1.5998775,0,0,1.5998775,1820.3628,-707.39997)"
     id="g4161">
    <path
       style="fill:#18b696"
       d="m -1137.8138,1117.2107 0,-675.00002 1199.99998,0 1200.00002,0 0,675.00002 0,675 -1200.00002,0 -1199.99998,0 0,-675 z"
       id="path4163"
       inkscape:connector-curvature="0" />
    <path
       style="fill:#17b696"
       d="m -1137.8138,1444.0119 c 0,-210.1362 0.4533,-347.9186 1.1432,-347.4922 0.6288,0.3886 1.3358,0.1289 1.5712,-0.5771 0.2353,-0.706 72.9865,29.2924 161.66918,66.6631 204.94333,86.3627 222.99899,93.8891 223.65773,93.2303 0.4655,-0.4655 -123.79593,-393.54654 -124.69173,-394.44241 -0.1796,-0.1796 -58.6966,26.37487 -130.03768,59.00993 -112.9089,51.65026 -129.9444,59.10325 -131.5115,57.5361 -1.5559,-1.55592 -1.8004,-38.04848 -1.8004,-268.76465 l 0,-266.96429 103.4375,0.0397 c 79.37068,0.0305 103.88618,0.39406 105.36618,1.5625 1.4726,1.16272 8.8193,48.21847 31.0726,199.02275 16.0292,108.625 29.505,199.29231 29.9463,201.4829 l 0.8024,3.98291 52.5,-42.50146 c 109.74814,-88.84676 181.88704,-147.92194 181.5744,-148.69284 -0.17841,-0.43994 -49.75809,-48.24374 -110.17705,-106.23065 -60.41896,-57.98692 -109.21235,-105.6442 -108.42975,-105.90507 0.7826,-0.26087 1.105,-0.98877 0.7164,-1.61755 -0.4268,-0.69064 417.7392,-1.14324 1056.26275,-1.14324 l 1056.96937,0 -0.3765,69.6875 c -0.2454,45.41519 -0.8492,71.2739 -1.734,74.24216 -0.7465,2.50506 -15.2113,24.82915 -32.144,49.60909 -16.9326,24.77994 -30.7866,45.62334 -30.7866,46.31865 0,0.69532 13.9956,36.60183 31.1014,79.79223 17.1057,43.19038 31.5257,81.32865 32.0445,84.75168 0.5187,3.42303 1.1504,141.9647 1.4037,307.87036 0.3863,253.0186 0.1867,301.9206 -1.2383,303.3456 -1.4318,1.4318 -11.1938,-6.6307 -62.104,-51.2926 -53.0873,-46.5719 -60.5812,-52.7316 -61.8588,-50.8456 -5.2788,7.793 -57.2548,95.2011 -149.84752,251.9986 -79.50812,134.6402 -107.791,181.5414 -110.24112,182.8127 -2.62038,1.3593 -13.12688,1.7097 -51.27775,1.7097 -26.93138,0 -47.98213,-0.4845 -47.98213,-1.1042 0,-0.6073 -0.98437,-1.3827 -2.1875,-1.7229 -1.503,-0.4253 -45.60462,-94.1402 -140.9375,-299.4892 -134.29312,-289.2701 -138.75837,-298.6605 -139.00912,-292.3395 -0.5605,14.1271 -2.97475,185.7109 -4.72625,335.9058 -1.01425,86.9688 -2.02338,169.389 -2.24263,183.1561 l -0.39862,25.031 63.42087,23.719 c 34.88138,13.0454 62.2405,23.9107 60.79813,24.1449 -2.07188,0.3365 -2.252,0.6606 -0.8575,1.5434 1.038,0.6571 -358.78201,1.1252 -873.54738,1.1365 l -875.31248,0.019 0,-348.1988 z m 786.83242,116.2391 c 140.61716,-88.4514 255.66756,-161.2167 255.66756,-161.7006 0,-0.4839 -12.79687,-3.486 -28.4375,-6.6713 -135.78591,-27.6535 -218.37635,-44.3844 -402.75191,-81.5884 -117.18543,-23.6461 -213.14389,-42.8718 -213.24102,-42.7239 -0.0971,0.1479 29.12562,102.5032 64.93942,227.4563 45.2067,157.7246 65.58074,227.0134 66.63595,226.6181 0.83597,-0.3131 116.57035,-72.9387 257.1875,-161.3902 z m 550.40893,-275.5403 c 154.70538,-58.7813 281.14426,-107.0172 280.9755,-107.1909 -0.29637,-0.305 -224.48887,-55.9187 -417.59187,-103.5889 -128.07185,-31.6164 -355.89279,-87.71212 -364.65881,-89.78901 l -7.15881,-1.69611 1.91898,3.71091 c 2.09854,4.05813 109.82265,199.68331 179.70037,326.33281 24.17155,43.8096 44.30466,79.5284 44.74025,79.375 0.4356,-0.1533 127.36907,-48.3726 282.07439,-107.1538 z M -500.31382,1093.729 c 95.90625,-64.2418 175.13156,-117.51576 176.05624,-118.38665 1.38396,-1.30346 -17.83128,-21.44682 -108.67105,-113.92006 C -623.86,667.05768 -625.02771,665.89196 -625.7669,668.91189 c -0.50488,2.06273 -107.60277,556.08211 -111.95145,579.12701 l -0.98187,5.2032 32.0057,-21.355 c 17.60314,-11.7452 110.47445,-73.9163 206.3807,-138.1581 z m 1036.2535,-24.0183 C 590.16743,944.78407 683.20793,730.15548 685.28155,725.20448 l 1.62551,-3.88121 -5.17288,1.06455 c -10.46688,2.154 -432.15688,79.82286 -433.38475,79.82286 -0.69888,0 54.00225,82.69934 121.55825,183.7763 90.70875,135.71832 123.05037,183.19742 123.67612,181.56252 0.466,-1.2176 19.52613,-45.2451 42.35588,-97.8388 z m 442.36537,721.3575 c 1.41276,-0.8945 1.32175,-1.1877 -0.47875,-1.5434 -1.2225,-0.2415 61.5364,-31.8552 139.464,-70.2527 80.0008,-39.4189 141.8876,-69.2111 142.1482,-68.4297 0.2537,0.7611 0.9757,1.0659 1.6044,0.6773 0.6859,-0.4238 1.1433,27.5796 1.1433,69.9923 l 0,70.6987 -142.8125,-0.019 c -83.134,-0.013 -142.08377,-0.4807 -141.06865,-1.1234 z"
       id="path4161"
       inkscape:connector-curvature="0" />
    <path
       style="fill:#17b494"
       d="m -1137.8138,1444.1575 c 0,-345.5548 0.018,-348.0499 2.4613,-347.5793 1.7726,0.3414 293.09038,122.635 380.28601,159.642 3.22977,1.3707 6.40817,2.295 7.06309,2.0539 0.65494,-0.2411 -11.12526,-39.2509 -26.1782,-86.6884 -79.99402,-252.09123 -99.16222,-311.87502 -99.99492,-311.87502 -0.5032,0 -59.2333,26.68204 -130.51138,59.29342 -71.2781,32.61139 -130.3907,58.98872 -131.3612,58.61627 -1.512,-0.58018 -1.7647,-38.96763 -1.7647,-268.04343 l 0,-267.36626 103.5969,0 c 81.38508,0 103.86198,0.33501 104.83298,1.5625 0.6798,0.85938 14.6705,92.55985 31.0905,203.77882 21.6762,146.82073 30.2744,202.12283 31.3871,201.87501 1.4761,-0.32874 139.9976,-112.00417 205.0869,-165.34011 17.39068,-14.25038 31.45318,-26.39472 31.25,-26.98741 -0.20316,-0.5927 -49.3069,-48.05157 -109.1194,-105.46418 -59.8125,-57.41261 -109.5217,-105.52012 -110.465,-106.90559 l -1.7149,-2.51904 1057.0274,0 1057.02752,0 0,68.69118 c 0,52.25492 -0.3739,69.52778 -1.5625,72.18751 -0.8594,1.92297 -15.4978,23.98294 -32.5297,49.02215 -17.0321,25.03921 -31.3068,46.87861 -31.7218,48.532 -0.5453,2.17253 8.0982,25.42442 31.1696,83.84916 17.5581,44.46365 32.3705,82.5305 32.9164,84.593 0.5457,2.0625 1.1601,139.80057 1.3653,306.08462 0.365,295.8826 0.3225,302.3214 -1.9882,301.7172 -1.2985,-0.3396 -28.8835,-23.8902 -61.3,-52.3346 -32.4165,-28.4445 -59.622,-51.8707 -60.4566,-52.0584 -0.8346,-0.1876 -2.322,0.9374 -3.3053,2.5 -9.1597,14.5574 -58.0966,97.021 -148.19034,249.7162 -59.02088,100.0313 -108.44063,183.1406 -109.82163,184.6875 l -2.511,2.8125 -47.99637,0 c -37.28138,0 -48.353,-0.3565 -49.59325,-1.5969 -0.87838,-0.8782 -62.09063,-131.8001 -136.0275,-290.9375 C 566.69656,1340.539 503.80718,1205.2732 500.87906,1199.0857 l -5.32375,-11.25 -0.88738,5.625 c -0.48812,3.0937 -1.26837,34.0312 -1.73387,68.75 -1.86063,138.7835 -5.72013,452.7554 -5.73363,466.4308 l -0.0138,14.5557 60.79375,22.7113 c 33.4365,12.4911 61.60175,23.5191 62.58925,24.5067 1.56075,1.5606 -112.64637,1.7955 -873.29371,1.7955 l -875.08982,0 0,-348.0533 z m 783.42283,120.3534 c 140.08619,-88.11 256.86467,-161.5568 259.50775,-163.2153 2.64307,-1.6585 4.589,-3.232 4.32427,-3.4967 -1.34354,-1.3436 -649.70042,-132.3093 -650.5924,-131.4174 -0.41502,0.4151 4.57693,17.9656 76.49937,268.9542 56.70256,197.8756 54.23388,189.375 54.99693,189.375 0.30907,0 115.1779,-72.0899 255.26408,-160.1998 z m 556.84565,-279.3861 c 155.17887,-58.9428 281.89812,-107.4142 281.59813,-107.7141 -1.6565,-1.6565 -792.44542,-196.8821 -794.5956,-196.16536 -0.58012,0.19336 35.97462,67.56776 81.23275,149.72096 45.25812,82.1532 96.31258,174.8403 113.45436,205.9714 27.0874,49.1933 31.49409,56.5205 33.66686,55.979 1.375,-0.3427 129.46458,-48.849 284.6435,-107.7919 z m -729.88866,-171.0391 c 113.89416,-76.3125 207.08926,-139.18836 207.10022,-139.72411 0.0359,-1.75565 -304.33242,-310.77862 -305.2233,-309.89099 -0.47754,0.47579 -26.21665,132.20883 -57.19805,292.74008 -30.98139,160.53122 -56.66127,293.46862 -57.0664,295.41642 -0.71259,3.426 -0.6381,3.4871 2.28533,1.875 1.66205,-0.9165 96.20803,-64.1039 210.1022,-140.4164 z m 1063.39878,-40 c 22.92475,-52.9375 47.41463,-109.46877 54.42175,-125.62502 73.465,-169.38525 98.04963,-226.44828 98.04963,-227.58098 0,-0.73562 -0.98437,-1.05867 -2.1875,-0.7179 -1.20313,0.34078 -100.76562,18.78135 -221.25,40.97907 -120.48438,22.19771 -219.0625,40.80425 -219.0625,41.34786 0,2.75506 246.397,370.09547 247.439,368.89397 0.4995,-0.5759 19.66475,-44.3595 42.58962,-97.297 z m 443.01275,716.155 c 2.24888,-2.2487 276.96135,-137.9333 280.73825,-138.6607 2.437,-0.4693 2.4704,0.4788 2.4704,70.0774 l 0,70.5533 -142.5893,0 c -129.80122,0 -142.4126,-0.1766 -140.61935,-1.97 z"
       id="path4159"
       inkscape:connector-curvature="0" />
    <path
       style="fill:#17b294"
       d="m -1137.8138,1444.7107 c 0,-246.0232 0.3906,-347.5 1.3377,-347.5 0.7358,0 81.3139,33.6934 179.06248,74.8743 217.74703,91.7355 207.88417,87.6257 210.28865,87.6257 1.48399,0 1.75621,-0.7042 1.08731,-2.8125 -0.49077,-1.5469 -13.13668,-41.3438 -28.10204,-88.4375 -25.56143,-80.4381 -91.45652,-288.14881 -95.76822,-301.87502 -1.0797,-3.4375 -2.3915,-6.7193 -2.915,-7.2929 -0.5234,-0.57359 -59.4781,25.72329 -131.01038,58.4375 -71.5324,32.71422 -130.9412,59.4804 -132.0196,59.4804 -1.7751,0 -1.9609,-25.35024 -1.9609,-267.5 l 0,-267.5 103.6163,0 c 87.41208,0 103.72068,0.2723 104.28438,1.74122 0.3675,0.95767 13.9388,91.6608 30.1584,201.5625 16.2197,109.90171 29.7805,201.12428 30.1353,202.71683 0.3745,1.68171 1.4015,2.72974 2.4498,2.5 0.9927,-0.21755 37.3944,-29.1848 80.89282,-64.37166 117.51408,-95.05989 156.58798,-127.21894 156.58798,-128.8768 0,-0.81954 -47.8125,-47.37999 -106.25,-103.46767 -58.4375,-56.08768 -108.4917,-104.18863 -111.2316,-106.89101 l -4.9816,-4.91341 1057.16908,0 1057.16914,0 0,69.19825 0,69.19825 -16.6161,24.23925 c -36.9639,53.92179 -50.8839,75.0061 -50.8839,77.07244 0,1.1946 14.3965,38.45209 31.9924,82.79441 17.5957,44.34232 32.7771,83.15365 33.7364,86.2474 2.491,8.03371 2.6595,606.15912 0.1706,605.79382 -0.8804,-0.1292 -28.5121,-23.845 -61.4039,-52.7018 -32.8919,-28.8569 -60.5231,-52.6384 -61.403,-52.8478 -2.1308,-0.5072 -16.4256,23.2642 -149.81527,249.1308 l -112.94625,191.25 -48.70762,0.3269 -48.70763,0.3267 -82.037,-176.5768 c -45.12025,-97.1172 -108.42738,-233.3667 -140.68238,-302.7767 -32.255,-69.4099 -59.2165,-126.3902 -59.91462,-126.6229 -0.79138,-0.2638 -1.56425,5.835 -2.05313,16.1999 -1.37487,29.1526 -7.13212,540.0952 -6.09712,541.112 0.54637,0.5369 28.09462,11.087 61.21812,23.4448 33.1235,12.3576 61.2485,23.064 62.5,23.7919 1.6025,0.9318 -256.56425,1.3345 -873.03712,1.3612 l -875.31248,0.038 0,-347.5 z m 581.51432,247.9628 c 29.07336,-18.308 70.29816,-44.2575 91.61066,-57.6656 80.91561,-50.9057 112.5097,-70.7803 152.5,-95.9322 22.6875,-14.2693 57.5625,-36.2075 77.5,-48.7516 19.9375,-12.544 55.09375,-34.6498 78.125,-49.124 64.18024,-40.3345 67.93724,-42.8075 66.73915,-43.9301 -2.45721,-2.3025 -651.3597,-132.9346 -652.35336,-131.3268 -0.5499,0.8898 129.70676,456.2879 131.20413,458.7108 0.44419,0.7187 1.034,1.3067 1.31068,1.3067 0.27669,0 24.29036,-14.9792 53.36374,-33.2872 z m 759.04841,-406.507 c 155.34075,-59.0327 282.6255,-107.8956 282.85513,-108.5843 0.23249,-0.6976 -24.3775,-7.3998 -55.56275,-15.1318 -30.78913,-7.6338 -131.91763,-32.7138 -224.73013,-55.7334 -163.26144,-40.4925 -460.69919,-113.77698 -498.51895,-122.82809 -10.18541,-2.43761 -18.83551,-4.11543 -19.22242,-3.72852 -0.67786,0.67785 21.56277,41.31291 162.46167,296.82811 58.52419,106.1315 65.278,117.8332 67.64745,117.2064 1.44774,-0.383 129.72923,-48.9958 285.07,-108.0284 z M -529.607,1116.5492 c 115.455,-77.3639 210.09687,-141.18119 210.31527,-141.81631 0.49427,-1.43736 -304.39535,-311.89721 -306.3012,-311.89721 -1.45895,0 -116.29294,591.59262 -115.18268,593.38912 0.33513,0.5422 0.75359,0.9859 0.92989,0.9859 0.17631,0 94.78374,-63.2977 210.23872,-140.6615 z M 569.77618,998.41034 c 41.31287,-95.19106 85.2125,-196.38455 97.55487,-224.87441 12.34225,-28.48985 22.14288,-52.57551 21.779,-53.52369 -0.36937,-0.96249 -1.6305,-1.43353 -2.85525,-1.06646 -2.02062,0.60564 -402.376,74.61135 -428.90687,79.28348 -6.44225,1.13448 -11.96263,2.71266 -12.2675,3.50704 -0.43888,1.14364 232.4535,351.7183 244.314,367.7676 1.75975,2.3814 3.54912,3.6994 4.17387,3.0747 0.6015,-0.6015 34.895,-78.9772 76.20788,-174.16826 z m 409.285,792.23936 c 3.50613,-2.0827 271.31662,-134.4027 277.81252,-137.2619 l 5.3125,-2.3383 0,70.5806 0,70.5806 -142.8125,-0.038 c -110.8598,-0.03 -142.25315,-0.3702 -140.31252,-1.523 z"
       id="path4157"
       inkscape:connector-curvature="0" />
    <path
       style="fill:#17b092"
       d="m -1137.8138,1444.7107 c 0,-191.125 0.1948,-347.5 0.433,-347.5 0.2381,0 2.0662,0.8085 4.0625,1.7966 3.5374,1.7512 295.41588,124.8759 354.55635,149.5645 27.14078,11.3302 34.69813,13.8491 34.69813,11.565 0,-0.4531 -3.0539,-10.4375 -6.78644,-22.1875 -3.73254,-11.75 -18.58592,-58.4886 -33.00752,-103.8636 -14.4216,-45.375 -39.24123,-123.5625 -55.15474,-173.75002 -15.9135,-50.1875 -29.6605,-93.5 -30.5489,-96.25 -1.4111,-4.36786 -2.0744,-4.98463 -5.2464,-4.87842 -1.997,0.0669 -61.4669,26.64498 -132.15518,59.0625 -70.6883,32.41749 -129.0476,58.94092 -129.6875,58.94092 -0.7141,0 -1.1633,-103.28531 -1.1633,-267.5 l 0,-267.5 103.4375,0.004 103.43748,0.004 29.7865,202.18372 c 16.3826,111.20104 30.2107,203.58997 30.7292,205.30872 0.5184,1.71875 1.5478,3.125 2.2874,3.125 2.5957,0 239.4624,-192.31546 240.06473,-194.91205 0.33061,-1.42524 -207.15093,-201.84439 -219.10853,-211.65045 l -4.9539,-4.0625 1057.15985,0 1057.15977,0 0,68.73604 0,68.73605 -5.4089,7.20145 c -8.3871,11.16652 -60.4684,88.14024 -62.1829,91.90322 -1.7813,3.90961 -3.0892,-0.002 17.0247,50.9228 35.8171,90.68365 45.496,114.98107 47.9385,120.3427 l 2.6286,5.77014 0,300.75568 c 0,258.8451 -0.2462,300.6164 -1.7675,299.7561 -0.9721,-0.5498 -28.6105,-24.5591 -61.4186,-53.3541 -32.8082,-28.795 -60.5338,-52.42 -61.6127,-52.5 -3.0636,-0.2273 -2.3041,-1.4882 -163.16584,270.8958 -54.74451,92.6978 -99.53538,169.0572 -99.53538,169.6876 0,0.6752 -20.02825,1.1461 -48.75,1.1461 -41.75263,0 -48.75,-0.2601 -48.75,-1.8125 0,-0.9969 -7.6555,-18.2937 -17.01213,-38.4375 -9.35675,-20.1438 -72.12612,-155.3125 -139.48762,-300.375 -67.36138,-145.0625 -123.32075,-265.0758 -124.35413,-266.6962 -3.77137,-5.9136 -4.55087,-1.2237 -4.89762,29.4665 -0.18475,16.3513 -1.80413,141.9029 -3.59863,279.0035 -2.67087,204.0465 -2.96912,249.5631 -1.64387,250.8675 1.37887,1.3571 107.062,41.4398 121.619,46.1267 4.08925,1.3166 -154.44713,1.6324 -870.3125,1.7334 l -875.31248,0.1236 0,-347.5 z m 564.37498,260.0213 c 17.1875,-10.8123 48.6875,-30.6247 70,-44.0276 21.3125,-13.403 56.1875,-35.3476 77.5,-48.7657 46.67549,-29.3866 95.89901,-60.3534 140.625,-88.4682 37.74319,-23.7254 94.11407,-59.1847 150.625,-94.7486 21.3125,-13.4125 40.57812,-25.4825 42.8125,-26.8223 4.46943,-2.6799 5.2648,-5.4077 1.875,-6.4305 -14.6369,-4.4166 -651.88651,-131.8813 -653.26897,-130.6689 -0.59482,0.5216 5.78708,24.7618 14.18199,53.867 8.39492,29.1051 37.97619,132.1556 65.73618,229.0009 27.76,96.8453 51.10904,176.8491 51.88676,177.7862 1.81653,2.1888 0.24265,3.0465 38.02654,-20.7223 z m 510.25376,-316.3237 c 10.86043,-4.1538 23.96499,-9.1703 29.12124,-11.1479 5.15625,-1.9776 17.8125,-6.7942 28.125,-10.7036 36.24624,-13.7404 55.11914,-20.9093 67.5,-25.6399 6.875,-2.6269 22.34375,-8.4917 34.375,-13.033 12.03125,-4.5412 26.09375,-9.8815 31.25,-11.8673 5.15625,-1.9858 19.21875,-7.334 31.25,-11.885 12.03125,-4.551 28.34375,-10.7497 36.25,-13.7748 14.53287,-5.5606 25.33775,-9.666 59.375,-22.5606 10.3125,-3.9068 24.375,-9.2525 31.25,-11.8793 6.875,-2.6269 22.34375,-8.4917 34.375,-13.033 12.03125,-4.5412 26.09375,-9.8796 31.25,-11.863 5.15625,-1.9834 17.53125,-6.6984 27.5,-10.4777 9.96875,-3.7794 27.96875,-10.6038 40,-15.1653 12.03125,-4.5615 26.9375,-10.2322 33.125,-12.6016 6.1875,-2.3694 16.82875,-6.419 23.64725,-8.9993 6.8185,-2.5802 12.6205,-5.363 12.89337,-6.1839 0.61488,-1.85 20.2525,3.2371 -175.29062,-45.4094 -284.75101,-70.8394 -621.84219,-153.72302 -625.19806,-153.72302 -1.30575,0 -1.76323,0.78505 -1.35877,2.33171 0.63726,2.43684 225.27255,410.87761 227.47598,413.60581 0.69407,0.8594 1.72915,1.5625 2.30016,1.5625 0.57102,0 9.92402,-3.3986 20.78445,-7.5524 z m -465.71842,-270.9528 c 132.79067,-88.9659 210.46466,-141.74056 210.46466,-142.99772 0,-2.42421 -305.26464,-313.4971 -307.6436,-313.4971 -0.92608,0 -1.97185,1.26562 -2.32395,2.8125 -0.6242,2.74231 -112.12871,580.69282 -113.82923,590.00002 -0.67639,3.702 -0.46501,4.6875 1.0055,4.6875 1.02408,0 96.57105,-63.4524 212.32662,-141.0052 z m 1024.77428,53.8177 c 1.57363,-3.4108 122.519,-281.93491 170.2695,-392.11238 13.68825,-31.58369 24.70438,-58.30244 24.48038,-59.375 -0.25325,-1.21209 -1.57163,-1.86315 -3.4835,-1.7203 -2.47275,0.18475 -138.33713,25.11605 -285.576,52.40356 -13.0625,2.42085 -27.96875,5.17331 -33.125,6.1166 -5.15625,0.94329 -20.0625,3.69163 -33.125,6.10742 -13.0625,2.41579 -37.8125,6.96267 -55,10.10417 -32.06475,5.86071 -36.875,7.09871 -36.875,9.49036 0,2.32599 247.83325,372.42307 249.39087,372.42307 0.80175,0 2.1715,-1.5469 3.04375,-3.4375 z m 483.81538,619.4541 c 3.73488,-1.5706 185.09772,-90.6477 241.76002,-118.7413 21.9368,-10.8764 40.0774,-19.7753 40.3125,-19.7753 0.2351,0 0.4275,31.5 0.4275,70 l 0,70 -142.8125,-0.085 c -101.0782,-0.06 -141.89927,-0.4686 -139.68752,-1.3987 z"
       id="path4155"
       inkscape:connector-curvature="0" />
    <path
       style="fill:#17ae90"
       d="m -1080.0772,1790.4947 c -3.8513,-1.8787 -53.9454,-99.8169 -55.7055,-108.909 -1.6977,-8.7696 -2.4672,-331.875 -0.7903,-331.875 0.6925,0 1.2592,-0.8438 1.2592,-1.875 0,-1.0313 0.3408,-1.875 0.7573,-1.875 0.4166,0 86.0631,-18.8438 190.32548,-41.875 104.2625,-23.0313 191.40815,-41.875 193.65694,-41.875 2.2488,0 4.30436,0.7031 4.56792,1.5625 1.04513,3.4077 1.81631,11.4756 0.96941,10.1416 -0.51032,-0.8038 -61.65235,110.8886 -140.78807,257.1875 -108.016,199.6901 -140.41028,258.6084 -142.18748,258.6084 -1.2658,0 -2.3015,0.5625 -2.3015,1.25 0,1.7879 -46.0266,1.3569 -49.7634,-0.466 z m 209.76338,0.5189 c 2.934,-0.89 2.8575,-0.9779 -1.25,-1.4379 -2.9902,-0.3349 36.5198,-10.4579 124.82524,-31.9819 71.06012,-17.3206 129.50382,-31.7955 129.87487,-32.1666 0.37107,-0.371 -7.30746,-28.5987 -17.0634,-62.7282 -9.75592,-34.1295 -17.5246,-62.2671 -17.26372,-62.528 0.26087,-0.2608 8.4965,27.5132 18.30139,61.7202 9.80488,34.207 18.40187,62.8976 19.1044,63.757 2.43157,2.9744 8.90368,1.7001 16.60665,-3.2695 8.02806,-5.1795 45.15296,-28.5346 59.55837,-37.4679 4.81139,-2.9837 8.99744,-5.1755 9.30233,-4.8706 0.30488,0.3049 -16.3319,11.1836 -36.97065,24.1749 -20.63875,12.9913 -37.02475,23.7873 -36.41334,23.9912 0.61141,0.2039 33.93944,14.1134 74.06226,30.91 47.89141,20.0488 71.66244,30.5789 69.2006,30.6547 -3.23399,0.1 -3.406,0.2632 -1.25,1.1897 1.4069,0.6046 -88.50076,1.0583 -205.625,1.0375 -114.46875,-0.02 -206.7187,-0.4632 -205,-0.9846 z m 746.80502,0.06 c 0.39908,-0.6458 -0.005,-1.3573 -0.89847,-1.5811 -1.27664,-0.32 2.4562,-41.4375 17.45,-192.2127 10.49071,-105.4931 18.85774,-192.0219 18.59337,-192.2862 -0.37599,-0.376 -31.96312,19.0293 -47.88742,29.4192 -1.54687,1.0093 -2.80739,1.3485 -2.80114,0.7538 0.006,-0.5947 3.80313,-3.4456 8.4375,-6.3353 34.5295,-21.5306 41.31663,-26.0094 44.29318,-29.229 2.0167,-2.1814 4.63922,-3.642 6.53922,-3.642 1.7447,0 9.51079,-2.4747 17.25796,-5.4994 7.74718,-3.0247 21.96078,-8.4324 31.58578,-12.0172 9.625,-3.5848 23.74839,-8.9851 31.38531,-12.0006 7.63691,-3.0152 14.23039,-5.4824 14.65214,-5.4824 0.42176,0 8.51713,-3.0379 17.9897,-6.7509 9.47256,-3.7129 25.09785,-9.6832 34.72285,-13.2672 9.625,-3.584 23.6875,-8.9271 31.25,-11.8735 7.5625,-2.9465 21.625,-8.2902 31.25,-11.875 9.625,-3.5848 23.74837,-8.9851 31.38525,-12.0006 7.637,-3.0156 14.2305,-5.4828 14.65225,-5.4828 0.42175,0 8.79837,-3.1358 18.61462,-6.9683 36.89613,-14.4053 43.1085,-16.7817 43.87013,-16.7817 0.43012,0 8.53237,-3.0379 18.00487,-6.7509 9.47263,-3.7129 25.09788,-9.6832 34.72288,-13.2672 9.625,-3.584 23.6875,-8.9271 31.25,-11.8735 7.5625,-2.9465 21.625,-8.2902 31.25,-11.875 9.625,-3.5848 23.74838,-8.9851 31.38525,-12.0006 7.637,-3.0156 14.2305,-5.4828 14.65225,-5.4828 0.42175,0 8.51712,-3.0379 17.98962,-6.7509 9.47263,-3.7129 25.09788,-9.6841 34.72288,-13.2693 33.38725,-12.4362 35.88162,-13.6026 41.21862,-19.2737 4.01663,-4.2682 7.90713,-12.0004 19.29038,-38.3388 7.8425,-18.1458 14.7685,-33.5548 15.39112,-34.2423 1.711,-1.8892 1.66225,-1.7719 -22.25662,53.4843 -2.44863,5.6565 -3.49863,9.3219 -2.50663,8.75 2.6975,-1.5553 680.60135,-482.17128 680.34405,-482.3459 -0.127,-0.0861 -108.2309,7.91735 -240.23092,17.78548 -132,9.86811 -242.8125,17.72465 -246.25,17.45896 -3.4375,-0.26569 -7.972,-0.96677 -10.07663,-1.55796 -6.83925,-1.92116 -474.10975,-271.04168 -471.4035,-271.50089 2.00113,-0.33958 2.15238,-0.65266 0.74525,-1.54336 -1.03962,-0.65811 137.49288,-1.12524 337.04738,-1.13651 205.38287,-0.0116 339.28012,0.43525 340,1.13468 0.65312,0.63459 2.69525,1.33772 4.538,1.5625 2.20837,0.26936 52.65525,39.50693 147.98712,115.10433 123.1426,97.65112 144.924,114.46225 146.571,113.125 1.6593,-1.34719 1.792,-1.21496 0.9336,0.92935 -2.0782,5.19116 -2.0955,6.64424 -0.167,14.08661 1.533,5.91575 1.6905,8.85598 0.6979,13.02679 -1.0161,4.26948 -53.8157,633.83962 -53.7622,641.04872 0.013,1.6841 7.0199,1.4123 58.7613,-2.2796 52.4279,-3.7408 58.9505,-3.9883 60.6373,-2.3016 1.6426,1.6426 1.8475,9.585 1.5652,60.6647 l -0.3247,58.7747 -61.875,-54.3082 c -34.0313,-29.8695 -62.538,-54.3147 -63.3483,-54.3227 -0.8102,-0.01 -2.3168,0.8293 -3.3481,1.8606 -2.0332,2.0332 -3.8689,2.5509 -2.7762,0.783 0.8503,-1.3759 35.5262,7.8828 -321.15242,-85.7506 -169.125,-44.3979 -308.993,-81.5523 -310.81787,-82.5654 -3.65013,-2.0265 -7.30713,-2.427 -7.30713,-0.8004 0,0.573 -0.78863,1.0417 -1.75238,1.0417 -2.23825,0 -564.4407,213.3296 -564.40861,214.1667 0.0131,0.3437 125.41609,77.125 278.67311,170.625 275.22563,167.9113 278.67051,170.0614 280.38601,175 1.66312,4.7879 1.62524,5.007 -0.89313,5.166 -1.4465,0.091 -43.13,9.3219 -92.63,20.5125 -49.5,11.1906 -95.0625,20.8845 -101.25,21.5419 -15.1095,1.6052 -413.54052,2.5882 -412.56998,1.0179 z m 701.0006,-7.9491 c -9.11325,-3.4744 -16.35587,-6.5306 -16.09487,-6.7915 0.441,-0.441 34.533,11.8996 35.68512,12.9172 1.74163,1.5385 -5.09162,-0.5982 -19.59025,-6.1257 z M -526.53787,1678.8353 c 0.0142,-0.5498 3.24864,-3.0296 7.1875,-5.5107 62.07464,-39.1009 67.89608,-42.671 68.53556,-42.0315 0.30648,0.3064 -15.85277,10.9039 -35.90945,23.5499 -43.4242,27.3795 -39.84556,25.223 -39.81361,23.9923 z m 77.5,-48.75 c 0.0142,-0.5498 3.24864,-3.0296 7.1875,-5.5107 62.07464,-39.1009 67.89608,-42.6711 68.53556,-42.0316 0.30648,0.3065 -15.85277,10.904 -35.90945,23.55 -43.4242,27.3795 -39.84556,25.223 -39.81361,23.9923 z m -204.31166,-34.8389 c -0.45978,-1.8319 -0.59489,-3.5718 -0.30024,-3.8664 0.29464,-0.2947 0.91189,0.9631 1.37166,2.795 0.45978,1.8319 0.59489,3.5718 0.30024,3.8664 -0.29464,0.2947 -0.91189,-0.9631 -1.37166,-2.795 z m -2.5,-8.75 c -0.45978,-1.8319 -0.59489,-3.5718 -0.30024,-3.8664 0.29464,-0.2947 0.91189,0.9631 1.37166,2.795 0.45978,1.8319 0.59489,3.5718 0.30024,3.8664 -0.29464,0.2947 -0.91189,-0.9631 -1.37166,-2.795 z m 284.28571,-5.4415 c 0,-0.704 1.82812,-2.2254 4.0625,-3.3808 2.23437,-1.1554 5.46875,-3.0854 7.1875,-4.289 2.82424,-1.9776 32.88566,-20.8903 55.1938,-34.7244 4.81139,-2.9837 8.99874,-5.1741 9.30521,-4.8677 0.30648,0.3065 -15.85277,10.904 -35.90945,23.55 -43.9494,27.7106 -39.83956,25.2645 -39.83956,23.7119 z m -286.78571,-3.3085 c -0.45978,-1.8319 -0.59489,-3.5718 -0.30024,-3.8664 0.29464,-0.2947 0.91189,0.9631 1.37166,2.795 0.45978,1.8319 0.59489,3.5717 0.30024,3.8664 -0.29464,0.2946 -0.91189,-0.9631 -1.37166,-2.795 z m -2.5,-8.75 c -0.45978,-1.8319 -0.59489,-3.5718 -0.30024,-3.8664 0.29464,-0.2947 0.91189,0.9631 1.37166,2.795 0.45978,1.8319 0.59489,3.5717 0.30024,3.8664 -0.29464,0.2946 -0.91189,-0.9631 -1.37166,-2.795 z m -2.5,-8.75 c -0.45978,-1.8319 -0.59489,-3.5718 -0.30024,-3.8664 0.29464,-0.2947 0.91189,0.9631 1.37166,2.795 0.45978,1.8319 0.59489,3.5717 0.30024,3.8664 -0.29464,0.2946 -0.91189,-0.9631 -1.37166,-2.795 z m -2.5,-8.75 c -0.45978,-1.8319 -0.59489,-3.5718 -0.30024,-3.8664 0.29464,-0.2947 0.91189,0.9631 1.37166,2.795 0.45978,1.8319 0.59489,3.5717 0.30024,3.8664 -0.29464,0.2946 -0.91189,-0.9631 -1.37166,-2.795 z m -2.5,-8.75 c -0.45978,-1.8319 -0.59489,-3.5718 -0.30024,-3.8664 0.29464,-0.2947 0.91189,0.9631 1.37166,2.795 0.45978,1.8319 0.59489,3.5717 0.30024,3.8664 -0.29464,0.2946 -0.91189,-0.9631 -1.37166,-2.795 z m -2.5,-8.75 c -0.45978,-1.8319 -0.59489,-3.5718 -0.30024,-3.8664 0.29464,-0.2947 0.91189,0.9631 1.37166,2.795 0.45978,1.8319 0.59489,3.5717 0.30024,3.8664 -0.29464,0.2946 -0.91189,-0.9631 -1.37166,-2.795 z m 376.81166,-1.4111 c 0.0143,-0.5498 3.24864,-3.0296 7.1875,-5.5107 62.07464,-39.1009 67.89607,-42.6711 68.53556,-42.0316 0.30648,0.3065 -15.85277,10.904 -35.90945,23.55 -43.4242,27.3795 -39.84556,25.2229 -39.81361,23.9923 z m -379.31166,-7.3389 c -0.45978,-1.8319 -0.59489,-3.5718 -0.30024,-3.8664 0.29464,-0.2947 0.91189,0.9631 1.37166,2.795 0.45978,1.8319 0.59489,3.5717 0.30024,3.8664 -0.29464,0.2946 -0.91189,-0.9631 -1.37166,-2.795 z m -2.5,-8.75 c -0.45978,-1.8319 -0.59489,-3.5718 -0.30024,-3.8664 0.29464,-0.2947 0.91189,0.9631 1.37166,2.795 0.45978,1.8319 0.59489,3.5717 0.30024,3.8664 -0.29464,0.2946 -0.91189,-0.9631 -1.37166,-2.795 z m -2.5,-8.75 c -0.45978,-1.8319 -0.59489,-3.5718 -0.30024,-3.8664 0.29464,-0.2947 0.91189,0.9631 1.37166,2.795 0.45978,1.8319 0.59489,3.5717 0.30024,3.8664 -0.29464,0.2946 -0.91189,-0.9631 -1.37166,-2.795 z m -2.5,-8.75 c -0.45978,-1.8319 -0.59489,-3.5718 -0.30024,-3.8664 0.29464,-0.2947 0.91189,0.9631 1.37166,2.795 0.45978,1.8319 0.59489,3.5717 0.30024,3.8664 -0.29464,0.2946 -0.91189,-0.9631 -1.37166,-2.795 z m -2.5,-8.75 c -0.45978,-1.8319 -0.59489,-3.5718 -0.30024,-3.8664 0.29464,-0.2947 0.91189,0.9631 1.37166,2.795 0.45978,1.8319 0.59489,3.5717 0.30024,3.8664 -0.29464,0.2946 -0.91189,-0.9631 -1.37166,-2.795 z m -2.5,-8.75 c -0.45978,-1.8319 -0.59489,-3.5718 -0.30024,-3.8664 0.29464,-0.2947 0.91189,0.9631 1.37166,2.795 0.45978,1.8319 0.59489,3.5717 0.30024,3.8664 -0.29464,0.2946 -0.91189,-0.9631 -1.37166,-2.795 z m 469.31166,2.3389 c 0.0143,-0.5498 3.24864,-3.0296 7.1875,-5.5107 62.07464,-39.1009 67.89607,-42.6711 68.53556,-42.0316 0.30648,0.3065 -15.85277,10.904 -35.90945,23.55 -43.4242,27.3795 -39.84556,25.2229 -39.81361,23.9923 z m -471.81166,-11.0889 c -0.45978,-1.8319 -0.59489,-3.5718 -0.30024,-3.8664 0.29464,-0.2947 0.91189,0.9631 1.37166,2.795 0.45978,1.8319 0.59489,3.5717 0.30024,3.8664 -0.29464,0.2946 -0.91189,-0.9631 -1.37166,-2.795 z m -2.5,-8.75 c -0.45978,-1.8319 -0.59489,-3.5718 -0.30024,-3.8664 0.29464,-0.2947 0.91189,0.9631 1.37166,2.795 0.45978,1.8319 0.59489,3.5717 0.30024,3.8664 -0.29464,0.2946 -0.91189,-0.9631 -1.37166,-2.795 z m -3.1156,-11.0566 c -0.0543,-1.3177 0.24116,-2.0559 0.65652,-1.6406 0.41536,0.4154 0.45976,1.4935 0.0986,2.3959 -0.39903,0.9971 -0.69523,0.7009 -0.7552,-0.7553 z m -2.5,-8.75 c -0.0543,-1.3177 0.24116,-2.0559 0.65652,-1.6406 0.41536,0.4154 0.45976,1.4935 0.0986,2.3959 -0.39903,0.9971 -0.69523,0.7009 -0.7552,-0.7553 z m -2.5,-8.75 c -0.0543,-1.3177 0.24116,-2.0559 0.65652,-1.6406 0.41536,0.4154 0.45976,1.4935 0.0986,2.3959 -0.39903,0.9971 -0.69523,0.7009 -0.7552,-0.7553 z m -2.5,-8.75 c -0.0543,-1.3177 0.24116,-2.0559 0.65652,-1.6406 0.41536,0.4154 0.45976,1.4935 0.0986,2.3959 -0.39903,0.9971 -0.69523,0.7009 -0.7552,-0.7553 z m -2.5,-8.75 c -0.0543,-1.3177 0.24116,-2.0559 0.65652,-1.6406 0.41536,0.4154 0.45976,1.4935 0.0986,2.3959 -0.39903,0.9971 -0.69523,0.7009 -0.7552,-0.7553 z m -2.5,-8.75 c -0.0543,-1.3177 0.24116,-2.0559 0.65652,-1.6406 0.41536,0.4154 0.45976,1.4935 0.0986,2.3959 -0.39903,0.9971 -0.69523,0.7009 -0.7552,-0.7553 z m -2.5,-8.75 c -0.0543,-1.3177 0.24116,-2.0559 0.65652,-1.6406 0.41536,0.4154 0.45976,1.4935 0.0986,2.3959 -0.39903,0.9971 -0.69523,0.7009 -0.7552,-0.7553 z m -2.5,-8.75 c -0.0543,-1.3177 0.24116,-2.0559 0.65652,-1.6406 0.41536,0.4154 0.45976,1.4935 0.0986,2.3959 -0.39903,0.9971 -0.69523,0.7009 -0.7552,-0.7553 z m -2.5,-8.75 c -0.0543,-1.3177 0.24116,-2.0559 0.65652,-1.6406 0.41536,0.4154 0.45976,1.4935 0.0986,2.3959 -0.39903,0.9971 -0.69523,0.7009 -0.7552,-0.7553 z m -2.5,-8.75 c -0.0543,-1.3177 0.24116,-2.0559 0.65652,-1.6406 0.41536,0.4154 0.45976,1.4935 0.0986,2.3959 -0.39903,0.9971 -0.69523,0.7009 -0.7552,-0.7553 z m -2.5,-8.75 c -0.0543,-1.3177 0.24116,-2.0559 0.65652,-1.6406 0.41536,0.4154 0.45976,1.4935 0.0986,2.3959 -0.39903,0.9971 -0.69523,0.7009 -0.7552,-0.7553 z m -2.5,-8.75 c -0.0543,-1.3177 0.24116,-2.0559 0.65652,-1.6406 0.41536,0.4154 0.45976,1.4935 0.0986,2.3959 -0.39903,0.9971 -0.69523,0.7009 -0.7552,-0.7553 z m 1848.70853,-0.8362 c 0.7674,-1.4339 1.6443,-2.3581 1.9485,-2.0539 0.8749,0.8749 -0.8987,4.661 -2.1835,4.661 -0.6385,0 -0.5328,-1.1723 0.235,-2.6071 z m -1851.20853,-7.9138 c -0.0543,-1.3177 0.24116,-2.0559 0.65652,-1.6406 0.41536,0.4154 0.45977,1.4935 0.0986,2.3959 -0.39903,0.9971 -0.69523,0.7009 -0.7552,-0.7553 z m 387.73985,-5.2343 c 0.41536,-0.4154 1.4935,-0.4598 2.39583,-0.099 0.99717,0.399 0.70098,0.6952 -0.75521,0.7552 -1.3177,0.054 -2.05598,-0.2412 -1.64062,-0.6566 z m -6.25,-1.25 c 0.41536,-0.4154 1.4935,-0.4598 2.39583,-0.099 0.99717,0.399 0.70098,0.6952 -0.75521,0.7552 -1.3177,0.054 -2.05598,-0.2412 -1.64062,-0.6566 z m -383.98985,-2.2657 c -0.0543,-1.3177 0.24116,-2.0559 0.65652,-1.6406 0.41536,0.4154 0.45977,1.4935 0.0986,2.3959 -0.39903,0.9971 -0.69523,0.7009 -0.7552,-0.7553 z m 377.73985,1.0157 c 0.41536,-0.4154 1.4935,-0.4598 2.39583,-0.099 0.99717,0.399 0.70098,0.6952 -0.75521,0.7552 -1.3177,0.054 -2.05598,-0.2412 -1.64062,-0.6566 z m -6.25,-1.25 c 0.41536,-0.4154 1.4935,-0.4598 2.39583,-0.099 0.99717,0.399 0.70098,0.6952 -0.75521,0.7552 -1.3177,0.054 -2.05598,-0.2412 -1.64062,-0.6566 z m -6.25,-1.25 c 0.41536,-0.4154 1.4935,-0.4598 2.39583,-0.099 0.99717,0.399 0.70098,0.6952 -0.75521,0.7552 -1.3177,0.054 -2.05598,-0.2412 -1.64062,-0.6566 z m -6.25,-1.25 c 0.41536,-0.4154 1.4935,-0.4598 2.39583,-0.099 0.99717,0.399 0.70098,0.6952 -0.75521,0.7552 -1.3177,0.054 -2.05598,-0.2412 -1.64062,-0.6566 z m -6.25,-1.25 c 0.41536,-0.4154 1.4935,-0.4598 2.39583,-0.099 0.99717,0.399 0.70098,0.6952 -0.75521,0.7552 -1.3177,0.054 -2.05598,-0.2412 -1.64062,-0.6566 z m -6.25,-1.25 c 0.41536,-0.4154 1.4935,-0.4598 2.39583,-0.099 0.99717,0.399 0.70098,0.6952 -0.75521,0.7552 -1.3177,0.054 -2.05598,-0.2412 -1.64062,-0.6566 z m -5.65104,-1.3227 c 0.85937,-0.3467 2.26562,-0.3467 3.125,0 0.85937,0.3468 0.15625,0.6305 -1.5625,0.6305 -1.71875,0 -2.42188,-0.2837 -1.5625,-0.6305 z m -343.33881,-2.193 c -0.0543,-1.3177 0.24116,-2.0559 0.65652,-1.6406 0.41536,0.4154 0.45977,1.4935 0.0986,2.3959 -0.39903,0.9971 -0.69523,0.7009 -0.7552,-0.7553 z m 337.08881,0.943 c 0.85937,-0.3467 2.26562,-0.3467 3.125,0 0.85937,0.3468 0.15625,0.6305 -1.5625,0.6305 -1.71875,0 -2.42188,-0.2837 -1.5625,-0.6305 z m -6.25,-1.25 c 0.85937,-0.3467 2.26562,-0.3467 3.125,0 0.85937,0.3468 0.15625,0.6305 -1.5625,0.6305 -1.71875,0 -2.42188,-0.2837 -1.5625,-0.6305 z m -6.25,-1.25 c 0.85937,-0.3467 2.26562,-0.3467 3.125,0 0.85937,0.3468 0.15625,0.6305 -1.5625,0.6305 -1.71875,0 -2.42188,-0.2837 -1.5625,-0.6305 z m -6.25,-1.25 c 0.85937,-0.3467 2.26562,-0.3467 3.125,0 0.85937,0.3468 0.15625,0.6305 -1.5625,0.6305 -1.71875,0 -2.42188,-0.2837 -1.5625,-0.6305 z m -6.25,-1.25 c 0.85937,-0.3467 2.26562,-0.3467 3.125,0 0.85937,0.3468 0.15625,0.6305 -1.5625,0.6305 -1.71875,0 -2.42188,-0.2837 -1.5625,-0.6305 z m -55.9375,-10.5154 c -27.15625,-5.4128 -96.90625,-19.1602 -155,-30.5498 -58.09375,-11.3895 -107.875,-21.3155 -110.625,-22.0578 -4.61199,-1.2449 -4.77779,-1.4334 -2.1365,-2.428 2.07556,-0.7816 46.44604,7.8663 161.25,31.4278 87.11258,17.8783 158.949,32.7305 159.6365,33.0049 4.3891,1.7515 -9.6618,-0.7339 -53.125,-9.3971 z m -258.65131,5.8224 c -0.0543,-1.3177 0.24116,-2.0559 0.65652,-1.6406 0.41536,0.4154 0.45976,1.4935 0.0986,2.3958 -0.39903,0.9972 -0.69523,0.701 -0.7552,-0.7552 z m -2.5,-8.75 c -0.0543,-1.3177 0.24116,-2.0559 0.65652,-1.6406 0.41536,0.4154 0.45976,1.4935 0.0986,2.3958 -0.39903,0.9972 -0.69523,0.701 -0.7552,-0.7552 z m -2.5,-8.75 c -0.0543,-1.3177 0.24116,-2.0559 0.65652,-1.6406 0.41536,0.4154 0.45976,1.4935 0.0986,2.3958 -0.39903,0.9972 -0.69523,0.701 -0.7552,-0.7552 z m -2.5,-8.75 c -0.0543,-1.3177 0.24116,-2.0559 0.65652,-1.6406 0.41536,0.4154 0.45976,1.4935 0.0986,2.3958 -0.39903,0.9972 -0.69523,0.701 -0.7552,-0.7552 z m -2.5,-8.75 c -0.0543,-1.3177 0.24116,-2.0559 0.65652,-1.6406 0.41536,0.4154 0.45976,1.4935 0.0986,2.3958 -0.39903,0.9972 -0.69523,0.701 -0.7552,-0.7552 z m -2.5,-8.75 c -0.0543,-1.3177 0.24116,-2.0559 0.65652,-1.6406 0.41536,0.4154 0.45976,1.4935 0.0986,2.3958 -0.39903,0.9972 -0.69523,0.701 -0.7552,-0.7552 z m 1232.90731,-41.3541 c 0,-11 0.19275,-15.3327 0.425,-9.6282 0.23212,5.7046 0.23075,14.7046 0,20 -0.23375,5.2955 -0.42375,0.6282 -0.42213,-10.3718 z m -1247.90731,-31.1459 c -0.0543,-1.3177 0.24116,-2.0559 0.65652,-1.6406 0.41536,0.4154 0.45977,1.4935 0.0986,2.3959 -0.39903,0.9971 -0.69523,0.7009 -0.7552,-0.7553 z m -8.1344,-25.1934 c -0.45978,-1.8319 -0.59489,-3.5718 -0.30024,-3.8664 0.29464,-0.2947 0.91189,0.9631 1.37166,2.795 0.45978,1.8319 0.59489,3.5717 0.30024,3.8664 -0.29464,0.2946 -0.91189,-0.9631 -1.37166,-2.795 z m 1226.78571,-13.2228 c -13.40625,-3.4689 -54.9265,-13.9746 -92.26712,-23.346 -37.34075,-9.3713 -67.41576,-17.1976 -66.8335,-17.3917 1.47237,-0.4908 183.90025,44.4268 186.4265,45.9021 4.27787,2.4983 -3.10363,1.1032 -27.32588,-5.1644 z m -1234.28571,-10.5272 c -0.45978,-1.8319 -0.59489,-3.5718 -0.30024,-3.8664 0.29464,-0.2947 0.91189,0.9631 1.37166,2.795 0.45978,1.8319 0.59489,3.5717 0.30024,3.8664 -0.29464,0.2946 -0.91189,-0.9631 -1.37166,-2.795 z m -8.75,-27.5 c -0.45978,-1.8319 -0.59489,-3.5718 -0.30024,-3.8664 0.29464,-0.2947 0.91189,0.9631 1.37166,2.795 0.45978,1.8319 0.59489,3.5717 0.30024,3.8664 -0.29464,0.2946 -0.91189,-0.9631 -1.37166,-2.795 z m 1078.37421,-3.7909 c 0.41538,-0.4154 1.4935,-0.4598 2.39587,-0.099 0.99713,0.399 0.701,0.6952 -0.75525,0.7552 -1.31762,0.054 -2.056,-0.2412 -1.64062,-0.6565 z m -5,-1.25 c 0.41538,-0.4154 1.4935,-0.4598 2.39587,-0.099 0.99713,0.399 0.701,0.6952 -0.75525,0.7552 -1.31762,0.054 -2.056,-0.2412 -1.64062,-0.6565 z m -5,-1.25 c 0.41538,-0.4154 1.4935,-0.4598 2.39587,-0.099 0.99713,0.399 0.701,0.6952 -0.75525,0.7552 -1.31762,0.054 -2.056,-0.2412 -1.64062,-0.6565 z m -5,-1.25 c 0.41538,-0.4154 1.4935,-0.4598 2.39587,-0.099 0.99713,0.399 0.701,0.6952 -0.75525,0.7552 -1.31762,0.054 -2.056,-0.2412 -1.64062,-0.6565 z m -5,-1.25 c 0.41537,-0.4154 1.4935,-0.4598 2.39587,-0.099 0.99713,0.399 0.701,0.6952 -0.75525,0.7552 -1.31762,0.054 -2.056,-0.2412 -1.64062,-0.6565 z m -5,-1.25 c 0.41537,-0.4154 1.4935,-0.4598 2.39587,-0.099 0.99713,0.399 0.701,0.6952 -0.75525,0.7552 -1.31762,0.054 -2.056,-0.2412 -1.64062,-0.6565 z m -5,-1.25 c 0.41537,-0.4154 1.4935,-0.4598 2.39587,-0.099 0.99713,0.399 0.701,0.6952 -0.75525,0.7552 -1.31762,0.054 -2.056,-0.2412 -1.64062,-0.6565 z m -5,-1.25 c 0.41537,-0.4154 1.4935,-0.4598 2.39587,-0.099 0.99713,0.399 0.701,0.6952 -0.75525,0.7552 -1.31762,0.054 -2.056,-0.2412 -1.64062,-0.6565 z m -5,-1.25 c 0.41537,-0.4154 1.4935,-0.4598 2.39587,-0.099 0.99713,0.399 0.701,0.6952 -0.75525,0.7552 -1.31762,0.054 -2.056,-0.2412 -1.64062,-0.6565 z m -11.5885,-2.3698 c -3.09375,-0.8963 -4.78125,-1.674 -3.75,-1.7282 1.03125,-0.054 4.6875,0.684 8.125,1.6405 3.4375,0.9565 5.125,1.7342 3.75,1.7282 -1.375,-0.01 -5.03125,-0.7443 -8.125,-1.6405 z m -14.6615,-3.8802 c 0.41537,-0.4154 1.4935,-0.4598 2.39587,-0.099 0.99713,0.399 0.701,0.6952 -0.75525,0.7552 -1.31762,0.054 -2.056,-0.2412 -1.64062,-0.6565 z m -1020.22486,-5.6085 c -0.8453,-2.8213 -1.3068,-5.3598 -1.02555,-5.6411 0.28125,-0.2812 1.20297,1.7971 2.04827,4.6184 0.8453,2.8214 1.3068,5.3599 1.02555,5.6411 -0.28125,0.2813 -1.20297,-1.797 -2.04827,-4.6184 z m 1015.22486,4.3585 c 0.41537,-0.4154 1.4935,-0.4598 2.39587,-0.099 0.99713,0.399 0.701,0.6952 -0.75525,0.7552 -1.31762,0.054 -2.056,-0.2412 -1.64062,-0.6565 z m -5,-1.25 c 0.41537,-0.4154 1.4935,-0.4598 2.39587,-0.099 0.99713,0.399 0.701,0.6952 -0.75525,0.7552 -1.31762,0.054 -2.056,-0.2412 -1.64062,-0.6565 z m -5,-1.25 c 0.41537,-0.4154 1.4935,-0.4598 2.39587,-0.099 0.99713,0.399 0.701,0.6952 -0.75525,0.7552 -1.31762,0.054 -2.056,-0.2412 -1.64062,-0.6565 z m -5,-1.25 c 0.41537,-0.4154 1.4935,-0.4598 2.39587,-0.099 0.99713,0.399 0.701,0.6952 -0.75525,0.7552 -1.31762,0.054 -2.056,-0.2412 -1.64062,-0.6565 z m -5,-1.25 c 0.41537,-0.4154 1.4935,-0.4598 2.39587,-0.099 0.99713,0.399 0.701,0.6952 -0.75525,0.7552 -1.31762,0.054 -2.056,-0.2412 -1.64062,-0.6565 z m -5,-1.25 c 0.41537,-0.4154 1.4935,-0.4598 2.39587,-0.099 0.99713,0.399 0.701,0.6952 -0.75525,0.7552 -1.31762,0.054 -2.056,-0.2412 -1.64062,-0.6565 z m -5,-1.25 c 0.41537,-0.4154 1.4935,-0.4598 2.39587,-0.099 0.99713,0.399 0.701,0.6952 -0.75525,0.7552 -1.31762,0.054 -2.056,-0.2412 -1.64062,-0.6565 z m 336.67237,-1.5561 c 0.98801,-3.941 6.55113,-16.4387 7.31738,-16.4387 0.766,0 -0.66088,3.7086 -4.80925,12.5 -1.78425,3.7812 -2.91288,5.5537 -2.50813,3.9387 z m -341.67237,0.3061 c 0.41537,-0.4154 1.4935,-0.4598 2.39587,-0.099 0.99713,0.399 0.701,0.6952 -0.75525,0.7552 -1.31762,0.054 -2.056,-0.2412 -1.64062,-0.6565 z m -5,-1.25 c 0.41537,-0.4154 1.4935,-0.4598 2.39587,-0.099 0.99713,0.399 0.701,0.6952 -0.75525,0.7552 -1.31762,0.054 -2.056,-0.2412 -1.64062,-0.6565 z m -5,-1.25 c 0.41537,-0.4154 1.4935,-0.4598 2.39587,-0.099 0.99713,0.399 0.701,0.6952 -0.75525,0.7552 -1.31762,0.054 -2.056,-0.2412 -1.64062,-0.6565 z m -5,-1.25 c 0.41537,-0.4154 1.4935,-0.4598 2.39587,-0.099 0.99713,0.399 0.701,0.6952 -0.75525,0.7552 -1.31762,0.054 -2.056,-0.2412 -1.64062,-0.6565 z m -972.12421,-13.7091 c -0.45978,-1.8319 -0.59489,-3.5718 -0.30024,-3.8664 0.29464,-0.2947 0.91189,0.9631 1.37166,2.795 0.45978,1.8319 0.59489,3.5717 0.30024,3.8664 -0.29464,0.2946 -0.91189,-0.9631 -1.37166,-2.795 z m 1336.85771,-0.929 c -0.1075,-1.5256 5.19512,-13.5063 5.738,-12.9634 0.25812,0.2582 -0.911,3.5097 -2.59825,7.2256 -1.68725,3.7158 -3.10013,6.2979 -3.13975,5.7378 z m 7.46625,-17.7317 c 0,-0.6875 0.54525,-2.0938 1.21175,-3.125 0.6665,-1.0313 1.21175,-1.3125 1.21175,-0.625 0,0.6875 -0.54525,2.0937 -1.21175,3.125 -0.6665,1.0312 -1.21175,1.3125 -1.21175,0.625 z m -1353.03825,-8.875 c -1.20835,-3.8333 -1.972,-7.1947 -1.697,-7.4697 0.275,-0.275 1.48865,2.6364 2.697,6.4697 1.20835,3.8333 1.972,7.1947 1.697,7.4697 -0.275,0.275 -1.48865,-2.6364 -2.697,-6.4697 z m 1358,-3.3861 c 0,-0.8999 0.836,-2.728 1.85787,-4.0625 1.69963,-2.2199 1.74238,-2.0806 0.50263,1.6361 -1.41488,4.2418 -2.3605,5.2138 -2.3605,2.4264 z m 3.78825,-7.7389 c 0,-0.6875 0.54525,-2.0938 1.21175,-3.125 0.6665,-1.0313 1.21175,-1.3125 1.21175,-0.625 0,0.6875 -0.54525,2.0937 -1.21175,3.125 -0.6665,1.0312 -1.21175,1.3125 -1.21175,0.625 z m -1369.28825,-12.625 c -1.20835,-3.8333 -1.972,-7.1947 -1.697,-7.4697 0.275,-0.275 1.48865,2.6364 2.697,6.4697 1.20835,3.8333 1.972,7.1947 1.697,7.4697 -0.275,0.275 -1.48865,-2.6364 -2.697,-6.4697 z m 1373.03825,3.875 c 0,-0.6875 0.54525,-2.0938 1.21175,-3.125 0.6665,-1.0313 1.21175,-1.3125 1.21175,-0.625 0,0.6875 -0.54525,2.0937 -1.21175,3.125 -0.6665,1.0312 -1.21175,1.3125 -1.21175,0.625 z m 3.75,-8.75 c 0,-0.6875 0.54525,-2.0938 1.21175,-3.125 0.6665,-1.0313 1.21175,-1.3125 1.21175,-0.625 0,0.6875 -0.54525,2.0937 -1.21175,3.125 -0.6665,1.0312 -1.21175,1.3125 -1.21175,0.625 z m -1384.90668,-20.7566 c -1.56317,-4.85349 -2.62007,-9.04657 -2.34867,-9.31796 0.2713,-0.27137 1.77235,3.47763 3.33552,8.33116 1.56317,4.8535 2.62009,9.0465 2.34872,9.3179 -0.27139,0.2714 -1.77239,-3.4776 -3.33557,-8.3311 z m 1393.65668,0.7566 c 0,-0.6875 0.54525,-2.0938 1.21175,-3.125 0.6665,-1.0313 1.21175,-1.3125 1.21175,-0.625 0,0.6875 -0.54525,2.0937 -1.21175,3.125 -0.6665,1.0312 -1.21175,1.3125 -1.21175,0.625 z m 3.75,-8.75002 c 0,-0.6875 0.54525,-2.09375 1.21175,-3.125 0.6665,-1.03125 1.21175,-1.3125 1.21175,-0.625 0,0.6875 -0.54525,2.09375 -1.21175,3.125 -0.6665,1.03125 -1.21175,1.3125 -1.21175,0.625 z M -830.80292,978.9498 c -1.9141,-5.87755 -3.2601,-10.90657 -2.9911,-11.17559 0.269,-0.26902 2.0552,4.31978 3.9693,10.19734 1.9141,5.87756 3.2601,10.90658 2.9911,11.1756 -0.269,0.26902 -2.0552,-4.31978 -3.9693,-10.19735 z m 1409.27735,8.88588 c 0,-0.6875 0.54525,-2.09375 1.21175,-3.125 0.6665,-1.03125 1.21175,-1.3125 1.21175,-0.625 0,0.6875 -0.54525,2.09375 -1.21175,3.125 -0.6665,1.03125 -1.21175,1.3125 -1.21175,0.625 z m -894.59421,-11.27085 c -0.40014,-1.04271 -0.4699,-3.24345 -0.15504,-4.89053 0.31485,-1.64706 62.89723,-120.60568 139.07192,-264.35248 119.95902,-226.37074 139.00306,-261.60904 142.26132,-263.23448 3.15137,-1.57211 11.6419,-1.87666 52.31981,-1.87666 31.53864,0 48.55795,0.43812 48.55795,1.25 0,0.6875 0.99942,1.25 2.22094,1.25 1.70333,0 22.518947,40.85659 89.31819,175.3125 71.4465,143.81025 87.61287,175.45857 89.9665,176.1254 2.775,0.78615 2.78087,0.817 0.18037,0.9375 -1.62912,0.0755 -3.63487,1.72589 -5.08875,4.1871 -2.38575,4.03907 -3.96712,4.56165 -274.25114,90.625 -277.31441,88.30196 -282.42344,89.82292 -284.40207,84.66665 z M -1137.8138,814.62139 c 0,-140.00751 0.2505,-162.83982 1.8039,-164.39315 1.5718,-1.57182 18.4153,10.99768 130.9375,97.7124 71.02348,54.73395 130.14808,100.72649 131.38818,102.20565 1.24,1.47917 2.9764,3.57313 3.8587,4.65324 1.7036,2.08546 27.4598,82.37966 26.6765,83.16298 -0.2534,0.25348 -6.2928,-17.81198 -13.4208,-40.14548 -11.4943,-36.01429 -13.2516,-40.60589 -15.5394,-40.60227 -1.4188,0.002 -61.5982,27.00223 -133.73208,60 -72.1339,32.99776 -131.337,59.99592 -131.5625,59.99592 -0.2255,0 -0.41,-73.16518 -0.41,-162.58929 z m 298.88158,138.70771 c -1.5632,-4.8535 -2.6201,-9.04657 -2.3487,-9.31796 0.2713,-0.27137 1.7723,3.47763 3.3355,8.33111 1.5632,4.8535 2.6201,9.04658 2.3487,9.31797 -0.2714,0.27137 -1.7724,-3.47763 -3.3355,-8.33112 z m 1433.65665,-2.99342 c 0,-0.6875 0.54525,-2.09375 1.21175,-3.125 0.6665,-1.03125 1.21175,-1.3125 1.21175,-0.625 0,0.6875 -0.54525,2.09375 -1.21175,3.125 -0.6665,1.03125 -1.21175,1.3125 -1.21175,0.625 z M 1227.3805,779.52966 c -17.4245,-43.9995 -31.3597,-80.32033 -30.967,-80.71294 0.3926,-0.39263 1.0732,0.35102 1.5123,1.65255 1.5114,4.47882 18.2299,47.37567 21.14,54.24141 7.6543,18.05872 40.656,103.00711 40.3468,103.85485 -0.1933,0.52976 -14.6078,-35.03637 -32.0321,-79.03587 z m -974.85582,15.67581 c 0.41537,-0.41536 1.4935,-0.45976 2.39587,-0.0986 0.99713,0.39903 0.701,0.69523 -0.75525,0.7552 -1.31762,0.0542 -2.056,-0.24116 -1.64062,-0.65652 z m 6.849,-1.32264 c 0.85937,-0.34676 2.26562,-0.34676 3.125,0 0.85937,0.34676 0.15625,0.63049 -1.5625,0.63049 -1.71875,0 -2.42188,-0.28373 -1.5625,-0.63049 z m 6.25,-1.25 c 0.85937,-0.34676 2.26562,-0.34676 3.125,0 0.85937,0.34676 0.15625,0.63049 -1.5625,0.63049 -1.71875,0 -2.42188,-0.28373 -1.5625,-0.63049 z m 7.5,-1.25 c 0.85937,-0.34676 2.26562,-0.34676 3.125,0 0.85938,0.34676 0.15625,0.63049 -1.5625,0.63049 -1.71875,0 -2.42188,-0.28373 -1.5625,-0.63049 z m 6.25,-1.25 c 0.85938,-0.34676 2.26563,-0.34676 3.125,0 0.85938,0.34676 0.15625,0.63049 -1.5625,0.63049 -1.71875,0 -2.42187,-0.28373 -1.5625,-0.63049 z m 6.901,-1.17736 c 0.41538,-0.41536 1.4935,-0.45976 2.39588,-0.0986 0.99712,0.39903 0.701,0.69523 -0.75525,0.7552 -1.31763,0.0542 -2.056,-0.24116 -1.64063,-0.65652 z m 6.849,-1.32264 c 0.85938,-0.34676 2.26563,-0.34676 3.125,0 0.85938,0.34676 0.15625,0.63049 -1.5625,0.63049 -1.71875,0 -2.42187,-0.28373 -1.5625,-0.63049 z m 6.901,-1.17736 c 0.41538,-0.41536 1.4935,-0.45976 2.39588,-0.0986 0.99712,0.39903 0.701,0.69523 -0.75525,0.7552 -1.31763,0.0542 -2.056,-0.24116 -1.64063,-0.65652 z m 6.849,-1.32264 c 0.85938,-0.34676 2.26563,-0.34676 3.125,0 0.85938,0.34676 0.15625,0.63049 -1.5625,0.63049 -1.71875,0 -2.42187,-0.28373 -1.5625,-0.63049 z m 6.901,-1.17736 c 0.41538,-0.41536 1.4935,-0.45976 2.39588,-0.0986 0.99712,0.39903 0.701,0.69523 -0.75525,0.7552 -1.31763,0.0542 -2.056,-0.24116 -1.64063,-0.65652 z m 6.849,-1.32264 c 0.85938,-0.34676 2.26563,-0.34676 3.125,0 0.85938,0.34676 0.15625,0.63049 -1.5625,0.63049 -1.71875,0 -2.42187,-0.28373 -1.5625,-0.63049 z m 6.25,-1.25 c 0.85938,-0.34676 2.26563,-0.34676 3.125,0 0.85938,0.34676 0.15625,0.63049 -1.5625,0.63049 -1.71875,0 -2.42187,-0.28373 -1.5625,-0.63049 z m 6.901,-1.17736 c 0.41538,-0.41536 1.4935,-0.45976 2.39588,-0.0986 0.99712,0.39903 0.701,0.69523 -0.75525,0.7552 -1.31763,0.0542 -2.056,-0.24116 -1.64063,-0.65652 z m 6.849,-1.32264 c 0.85938,-0.34676 2.26563,-0.34676 3.125,0 0.85938,0.34676 0.15625,0.63049 -1.5625,0.63049 -1.71875,0 -2.42187,-0.28373 -1.5625,-0.63049 z m 6.901,-1.17736 c 0.41538,-0.41536 1.4935,-0.45976 2.39588,-0.0986 0.99712,0.39903 0.701,0.69523 -0.75525,0.7552 -1.31763,0.0542 -2.056,-0.24116 -1.64063,-0.65652 z m 6.25,-1.25 c 0.41538,-0.41536 1.4935,-0.45976 2.39588,-0.0986 0.99712,0.39903 0.701,0.69523 -0.75525,0.7552 -1.31763,0.0542 -2.056,-0.24116 -1.64063,-0.65652 z m 7.5,-1.25 c 0.41538,-0.41536 1.4935,-0.45976 2.39588,-0.0986 0.99712,0.39903 0.701,0.69523 -0.75525,0.7552 -1.31763,0.0542 -2.056,-0.24116 -1.64063,-0.65652 z m 6.25,-1.25 c 0.41538,-0.41536 1.4935,-0.45976 2.39588,-0.0986 0.99712,0.39903 0.701,0.69523 -0.75525,0.7552 -1.31763,0.0542 -2.056,-0.24116 -1.64063,-0.65652 z m 6.849,-1.32264 c 0.85938,-0.34676 2.26563,-0.34676 3.125,0 0.85938,0.34676 0.15625,0.63049 -1.5625,0.63049 -1.71875,0 -2.42187,-0.28373 -1.5625,-0.63049 z m 6.901,-1.17736 c 0.41538,-0.41536 1.4935,-0.45976 2.39588,-0.0986 0.99712,0.39903 0.701,0.69523 -0.75525,0.7552 -1.31763,0.0542 -2.056,-0.24116 -1.64063,-0.65652 z m 6.849,-1.32264 c 0.85938,-0.34676 2.26563,-0.34676 3.125,0 0.85938,0.34676 0.15625,0.63049 -1.5625,0.63049 -1.71875,0 -2.42187,-0.28373 -1.5625,-0.63049 z m 6.901,-1.17736 c 0.41538,-0.41536 1.4935,-0.45976 2.39588,-0.0986 0.99712,0.39903 0.701,0.69523 -0.75525,0.7552 -1.31763,0.0542 -2.056,-0.24116 -1.64063,-0.65652 z m 6.25,-1.25 c 0.41538,-0.41536 1.4935,-0.45976 2.39588,-0.0986 0.99712,0.39903 0.701,0.69523 -0.75525,0.7552 -1.31763,0.0542 -2.056,-0.24116 -1.64063,-0.65652 z m 7.5,-1.25 c 0.41538,-0.41536 1.4935,-0.45976 2.39588,-0.0986 0.99712,0.39903 0.701,0.69523 -0.75525,0.7552 -1.31763,0.0542 -2.056,-0.24116 -1.64063,-0.65652 z m 6.25,-1.25 c 0.41538,-0.41536 1.4935,-0.45976 2.39588,-0.0986 0.99712,0.39903 0.701,0.69523 -0.75525,0.7552 -1.31763,0.0542 -2.056,-0.24116 -1.64063,-0.65652 z m 6.849,-1.32264 c 0.85938,-0.34676 2.26563,-0.34676 3.125,0 0.85938,0.34676 0.15625,0.63049 -1.5625,0.63049 -1.71875,0 -2.42187,-0.28373 -1.5625,-0.63049 z m 6.901,-1.17736 c 0.41538,-0.41536 1.4935,-0.45976 2.39588,-0.0986 0.99712,0.39903 0.701,0.69523 -0.75525,0.7552 -1.31763,0.0542 -2.056,-0.24116 -1.64063,-0.65652 z m 6.25,-1.25 c 0.41538,-0.41536 1.4935,-0.45976 2.39588,-0.0986 0.99712,0.39903 0.701,0.69523 -0.75525,0.7552 -1.31763,0.0542 -2.056,-0.24116 -1.64063,-0.65652 z m 7.5,-1.25 c 0.41538,-0.41536 1.4935,-0.45976 2.39588,-0.0986 0.99712,0.39903 0.701,0.69523 -0.75525,0.7552 -1.31763,0.0542 -2.056,-0.24116 -1.64063,-0.65652 z m 6.25,-1.25 c 0.41538,-0.41536 1.4935,-0.45976 2.39588,-0.0986 0.99712,0.39903 0.701,0.69523 -0.75525,0.7552 -1.31763,0.0542 -2.056,-0.24116 -1.64063,-0.65652 z m 13.75,-2.5 c 0.41538,-0.41536 1.4935,-0.45976 2.39588,-0.0986 0.99712,0.39903 0.701,0.69523 -0.75525,0.7552 -1.31763,0.0542 -2.056,-0.24116 -1.64063,-0.65652 z m 13.75,-2.5 c 0.41538,-0.41536 1.4935,-0.45976 2.39588,-0.0986 0.99712,0.39903 0.701,0.69523 -0.75525,0.7552 -1.31763,0.0542 -2.056,-0.24116 -1.64063,-0.65652 z m 6.25,-1.25 c 0.41538,-0.41536 1.4935,-0.45976 2.39588,-0.0986 0.99712,0.39903 0.701,0.69523 -0.75525,0.7552 -1.31763,0.0542 -2.056,-0.24116 -1.64063,-0.65652 z m 7.5,-1.25 c 0.41538,-0.41536 1.4935,-0.45976 2.39588,-0.0986 0.99712,0.39903 0.701,0.69523 -0.75525,0.7552 -1.31763,0.0542 -2.056,-0.24116 -1.64063,-0.65652 z m 6.25,-1.25 c 0.41538,-0.41536 1.4935,-0.45976 2.39588,-0.0986 0.99712,0.39903 0.701,0.69523 -0.75525,0.7552 -1.31763,0.0542 -2.056,-0.24116 -1.64063,-0.65652 z m 13.75,-2.5 c 0.41538,-0.41536 1.4935,-0.45976 2.39588,-0.0986 0.99712,0.39903 0.701,0.69523 -0.75525,0.7552 -1.31763,0.0542 -2.056,-0.24116 -1.64063,-0.65652 z m 13.75,-2.5 c 0.41538,-0.41536 1.4935,-0.45976 2.39588,-0.0986 0.99712,0.39903 0.701,0.69523 -0.75525,0.7552 -1.31763,0.0542 -2.056,-0.24116 -1.64063,-0.65652 z m 6.25,-1.25 c 0.41538,-0.41536 1.4935,-0.45976 2.39588,-0.0986 0.99712,0.39903 0.701,0.69523 -0.75525,0.7552 -1.31763,0.0542 -2.056,-0.24116 -1.64063,-0.65652 z m 13.75,-2.5 c 0.41538,-0.41536 1.4935,-0.45976 2.39588,-0.0986 0.99712,0.39903 0.701,0.69523 -0.75525,0.7552 -1.31763,0.0542 -2.056,-0.24116 -1.64063,-0.65652 z m 13.75,-2.5 c 0.41538,-0.41536 1.4935,-0.45976 2.39588,-0.0986 0.99712,0.39903 0.701,0.69523 -0.75525,0.7552 -1.31763,0.0542 -2.056,-0.24116 -1.64063,-0.65652 z m 13.75,-2.5 c 0.41538,-0.41536 1.4935,-0.45976 2.39588,-0.0986 0.99712,0.39903 0.701,0.69523 -0.75525,0.7552 -1.31763,0.0542 -2.056,-0.24116 -1.64063,-0.65652 z m 6.25,-1.25 c 0.41538,-0.41536 1.4935,-0.45976 2.39588,-0.0986 0.99712,0.39903 0.701,0.69523 -0.75525,0.7552 -1.31763,0.0542 -2.056,-0.24116 -1.64063,-0.65652 z m 13.75,-2.5 c 0.41538,-0.41536 1.4935,-0.45976 2.39588,-0.0986 0.99712,0.39903 0.701,0.69523 -0.75525,0.7552 -1.31763,0.0542 -2.056,-0.24116 -1.64063,-0.65652 z m 13.75,-2.5 c 0.41538,-0.41536 1.4935,-0.45976 2.39588,-0.0986 0.99712,0.39903 0.701,0.69523 -0.75525,0.7552 -1.31763,0.0542 -2.056,-0.24116 -1.64063,-0.65652 z m 33.75,-6.25 c 0.41538,-0.41536 1.4935,-0.45976 2.39588,-0.0986 0.99712,0.39903 0.701,0.69523 -0.75525,0.7552 -1.31763,0.0542 -2.056,-0.24116 -1.64063,-0.65652 z m 13.75,-2.5 c 0.41538,-0.41536 1.4935,-0.45976 2.39588,-0.0986 0.99712,0.39903 0.701,0.69523 -0.75525,0.7552 -1.31763,0.0542 -2.056,-0.24116 -1.64063,-0.65652 z m -1306.5885,-37.36979 c 0.85586,-1.03125 1.83736,-1.875 2.18111,-1.875 0.34375,0 -0.0752,0.84375 -0.93111,1.875 -0.85586,1.03125 -1.83736,1.875 -2.18111,1.875 -0.34375,0 0.0752,-0.84375 0.93111,-1.875 z m 6.25,-5 c 0.85586,-1.03125 1.83736,-1.875 2.18111,-1.875 0.34375,0 -0.0752,0.84375 -0.93111,1.875 -0.85586,1.03125 -1.83736,1.875 -2.18111,1.875 -0.34375,0 0.0752,-0.84375 0.93111,-1.875 z m 6.875,-5.625 c 1.24436,-1.375 2.54372,-2.5 2.88747,-2.5 0.34375,0 -0.39311,1.125 -1.63747,2.5 -1.24436,1.375 -2.54373,2.5 -2.88748,2.5 -0.34375,0 0.39312,-1.125 1.63748,-2.5 z m 1835.62502,-3.05123 c 0,-0.30317 0.5625,-0.89887 1.25,-1.32377 0.6875,-0.4249 1.25,-0.17685 1.25,0.55122 0,0.72808 -0.5625,1.32378 -1.25,1.32378 -0.6875,0 -1.25,-0.24805 -1.25,-0.55123 z m -1828.75002,-2.57377 c 0.85586,-1.03125 1.83736,-1.875 2.18111,-1.875 0.34375,0 -0.0752,0.84375 -0.93111,1.875 -0.85586,1.03125 -1.83736,1.875 -2.18111,1.875 -0.34375,0 0.0752,-0.84375 0.93111,-1.875 z m 1834.32852,-5.3125 c 1.9271,-2.92187 3.742,-5.3125 4.0333,-5.3125 0.9016,0 -3.8846,7.60774 -5.7618,9.1586 -0.9764,0.80652 -0.1985,-0.92422 1.7285,-3.8461 z m -1827.47005,-6.83596 c -0.64797,-3.45404 5.68537,-21.88534 36.83008,-107.18286 20.68694,-56.65633 37.74173,-103.04687 37.89952,-103.09009 0.15782,-0.0432 1.54492,-0.78171 3.08247,-1.64109 2.20227,-1.23091 42.65682,-1.55844 190.625,-1.54336 110.8471,0.0113 187.10601,0.4771 186.06432,1.13651 -1.39582,0.88358 -1.219,1.20649 0.84515,1.54336 3.14184,0.51274 -445.47905,213.99073 -450.89981,214.56243 -3.27299,0.34519 -3.74773,-0.0589 -4.44673,-3.7849 z"
       id="path4153"
       inkscape:connector-curvature="0" />
    <path
       style="fill:#17ac8e"
       d="m -1101.3013,1745.6482 c -13.0618,-25.6094 -26.6206,-52.3179 -30.1306,-59.3523 l -6.3819,-12.7898 0,-161.8977 c 0,-89.0437 0.1949,-161.8977 0.4331,-161.8977 0.2382,0 87.0039,-19.1246 192.81248,-42.4992 105.8087,-23.3745 193.7052,-42.4995 195.32564,-42.5 2.28732,-6e-4 2.76156,0.4884 2.12048,2.1867 -1.11452,2.9525 -277.8632,514.6856 -281.5574,520.625 l -2.9157,4.6875 -22.9787,0 -22.9787,0 -23.7487,-46.5625 z m 235.01468,44.5729 c 10.07,-3.0974 251.69528,-61.7604 254.38325,-61.7604 2.15461,0 132.09226,53.6433 148.03918,61.1163 l 5.42537,2.5425 -206.875,-0.041 c -182.7918,-0.036 -206.1879,-0.2527 -200.9728,-1.8569 z m 743.4629,-1.4479 c -0.0125,-4.1525 37.41709,-383.4959 38.23384,-387.5 0.31554,-1.5469 1.39965,-2.8125 2.40914,-2.8125 1.84313,0 559.66804,340.0625 563.04255,343.2432 0.99025,0.9335 1.45487,2.0429 1.03237,2.4656 -0.69312,0.6931 -161.80862,37.3281 -197.54037,44.9175 l -14.70738,3.1237 -196.23015,0 -196.2301,0 -0.01,-3.4375 z M 1258.6861,1454.0908 c -1.5813,-1.6431 -29.0031,-25.9029 -60.9375,-53.9106 -31.9343,-28.0076 -58.0624,-51.343 -58.0624,-51.8563 0,-0.5133 2.9531,-1.2589 6.5625,-1.6569 12.6037,-1.3896 114.9606,-8.3499 115.4593,-7.8512 0.2766,0.2766 0.3567,26.9989 0.1781,59.3828 l -0.3249,58.8798 -2.8751,-2.9876 z m -445.76892,-190.769 c -174.56675,-45.9841 -317.70312,-83.9165 -318.08075,-84.2943 -0.37775,-0.3777 -0.14425,-1.5101 0.519,-2.5165 1.49313,-2.2658 693.89727,-493.05032 695.60077,-493.05032 0.6765,0 1.23,1.98657 1.23,4.41461 0,2.42804 -12.0938,149.50396 -26.875,326.83541 -14.7813,177.3314 -26.875,324.6886 -26.875,327.4604 0,4.8812 -0.1276,5.0352 -4.0625,4.8989 -2.2344,-0.077 -146.88977,-37.7641 -321.45652,-83.7482 z M -1137.8138,814.11608 c 0,-130.30184 0.3158,-163.11621 1.5625,-162.37891 2.994,1.77057 262.09648,201.81495 262.73588,202.84963 0.3544,0.57335 -52.6397,25.40709 -117.7646,55.18609 -97.52368,44.5937 -135.68408,62.20021 -145.59628,67.17555 -0.5156,0.25881 -0.9375,-73.01575 -0.9375,-162.83236 z m 823.74998,160.89017 c 0,-1.21242 63.19165,-121.4468 140.4259,-267.1875 l 140.42589,-264.98307 48.91081,-0.32697 48.9108,-0.32698 1.81664,2.82698 c 5.06437,7.88098 175.90533,353.77011 175.39296,355.10527 -0.57825,1.50685 -549.70736,177.0967 -553.84156,177.0967 -1.12279,0 -2.04144,-0.99199 -2.04144,-2.20442 z M 458.38931,581.85317 C 330.1448,508.14355 223.2698,446.57953 220.8893,445.04424 l -4.32812,-2.79144 337.53437,-0.0211 c 317.96425,-0.0198 337.7135,0.10432 340.625,2.14134 5.867,4.1049 288.09865,228.06116 291.14935,231.03259 1.6823,1.63858 2.7855,3.25238 2.4518,3.58621 -0.5874,0.58736 -487.70527,37.01455 -493.75865,36.92379 -1.651,-0.0248 -107.92925,-60.35288 -236.17375,-134.0625 z m -1083.64222,73.17001 c 0.0335,-1.20312 17.34241,-49.4375 38.46424,-107.1875 l 38.40332,-105 188.09827,-0.2768 c 146.34266,-0.21536 187.54328,0.0549 185.59826,1.21727 -4.5913,2.7439 -448.26907,213.43453 -449.45595,213.43453 -0.64298,0 -1.14164,-0.98437 -1.10814,-2.1875 z"
       id="path4151"
       inkscape:connector-curvature="0" />
    <path
       style="fill:#17aa8d"
       d="m -1105.2263,1734.3849 c -16.1081,-31.7896 -30.0299,-58.5425 -30.9375,-59.451 -1.3497,-1.3511 -1.648,-30.9262 -1.6391,-162.5 l 0.011,-160.8482 193.96538,-42.7945 c 106.6811,-23.5369 194.21274,-42.5472 194.51487,-42.245 0.30214,0.3021 -63.08099,118.1649 -140.85137,261.9173 -77.7705,143.7525 -141.40078,261.9033 -141.40078,262.5576 0,0.7086 -8.9713,1.1842 -22.1875,1.1763 l -22.1875,-0.014 -29.2875,-57.7991 z m 241.16248,56.3167 c 3.0937,-0.6649 61.2259,-14.7111 129.18255,-31.214 l 123.55756,-30.005 69.56744,29.1285 c 38.2621,16.0207 72.37995,30.0951 75.81745,31.2763 5.95563,2.0468 -3.40532,2.145 -198.75,2.0856 -135.21875,-0.041 -203.0853,-0.4741 -199.375,-1.2714 z m 741.84732,-0.9036 c 0.42118,-1.3272 9.4157,-89.4087 19.98782,-195.737 10.57212,-106.3283 19.48551,-193.5876 19.80752,-193.9097 0.32203,-0.322 126.99641,76.6255 281.49859,170.9945 215.98425,131.9219 280.37237,171.7977 278.5735,172.5217 -1.28688,0.5178 -46.496,10.8383 -100.46475,22.9343 -53.96875,12.096 -100.53525,22.8064 -103.48113,23.8008 -4.58262,1.547 -33.61775,1.8081 -201.02178,1.8081 -192.7392,0 -195.6541,-0.036 -194.89977,-2.4127 z m 1381.6818,-335.591 c -0.2222,-0.9645 -26.5603,-24.67 -58.5291,-52.6789 -31.9688,-28.0089 -58.2926,-51.3475 -58.4974,-51.8635 -0.4662,-1.1748 6.0051,-1.765 60.9974,-5.5638 24.4063,-1.6859 47.6094,-3.3913 51.5625,-3.7898 l 7.1875,-0.7245 0,58.1871 c 0,34.8887 -0.4638,58.1871 -1.1584,58.1871 -0.637,0 -1.3401,-0.7892 -1.5625,-1.7537 z M 815.4668,1262.1477 c -174.5395,-45.9713 -317.65825,-83.8979 -318.04175,-84.2814 -0.3835,-0.3835 -0.17225,-1.1858 0.46951,-1.7829 0.87475,-0.8141 669.97764,-475.06293 688.42614,-487.94491 1.9301,-1.3478 3.76,-2.20001 4.0661,-1.89382 0.5249,0.52482 -52.3976,643.05733 -53.9002,654.40353 -0.3949,2.982 -1.3554,5.2623 -2.1895,5.1981 -0.8173,-0.063 -144.29092,-37.7273 -318.8303,-83.6986 z M -1137.8138,814.97854 c 0,-89.52232 0.3317,-162.76786 0.7371,-162.76786 0.4055,0 1.6711,1.05508 2.8125,2.3446 1.1415,1.28952 58.8879,46.07545 128.3254,99.52426 69.43748,53.44883 127.25408,98.13219 128.48118,99.29638 2.1118,2.00335 -4.6928,5.28322 -127.06598,61.24716 -71.1135,32.52175 -130.1957,60.02885 -131.2938,61.12689 -1.8285,1.82857 -1.9964,-11.68885 -1.9964,-160.77143 z m 825.76181,159.95353 c -0.36352,-0.58818 62.20579,-119.70673 139.04291,-264.7079 76.83711,-145.00117 140.078,-264.62286 140.53531,-265.82599 0.77204,-2.0311 4.27511,-2.1875 48.99572,-2.1875 30.00063,0 48.16423,0.45339 48.16423,1.20224 0,0.66124 39.375,80.45757 87.5,177.32518 48.125,96.86762 87.5,176.9053 87.5,177.86154 0,1.21439 -82.82313,28.09089 -274.6875,89.13743 -151.07812,48.06935 -275.07051,87.59357 -275.53863,87.83161 -0.46812,0.23803 -1.14855,-0.0485 -1.51205,-0.63661 z M 462.18618,582.04045 C 335.34243,509.12084 228.46743,447.84029 224.68618,445.86146 l -6.875,-3.59786 336.73162,-0.0265 336.73175,-0.0265 2.64326,2.8125 c 1.45387,1.54688 67.4715,54.19861 146.70589,117.00386 79.2344,62.80525 144.0625,114.69588 144.0625,115.3125 0,0.61663 -0.7145,1.12114 -1.5879,1.12114 -0.8732,0 -111.4756,8.15625 -245.78287,18.125 -134.30737,9.96875 -244.26475,18.10495 -244.34975,18.08045 -0.085,-0.0245 -103.93575,-59.70606 -230.7795,-132.62567 z m -1085,71.19847 c 0,-0.80948 16.875,-47.69704 37.5,-104.1946 20.625,-56.49757 37.5,-103.64777 37.5,-104.77824 0,-1.89843 14.29581,-2.04894 187.1875,-1.9708 130.0874,0.0588 186.23424,0.47865 184.0625,1.37639 -1.71875,0.71049 -5.09375,2.1489 -7.5,3.19648 -2.40625,1.04758 -101.856,48.2407 -220.99944,104.87361 -119.14344,56.63291 -216.87781,102.96892 -217.1875,102.96892 -0.30969,0 -0.56306,-0.66229 -0.56306,-1.47176 z"
       id="path4149"
       inkscape:connector-curvature="0" />
  </g>
  <g
     id="g4318"
     transform="translate(2.689543e-5,0)">
    <path
       style="fill:#d9d9d9;fill-opacity:1"
       inkscape:connector-curvature="0"
       d="m 1806.4121,320.00096 c -15.675,-0.0711 -31.2999,3.80398 -44.7794,11.94096 -25.3448,14.1478 -39.8855,41.20391 -47.4199,68.16933 -10.6211,38.55371 -11.4336,78.93132 -10.5602,118.65393 2.2542,35.61128 2.2542,71.3435 1.5232,107.01526 0.021,2.37812 -1.8582,4.13148 -2.894,6.14683 -11.8599,19.06523 -22.0039,39.1583 -31.3255,59.55368 -30.0358,66.86942 -49.6739,137.89047 -64.7832,209.3952 -15.0078,72.10933 -25.04,145.11545 -31.8839,218.41395 -1.056,9.0691 -1.9191,18.2087 -1.777,27.3584 9.6262,-25.8973 21.8619,-50.7466 33.9656,-75.5758 29.5485,-60.0374 65.4127,-116.85014 93.6208,-177.55258 -2.5995,61.79073 -11.1289,125.27438 6.6002,185.71488 6.9657,23.0756 15.9727,45.9701 30.5132,65.4989 14.7033,19.9923 32.9093,37.2236 52.0397,53.0039 34.7068,28.4566 73.0792,51.9859 111.5431,75.0213 12.3473,7.9406 25.1517,15.4276 36.1992,25.1417 -62.1228,-16.3647 -126.5405,-20.8993 -190.1864,-27.9127 -12.124,-0.6047 -24.1566,-2.9222 -36.301,-2.7207 135.1717,16.0019 266.3628,55.15 395.4012,97.0896 7.4126,1.9953 14.5913,5.4615 22.3898,5.643 -9.5855,-7.3963 -21.2018,-11.5681 -31.7824,-17.332 -0.3859,-5.9654 -0.062,-11.9411 0.5077,-17.8863 8.1029,-82.3877 15.7998,-164.9164 18.4804,-247.6869 0.1219,-22.1889 2.0412,-44.3378 0.4571,-66.5067 -0.4468,-22.4712 -1.2896,-45.08342 -4.9248,-67.31276 16.6933,9.67369 30.107,23.78116 43.9166,36.98176 42.2817,41.6371 82.0349,85.7533 122.4077,129.1842 1.2389,-30.5932 -5.7879,-60.7831 -12.2865,-90.4894 -18.3585,-76.34163 -46.5971,-150.78878 -87.5792,-218.06126 -26.1163,-42.64488 -58.8024,-80.95675 -94.0779,-116.38666 -31.1526,-30.99613 -64.4177,-59.8056 -97.0733,-89.22977 -28.7767,-26.58249 -57.8377,-53.73939 -78.8974,-87.01287 -15.4748,-24.40593 -32.3408,-50.49468 -32.4424,-80.36221 -11.3521,6.20729 -14.4998,20.1636 -16.9573,31.79219 -4.8333,32.93088 -0.518,66.61751 7.5648,98.70194 20.7752,74.8099 62.8337,141.13518 91.3871,212.92206 20.6533,50.5249 33.4172,104.1837 37.3164,158.55792 4.1428,57.92126 1.3099,116.73926 -12.2358,173.37076 -4.346,16.6469 -8.8848,33.6261 -17.8204,48.5197 -4.7521,8.3032 -14.7234,11.2456 -23.5576,12.8982 -25.2024,3.164 -50.6894,-1.6828 -74.4296,-10.1271 -44.8,-15.9617 -85.9037,-45.3354 -110.6798,-86.2068 -19.3538,-31.8628 -25.9742,-69.4692 -28.0253,-106.10833 -1.7872,-43.79364 2.8532,-87.46635 5.9399,-131.09874 6.8237,-82.36748 5.1787,-165.1179 5.6864,-247.68691 2.2542,-30.39154 5.8284,-60.73268 11.7788,-90.64052 4.8333,-23.01533 10.7632,-46.21205 22.1359,-67.01049 6.9455,-12.59596 16.6832,-24.38577 30.0055,-30.63337 14.3579,-6.79173 31.1123,-5.73368 46.0997,-1.66267 9.8901,2.3378 18.9577,7.56766 29.1929,8.51485 17.7697,2.09598 35.4175,-2.29749 53.1061,-3.22454 17.8712,-1.16891 35.5496,2.70056 52.9536,6.24759 -13.18,-18.66218 -32.2392,-33.79748 -54.5784,-39.90399 -19.2928,-5.46161 -39.7735,-10.1977 -55.3905,-23.47887 -12.1647,-10.70154 -24.6136,-22.04797 -40.3118,-27.30803 -8.9559,-2.81899 -18.3667,-4.29039 -27.7717,-4.33302 z m 35.1333,30.78452 c 12.1976,-0.69765 24.4334,13.53059 19.1913,25.29269 -7.0875,10.82244 -26.1367,10.90306 -32.5947,-0.70537 -4.9755,-8.26297 -0.7514,-19.88147 8.2248,-23.32772 1.6907,-0.75828 3.4362,-1.15993 5.1786,-1.2596 z"
       id="path6-3" />
    <path
       style="fill:url(#linearGradient4302);fill-opacity:1;stroke:none"
       inkscape:connector-curvature="0"
       d="m 1796.4121,310.00096 c -15.675,-0.0711 -31.2999,3.80398 -44.7794,11.94096 -25.3448,14.1478 -39.8855,41.20391 -47.4199,68.16933 -10.6211,38.55371 -11.4336,78.93132 -10.5602,118.65393 2.2542,35.61128 2.2542,71.3435 1.5232,107.01526 0.021,2.37812 -1.8582,4.13148 -2.894,6.14683 -11.8599,19.06523 -22.0039,39.1583 -31.3255,59.55368 -30.0358,66.86942 -49.6739,137.89047 -64.7832,209.3952 -15.0078,72.10933 -25.04,145.11545 -31.8839,218.41395 -1.056,9.0691 -1.9191,18.2087 -1.777,27.3584 9.6262,-25.8973 21.8619,-50.7466 33.9656,-75.5758 29.5485,-60.0373 65.4127,-116.85014 93.6208,-177.55258 -2.5995,61.79073 -11.1289,125.27438 6.6002,185.71488 6.9657,23.0756 15.9727,45.9701 30.5132,65.4989 14.7033,19.9923 32.9093,37.2236 52.0397,53.0039 34.7068,28.4566 73.0792,51.9859 111.5431,75.0213 12.3473,7.9406 25.1517,15.4276 36.1992,25.1417 -62.1228,-16.3647 -126.5405,-20.8993 -190.1864,-27.9127 -12.124,-0.6047 -24.1566,-2.9222 -36.301,-2.7207 135.1717,16.0019 266.3628,55.15 395.4012,97.0896 7.4126,1.9953 14.5913,5.4615 22.3898,5.643 -9.5855,-7.3963 -21.2018,-11.5681 -31.7824,-17.332 -0.3859,-5.9654 -0.062,-11.9411 0.5077,-17.8863 8.1029,-82.3877 15.7998,-164.9164 18.4804,-247.6869 0.1219,-22.1889 2.0412,-44.3378 0.4571,-66.5067 -0.4468,-22.47115 -1.2896,-45.08342 -4.9248,-67.31276 16.6933,9.67369 30.107,23.78116 43.9166,36.98172 42.2817,41.63714 82.0349,85.75334 122.4077,129.18424 1.2389,-30.5932 -5.7879,-60.7831 -12.2865,-90.4894 -18.3585,-76.34163 -46.5971,-150.78878 -87.5792,-218.06126 -26.1163,-42.64488 -58.8024,-80.95675 -94.0779,-116.38666 -31.1526,-30.99613 -64.4177,-59.8056 -97.0733,-89.22977 -28.7767,-26.58249 -57.8377,-53.73939 -78.8974,-87.01287 -15.4748,-24.40593 -32.3408,-50.49468 -32.4424,-80.36221 -11.3521,6.20729 -14.4998,20.1636 -16.9573,31.79219 -4.8333,32.93088 -0.518,66.61751 7.5648,98.70194 20.7752,74.8099 62.8337,141.13518 91.3871,212.92206 20.6533,50.5249 33.4172,104.1837 37.3164,158.55792 4.1428,57.92126 1.3099,116.73926 -12.2358,173.37076 -4.346,16.6469 -8.8848,33.6261 -17.8204,48.5197 -4.7521,8.3032 -14.7234,11.2456 -23.5576,12.8982 -25.2024,3.164 -50.6894,-1.6828 -74.4296,-10.1271 -44.8,-15.9617 -85.9037,-45.3354 -110.6798,-86.2068 -19.3538,-31.8628 -25.9742,-69.46922 -28.0253,-106.10833 -1.7872,-43.79364 2.8532,-87.46635 5.9399,-131.09874 6.8237,-82.36748 5.1787,-165.1179 5.6864,-247.68691 2.2542,-30.39154 5.8284,-60.73268 11.7788,-90.64052 4.8333,-23.01533 10.7632,-46.21205 22.1359,-67.01049 6.9455,-12.59596 16.6832,-24.38577 30.0055,-30.63337 14.3579,-6.79173 31.1123,-5.73368 46.0997,-1.66267 9.8901,2.3378 18.9577,7.56766 29.1929,8.51485 17.7697,2.09598 35.4175,-2.29749 53.1061,-3.22454 17.8712,-1.16891 35.5496,2.70056 52.9536,6.24759 -13.18,-18.66218 -32.2392,-33.79748 -54.5784,-39.90399 -19.2928,-5.46161 -39.7735,-10.1977 -55.3905,-23.47887 -12.1647,-10.70154 -24.6136,-22.04797 -40.3118,-27.30803 -8.9559,-2.81899 -18.3667,-4.29039 -27.7717,-4.33302 z m 35.1333,30.78452 c 12.1976,-0.69765 24.4334,13.53059 19.1913,25.29269 -7.0875,10.82244 -26.1367,10.90306 -32.5947,-0.70537 -4.9755,-8.26297 -0.7514,-19.88147 8.2248,-23.32772 1.6907,-0.75828 3.4362,-1.15993 5.1786,-1.2596 z"
       id="path6" />
  </g>
  <text
     xml:space="preserve"
     style="font-style:normal;font-weight:normal;font-size:73.76773071px;line-height:125%;font-family:sans-serif;letter-spacing:0px;word-spacing:0px;fill:#ffffff;fill-opacity:1;stroke:none;stroke-width:1px;stroke-linecap:butt;stroke-linejoin:miter;stroke-opacity:1;filter:url(#filter4274);"
     x="1485.8021"
     y="1381.7638"
     id="text4139-0"
     sodipodi:linespacing="125%"><tspan
       sodipodi:role="line"
       id="tspan4141-7"
       x="1485.8021"
       y="1381.7638"
       style="font-style:normal;font-variant:normal;font-weight:normal;font-stretch:normal;font-size:72px;font-family:Comfortaa;-inkscape-font-specification:Comfortaa;fill:#ffffff;fill-opacity:1;">Powered by</tspan></text>
  <text
     xml:space="preserve"
     style="font-style:normal;font-weight:normal;font-size:93.4263382px;line-height:125%;font-family:sans-serif;text-align:center;letter-spacing:0px;word-spacing:0px;text-anchor:middle;fill:#000000;fill-opacity:1;stroke:none;stroke-width:1px;stroke-linecap:butt;stroke-linejoin:miter;stroke-opacity:1;filter:url(#filter3357)"
     x="1946.7938"
     y="1533.924"
     id="text4139"
     sodipodi:linespacing="125%"><tspan
       sodipodi:role="line"
       id="tspan4141"
       x="1946.7938"
       y="1533.924"
       style="font-style:normal;font-variant:normal;font-weight:normal;font-stretch:normal;font-size:186.85267639px;font-family:Comfortaa;-inkscape-font-specification:Comfortaa;text-align:center;text-anchor:middle;fill:#000000;fill-opacity:1">manjaro</tspan></text>
</svg>
